%TF.GenerationSoftware,KiCad,Pcbnew,(5.1.9)-1*%
%TF.CreationDate,2021-05-13T14:47:52+02:00*%
%TF.ProjectId,AR2ISS_AntCTL_HW,41523249-5353-45f4-916e-7443544c5f48,rev?*%
%TF.SameCoordinates,PX2625a00PY8f0d180*%
%TF.FileFunction,Legend,Bot*%
%TF.FilePolarity,Positive*%
%FSLAX46Y46*%
G04 Gerber Fmt 4.6, Leading zero omitted, Abs format (unit mm)*
G04 Created by KiCad (PCBNEW (5.1.9)-1) date 2021-05-13 14:47:52*
%MOMM*%
%LPD*%
G01*
G04 APERTURE LIST*
%ADD10C,0.150000*%
%ADD11C,0.152400*%
%ADD12C,0.120000*%
G04 APERTURE END LIST*
D10*
%TO.C,J9*%
X153892091Y98670000D02*
G75*
G03*
X153892091Y98670000I-1082091J0D01*
G01*
D11*
%TO.C,J2*%
X150034500Y31962067D02*
G75*
G03*
X150034500Y31962067I-381000J0D01*
G01*
D12*
%TO.C,JP1*%
X77203500Y54817000D02*
X77203500Y55417000D01*
X75103500Y54117000D02*
X76503500Y54117000D01*
X74403500Y55417000D02*
X74403500Y54817000D01*
X76503500Y56117000D02*
X75103500Y56117000D01*
X75103500Y56117000D02*
G75*
G03*
X74403500Y55417000I0J-700000D01*
G01*
X74403500Y54817000D02*
G75*
G03*
X75103500Y54117000I700000J0D01*
G01*
X76503500Y54117000D02*
G75*
G03*
X77203500Y54817000I0J700000D01*
G01*
X77203500Y55417000D02*
G75*
G03*
X76503500Y56117000I-700000J0D01*
G01*
D10*
X76636833Y57464620D02*
X76636833Y56750334D01*
X76684452Y56607477D01*
X76779690Y56512239D01*
X76922547Y56464620D01*
X77017785Y56464620D01*
X76160642Y56464620D02*
X76160642Y57464620D01*
X75779690Y57464620D01*
X75684452Y57417000D01*
X75636833Y57369381D01*
X75589214Y57274143D01*
X75589214Y57131286D01*
X75636833Y57036048D01*
X75684452Y56988429D01*
X75779690Y56940810D01*
X76160642Y56940810D01*
X74636833Y56464620D02*
X75208261Y56464620D01*
X74922547Y56464620D02*
X74922547Y57464620D01*
X75017785Y57321762D01*
X75113023Y57226524D01*
X75208261Y57178905D01*
%TD*%
M02*
