%TF.GenerationSoftware,KiCad,Pcbnew,(5.1.9)-1*%
%TF.CreationDate,2021-05-16T21:23:40+02:00*%
%TF.ProjectId,AR2ISS_AntCTL_HW,41523249-5353-45f4-916e-7443544c5f48,rev?*%
%TF.SameCoordinates,PX2625a00PY8f0d180*%
%TF.FileFunction,Soldermask,Bot*%
%TF.FilePolarity,Negative*%
%FSLAX46Y46*%
G04 Gerber Fmt 4.6, Leading zero omitted, Abs format (unit mm)*
G04 Created by KiCad (PCBNEW (5.1.9)-1) date 2021-05-16 21:23:40*
%MOMM*%
%LPD*%
G01*
G04 APERTURE LIST*
%ADD10C,3.100000*%
%ADD11C,1.900000*%
%ADD12C,1.300000*%
%ADD13R,1.700000X1.700000*%
%ADD14O,1.700000X1.700000*%
%ADD15C,2.000000*%
%ADD16R,2.000000X2.000000*%
%ADD17C,4.500000*%
%ADD18C,1.600000*%
%ADD19R,1.600000X1.600000*%
%ADD20C,1.524000*%
%ADD21O,1.600000X1.600000*%
%ADD22C,1.270000*%
%ADD23C,1.500000*%
%ADD24C,1.700000*%
%ADD25C,0.100000*%
%ADD26R,1.905000X2.000000*%
%ADD27O,1.905000X2.000000*%
G04 APERTURE END LIST*
D10*
%TO.C,J9*%
X155350000Y88750000D03*
X155350000Y101450000D03*
D11*
X151920000Y86850000D03*
X151920000Y103350000D03*
D12*
X152810000Y98670000D03*
X151030000Y97650000D03*
X152810000Y96630000D03*
X151030000Y95610000D03*
X152810000Y94590000D03*
X151030000Y93570000D03*
X152810000Y92550000D03*
X151030000Y91530000D03*
X146170000Y88240000D03*
X146170000Y90530000D03*
X146170000Y99670000D03*
X146170000Y101960000D03*
%TD*%
D13*
%TO.C,J11*%
X128110000Y73280000D03*
D14*
X128110000Y75820000D03*
%TD*%
%TO.C,J13*%
X128250000Y102790000D03*
D13*
X128250000Y100250000D03*
%TD*%
D14*
%TO.C,J12*%
X128370000Y93570000D03*
D13*
X128370000Y91030000D03*
%TD*%
D14*
%TO.C,J10*%
X128360000Y84360000D03*
D13*
X128360000Y81820000D03*
%TD*%
D15*
%TO.C,K1*%
X140983500Y72497000D03*
X135903500Y72497000D03*
X140983500Y80117000D03*
X140983500Y75037000D03*
D16*
X135903500Y80117000D03*
D15*
X135903500Y75037000D03*
X140983500Y69957000D03*
X135903500Y69957000D03*
%TD*%
D17*
%TO.C,U4*%
X154000000Y8000000D03*
%TD*%
%TO.C,U2*%
X64000000Y103000000D03*
%TD*%
D18*
%TO.C,J7*%
X102098500Y18957000D03*
X99328500Y18957000D03*
X96558500Y18957000D03*
X93788500Y18957000D03*
X103483500Y16117000D03*
X100713500Y16117000D03*
X97943500Y16117000D03*
X95173500Y16117000D03*
D19*
X92403500Y16117000D03*
%TD*%
D18*
%TO.C,C10*%
X138653500Y28617000D03*
D19*
X136153500Y28617000D03*
%TD*%
D18*
%TO.C,C7*%
X138653500Y21367000D03*
D19*
X136153500Y21367000D03*
%TD*%
D18*
%TO.C,C6*%
X122403500Y30367000D03*
D19*
X124903500Y30367000D03*
%TD*%
D18*
%TO.C,C2*%
X122403500Y15617000D03*
D19*
X124903500Y15617000D03*
%TD*%
D18*
%TO.C,C1*%
X143153500Y21367000D03*
D19*
X145653500Y21367000D03*
%TD*%
D20*
%TO.C,J2*%
X154653500Y47617004D03*
X149653500Y44117004D03*
X154653500Y40617003D03*
X149653500Y37117003D03*
%TD*%
D19*
%TO.C,D8*%
X134653500Y84117000D03*
D21*
X142273500Y84117000D03*
%TD*%
D22*
%TO.C,F1*%
X155753500Y24517000D03*
X150653500Y26117000D03*
%TD*%
%TO.C,F2*%
X150653500Y31117000D03*
X155753500Y29517000D03*
%TD*%
%TO.C,F3*%
X155753500Y19517000D03*
X150653500Y21117000D03*
%TD*%
%TO.C,J1*%
G36*
G01*
X154528500Y63117000D02*
X153278500Y63117000D01*
G75*
G02*
X152653500Y63742000I0J625000D01*
G01*
X152653500Y64992000D01*
G75*
G02*
X153278500Y65617000I625000J0D01*
G01*
X154528500Y65617000D01*
G75*
G02*
X155153500Y64992000I0J-625000D01*
G01*
X155153500Y63742000D01*
G75*
G02*
X154528500Y63117000I-625000J0D01*
G01*
G37*
G36*
G01*
X154528500Y59617000D02*
X153278500Y59617000D01*
G75*
G02*
X152653500Y60242000I0J625000D01*
G01*
X152653500Y61492000D01*
G75*
G02*
X153278500Y62117000I625000J0D01*
G01*
X154528500Y62117000D01*
G75*
G02*
X155153500Y61492000I0J-625000D01*
G01*
X155153500Y60242000D01*
G75*
G02*
X154528500Y59617000I-625000J0D01*
G01*
G37*
D23*
X153903500Y60867000D03*
X153903500Y64367000D03*
%TD*%
D24*
%TO.C,J3*%
X17767000Y49374000D03*
X17767000Y46834000D03*
X17767000Y44294000D03*
X17767000Y41754000D03*
X17767000Y39214000D03*
X17767000Y36674000D03*
X17767000Y34134000D03*
X17767000Y31594000D03*
X17767000Y29054000D03*
X17767000Y26514000D03*
X17767000Y23974000D03*
X17767000Y21434000D03*
X17767000Y18894000D03*
X17767000Y16354000D03*
X17767000Y13814000D03*
X17767000Y11274000D03*
X17767000Y8734000D03*
X20307000Y49374000D03*
X20307000Y46834000D03*
X20307000Y44294000D03*
X20307000Y41754000D03*
X20307000Y39214000D03*
X20307000Y36674000D03*
X20307000Y34134000D03*
X20307000Y31594000D03*
X20307000Y29054000D03*
X20307000Y26514000D03*
X20307000Y23974000D03*
X20307000Y21434000D03*
X20307000Y18894000D03*
X20307000Y16354000D03*
X20307000Y13814000D03*
X20307000Y11274000D03*
G36*
G01*
X21157000Y9334000D02*
X21157000Y8134000D01*
G75*
G02*
X20907000Y7884000I-250000J0D01*
G01*
X19707000Y7884000D01*
G75*
G02*
X19457000Y8134000I0J250000D01*
G01*
X19457000Y9334000D01*
G75*
G02*
X19707000Y9584000I250000J0D01*
G01*
X20907000Y9584000D01*
G75*
G02*
X21157000Y9334000I0J-250000D01*
G01*
G37*
%TD*%
%TO.C,J4*%
G36*
G01*
X21157000Y62294000D02*
X21157000Y61094000D01*
G75*
G02*
X20907000Y60844000I-250000J0D01*
G01*
X19707000Y60844000D01*
G75*
G02*
X19457000Y61094000I0J250000D01*
G01*
X19457000Y62294000D01*
G75*
G02*
X19707000Y62544000I250000J0D01*
G01*
X20907000Y62544000D01*
G75*
G02*
X21157000Y62294000I0J-250000D01*
G01*
G37*
X20307000Y64234000D03*
X20307000Y66774000D03*
X20307000Y69314000D03*
X20307000Y71854000D03*
X20307000Y74394000D03*
X20307000Y76934000D03*
X20307000Y79474000D03*
X20307000Y82014000D03*
X20307000Y84554000D03*
X20307000Y87094000D03*
X20307000Y89634000D03*
X20307000Y92174000D03*
X20307000Y94714000D03*
X20307000Y97254000D03*
X20307000Y99794000D03*
X20307000Y102334000D03*
X17767000Y61694000D03*
X17767000Y64234000D03*
X17767000Y66774000D03*
X17767000Y69314000D03*
X17767000Y71854000D03*
X17767000Y74394000D03*
X17767000Y76934000D03*
X17767000Y79474000D03*
X17767000Y82014000D03*
X17767000Y84554000D03*
X17767000Y87094000D03*
X17767000Y89634000D03*
X17767000Y92174000D03*
X17767000Y94714000D03*
X17767000Y97254000D03*
X17767000Y99794000D03*
X17767000Y102334000D03*
%TD*%
%TO.C,J5*%
G36*
G01*
X72253500Y37017000D02*
X71053500Y37017000D01*
G75*
G02*
X70803500Y37267000I0J250000D01*
G01*
X70803500Y38467000D01*
G75*
G02*
X71053500Y38717000I250000J0D01*
G01*
X72253500Y38717000D01*
G75*
G02*
X72503500Y38467000I0J-250000D01*
G01*
X72503500Y37267000D01*
G75*
G02*
X72253500Y37017000I-250000J0D01*
G01*
G37*
X74193500Y37867000D03*
X76733500Y37867000D03*
X71653500Y40407000D03*
X74193500Y40407000D03*
X76733500Y40407000D03*
%TD*%
D13*
%TO.C,J6*%
X107403500Y55367000D03*
D14*
X109943500Y55367000D03*
X107403500Y52827000D03*
X109943500Y52827000D03*
X107403500Y50287000D03*
X109943500Y50287000D03*
X107403500Y47747000D03*
X109943500Y47747000D03*
X107403500Y45207000D03*
X109943500Y45207000D03*
%TD*%
D23*
%TO.C,J8*%
X153903500Y73117000D03*
X153903500Y69617000D03*
G36*
G01*
X154528500Y68367000D02*
X153278500Y68367000D01*
G75*
G02*
X152653500Y68992000I0J625000D01*
G01*
X152653500Y70242000D01*
G75*
G02*
X153278500Y70867000I625000J0D01*
G01*
X154528500Y70867000D01*
G75*
G02*
X155153500Y70242000I0J-625000D01*
G01*
X155153500Y68992000D01*
G75*
G02*
X154528500Y68367000I-625000J0D01*
G01*
G37*
G36*
G01*
X154528500Y71867000D02*
X153278500Y71867000D01*
G75*
G02*
X152653500Y72492000I0J625000D01*
G01*
X152653500Y73742000D01*
G75*
G02*
X153278500Y74367000I625000J0D01*
G01*
X154528500Y74367000D01*
G75*
G02*
X155153500Y73742000I0J-625000D01*
G01*
X155153500Y72492000D01*
G75*
G02*
X154528500Y71867000I-625000J0D01*
G01*
G37*
%TD*%
D25*
%TO.C,JP1*%
G36*
X75153500Y54367602D02*
G01*
X75128966Y54367602D01*
X75080135Y54372412D01*
X75032010Y54381984D01*
X74985055Y54396228D01*
X74939722Y54415005D01*
X74896449Y54438136D01*
X74855650Y54465396D01*
X74817721Y54496524D01*
X74783024Y54531221D01*
X74751896Y54569150D01*
X74724636Y54609949D01*
X74701505Y54653222D01*
X74682728Y54698555D01*
X74668484Y54745510D01*
X74658912Y54793635D01*
X74654102Y54842466D01*
X74654102Y54867000D01*
X74653500Y54867000D01*
X74653500Y55367000D01*
X74654102Y55367000D01*
X74654102Y55391534D01*
X74658912Y55440365D01*
X74668484Y55488490D01*
X74682728Y55535445D01*
X74701505Y55580778D01*
X74724636Y55624051D01*
X74751896Y55664850D01*
X74783024Y55702779D01*
X74817721Y55737476D01*
X74855650Y55768604D01*
X74896449Y55795864D01*
X74939722Y55818995D01*
X74985055Y55837772D01*
X75032010Y55852016D01*
X75080135Y55861588D01*
X75128966Y55866398D01*
X75153500Y55866398D01*
X75153500Y55867000D01*
X75653500Y55867000D01*
X75653500Y54367000D01*
X75153500Y54367000D01*
X75153500Y54367602D01*
G37*
G36*
X75953500Y55867000D02*
G01*
X76453500Y55867000D01*
X76453500Y55866398D01*
X76478034Y55866398D01*
X76526865Y55861588D01*
X76574990Y55852016D01*
X76621945Y55837772D01*
X76667278Y55818995D01*
X76710551Y55795864D01*
X76751350Y55768604D01*
X76789279Y55737476D01*
X76823976Y55702779D01*
X76855104Y55664850D01*
X76882364Y55624051D01*
X76905495Y55580778D01*
X76924272Y55535445D01*
X76938516Y55488490D01*
X76948088Y55440365D01*
X76952898Y55391534D01*
X76952898Y55367000D01*
X76953500Y55367000D01*
X76953500Y54867000D01*
X76952898Y54867000D01*
X76952898Y54842466D01*
X76948088Y54793635D01*
X76938516Y54745510D01*
X76924272Y54698555D01*
X76905495Y54653222D01*
X76882364Y54609949D01*
X76855104Y54569150D01*
X76823976Y54531221D01*
X76789279Y54496524D01*
X76751350Y54465396D01*
X76710551Y54438136D01*
X76667278Y54415005D01*
X76621945Y54396228D01*
X76574990Y54381984D01*
X76526865Y54372412D01*
X76478034Y54367602D01*
X76453500Y54367602D01*
X76453500Y54367000D01*
X75953500Y54367000D01*
X75953500Y55867000D01*
G37*
%TD*%
D26*
%TO.C,U5*%
X139943500Y11117000D03*
D27*
X137403500Y11117000D03*
X134863500Y11117000D03*
%TD*%
D17*
%TO.C,U1*%
X4000000Y8000000D03*
%TD*%
%TO.C,U3*%
X4000000Y103000000D03*
%TD*%
M02*
