%TF.GenerationSoftware,KiCad,Pcbnew,(5.1.9)-1*%
%TF.CreationDate,2021-04-04T23:22:28+02:00*%
%TF.ProjectId,AR2ISS_AntCTL_HW,41523249-5353-45f4-916e-7443544c5f48,rev?*%
%TF.SameCoordinates,PX2625a00PY8f0d180*%
%TF.FileFunction,Soldermask,Bot*%
%TF.FilePolarity,Negative*%
%FSLAX46Y46*%
G04 Gerber Fmt 4.6, Leading zero omitted, Abs format (unit mm)*
G04 Created by KiCad (PCBNEW (5.1.9)-1) date 2021-04-04 23:22:28*
%MOMM*%
%LPD*%
G01*
G04 APERTURE LIST*
%ADD10R,1.600000X1.600000*%
%ADD11O,1.600000X1.600000*%
%ADD12C,1.270000*%
%ADD13C,1.500000*%
%ADD14C,1.700000*%
%ADD15C,1.300000*%
%ADD16C,1.900000*%
%ADD17C,3.100000*%
%ADD18R,1.700000X1.700000*%
%ADD19O,1.700000X1.700000*%
%ADD20C,1.600000*%
%ADD21C,2.000000*%
%ADD22R,2.000000X2.000000*%
%ADD23R,1.905000X2.000000*%
%ADD24O,1.905000X2.000000*%
%ADD25C,4.500000*%
G04 APERTURE END LIST*
D10*
%TO.C,D8*%
X19075001Y130204999D03*
D11*
X26695001Y130204999D03*
%TD*%
D12*
%TO.C,F1*%
X78645001Y136674999D03*
X73545001Y138274999D03*
%TD*%
%TO.C,F2*%
X83995001Y141634999D03*
X89095001Y140034999D03*
%TD*%
%TO.C,F3*%
X35745001Y128504999D03*
X30645001Y130104999D03*
%TD*%
%TO.C,J1*%
G36*
G01*
X87995001Y151459999D02*
X87995001Y152709999D01*
G75*
G02*
X88620001Y153334999I625000J0D01*
G01*
X89870001Y153334999D01*
G75*
G02*
X90495001Y152709999I0J-625000D01*
G01*
X90495001Y151459999D01*
G75*
G02*
X89870001Y150834999I-625000J0D01*
G01*
X88620001Y150834999D01*
G75*
G02*
X87995001Y151459999I0J625000D01*
G01*
G37*
G36*
G01*
X84495001Y151459999D02*
X84495001Y152709999D01*
G75*
G02*
X85120001Y153334999I625000J0D01*
G01*
X86370001Y153334999D01*
G75*
G02*
X86995001Y152709999I0J-625000D01*
G01*
X86995001Y151459999D01*
G75*
G02*
X86370001Y150834999I-625000J0D01*
G01*
X85120001Y150834999D01*
G75*
G02*
X84495001Y151459999I0J625000D01*
G01*
G37*
D13*
X85745001Y152084999D03*
X89245001Y152084999D03*
%TD*%
D14*
%TO.C,J2*%
X25280001Y163734999D03*
X25280001Y166274999D03*
X25280001Y168814999D03*
X25280001Y171354999D03*
X25280001Y173894999D03*
X25280001Y176434999D03*
X25280001Y178974999D03*
X25280001Y181514999D03*
X25280001Y184054999D03*
X25280001Y186594999D03*
X25280001Y189134999D03*
X25280001Y191674999D03*
X25280001Y194214999D03*
X25280001Y196754999D03*
X25280001Y199294999D03*
X25280001Y201834999D03*
X25280001Y204374999D03*
X22740001Y163734999D03*
X22740001Y166274999D03*
X22740001Y168814999D03*
X22740001Y171354999D03*
X22740001Y173894999D03*
X22740001Y176434999D03*
X22740001Y178974999D03*
X22740001Y181514999D03*
X22740001Y184054999D03*
X22740001Y186594999D03*
X22740001Y189134999D03*
X22740001Y191674999D03*
X22740001Y194214999D03*
X22740001Y196754999D03*
X22740001Y199294999D03*
X22740001Y201834999D03*
G36*
G01*
X21890001Y203774999D02*
X21890001Y204974999D01*
G75*
G02*
X22140001Y205224999I250000J0D01*
G01*
X23340001Y205224999D01*
G75*
G02*
X23590001Y204974999I0J-250000D01*
G01*
X23590001Y203774999D01*
G75*
G02*
X23340001Y203524999I-250000J0D01*
G01*
X22140001Y203524999D01*
G75*
G02*
X21890001Y203774999I0J250000D01*
G01*
G37*
%TD*%
%TO.C,J3*%
G36*
G01*
X33870001Y203774999D02*
X33870001Y204974999D01*
G75*
G02*
X34120001Y205224999I250000J0D01*
G01*
X35320001Y205224999D01*
G75*
G02*
X35570001Y204974999I0J-250000D01*
G01*
X35570001Y203774999D01*
G75*
G02*
X35320001Y203524999I-250000J0D01*
G01*
X34120001Y203524999D01*
G75*
G02*
X33870001Y203774999I0J250000D01*
G01*
G37*
X34720001Y201834999D03*
X34720001Y199294999D03*
X34720001Y196754999D03*
X34720001Y194214999D03*
X34720001Y191674999D03*
X34720001Y189134999D03*
X34720001Y186594999D03*
X34720001Y184054999D03*
X34720001Y181514999D03*
X34720001Y178974999D03*
X34720001Y176434999D03*
X34720001Y173894999D03*
X34720001Y171354999D03*
X34720001Y168814999D03*
X34720001Y166274999D03*
X34720001Y163734999D03*
X37260001Y204374999D03*
X37260001Y201834999D03*
X37260001Y199294999D03*
X37260001Y196754999D03*
X37260001Y194214999D03*
X37260001Y191674999D03*
X37260001Y189134999D03*
X37260001Y186594999D03*
X37260001Y184054999D03*
X37260001Y181514999D03*
X37260001Y178974999D03*
X37260001Y176434999D03*
X37260001Y173894999D03*
X37260001Y171354999D03*
X37260001Y168814999D03*
X37260001Y166274999D03*
X37260001Y163734999D03*
%TD*%
D15*
%TO.C,J4*%
X118660000Y195170000D03*
X120950000Y195170000D03*
X130090000Y195170000D03*
X132380000Y195170000D03*
X129090000Y200030000D03*
X128070000Y201810000D03*
X127050000Y200030000D03*
X126030000Y201810000D03*
X125010000Y200030000D03*
X123990000Y201810000D03*
X122970000Y200030000D03*
X121950000Y201810000D03*
D16*
X117270000Y200920000D03*
X133770000Y200920000D03*
D17*
X119170000Y204350000D03*
X131870000Y204350000D03*
%TD*%
%TO.C,J5*%
G36*
G01*
X75560001Y121624999D02*
X75560001Y122824999D01*
G75*
G02*
X75810001Y123074999I250000J0D01*
G01*
X77010001Y123074999D01*
G75*
G02*
X77260001Y122824999I0J-250000D01*
G01*
X77260001Y121624999D01*
G75*
G02*
X77010001Y121374999I-250000J0D01*
G01*
X75810001Y121374999D01*
G75*
G02*
X75560001Y121624999I0J250000D01*
G01*
G37*
D14*
X76410001Y119684999D03*
X76410001Y117144999D03*
X78950001Y122224999D03*
X78950001Y119684999D03*
X78950001Y117144999D03*
%TD*%
D18*
%TO.C,J6*%
X116515001Y151534999D03*
D19*
X119055001Y151534999D03*
X116515001Y148994999D03*
X119055001Y148994999D03*
X116515001Y146454999D03*
X119055001Y146454999D03*
X116515001Y143914999D03*
X119055001Y143914999D03*
X116515001Y141374999D03*
X119055001Y141374999D03*
%TD*%
D10*
%TO.C,J7*%
X39525001Y151545661D03*
D20*
X36755001Y151545661D03*
X33985001Y151545661D03*
X31215001Y151545661D03*
X28445001Y151545661D03*
X38140001Y149005661D03*
X35370001Y149005661D03*
X32600001Y149005661D03*
X29830001Y149005661D03*
%TD*%
D13*
%TO.C,J8*%
X56975001Y135554999D03*
X53475001Y135554999D03*
G36*
G01*
X52225001Y134929999D02*
X52225001Y136179999D01*
G75*
G02*
X52850001Y136804999I625000J0D01*
G01*
X54100001Y136804999D01*
G75*
G02*
X54725001Y136179999I0J-625000D01*
G01*
X54725001Y134929999D01*
G75*
G02*
X54100001Y134304999I-625000J0D01*
G01*
X52850001Y134304999D01*
G75*
G02*
X52225001Y134929999I0J625000D01*
G01*
G37*
G36*
G01*
X55725001Y134929999D02*
X55725001Y136179999D01*
G75*
G02*
X56350001Y136804999I625000J0D01*
G01*
X57600001Y136804999D01*
G75*
G02*
X58225001Y136179999I0J-625000D01*
G01*
X58225001Y134929999D01*
G75*
G02*
X57600001Y134304999I-625000J0D01*
G01*
X56350001Y134304999D01*
G75*
G02*
X55725001Y134929999I0J625000D01*
G01*
G37*
%TD*%
D21*
%TO.C,K1*%
X57690001Y144179999D03*
X52610001Y144179999D03*
X57690001Y151799999D03*
X57690001Y146719999D03*
D22*
X52610001Y151799999D03*
D21*
X52610001Y146719999D03*
X57690001Y141639999D03*
X52610001Y141639999D03*
%TD*%
D23*
%TO.C,U1*%
X74405001Y149934999D03*
D24*
X76945001Y149934999D03*
X79485001Y149934999D03*
%TD*%
D25*
%TO.C,U13*%
X135855001Y78494999D03*
%TD*%
%TO.C,U14*%
X135855001Y85644999D03*
%TD*%
%TO.C,U15*%
X128705001Y78494999D03*
%TD*%
%TO.C,Ue*%
X51000000Y28000000D03*
%TD*%
M02*
