M48
; DRILL file {KiCad (5.1.9)-1} date 05/20/21 17:23:26
; FORMAT={-:-/ absolute / metric / decimal}
; #@! TF.CreationDate,2021-05-20T17:23:26+02:00
; #@! TF.GenerationSoftware,Kicad,Pcbnew,(5.1.9)-1
FMAT,2
METRIC
T1C0.300
T2C0.400
T3C0.710
T4C0.800
T5C0.900
T6C1.000
T7C1.016
T8C1.100
T9C1.200
T10C1.500
T11C3.100
T12C3.500
%
G90
G05
T1
X23.6Y57.6
X23.6Y56.8
X23.6Y56.0
X23.6Y55.2
X24.403Y53.267
X25.403Y53.867
X26.826Y83.154
X27.842Y82.011
X27.969Y78.709
X27.969Y77.82
X28.403Y53.367
X28.5Y89.75
X28.579Y92.171
X29.153Y54.117
X29.8Y61.4
X29.8Y46.4
X30.6Y61.4
X30.6Y46.4
X31.4Y46.4
X31.5Y94.75
X32.329Y92.171
X32.5Y102.0
X33.25Y102.0
X36.922Y49.499
X37.0Y86.8
X37.0Y86.0
X37.0Y85.2
X37.8Y86.8
X37.8Y86.0
X37.8Y85.2
X37.8Y55.0
X38.0Y69.6
X38.0Y68.8
X38.8Y69.6
X38.8Y68.8
X38.8Y55.0
X39.6Y69.6
X39.6Y68.8
X39.8Y55.0
X41.367Y48.737
X41.431Y66.517
X41.431Y63.977
X45.876Y64.993
X45.876Y62.453
X46.154Y49.117
X46.575Y70.327
X47.0Y94.5
X47.75Y94.5
X47.75Y93.0
X47.75Y87.25
X48.4Y43.2
X48.6Y71.2
X48.6Y70.4
X48.75Y92.25
X48.75Y90.0
X48.75Y89.25
X49.0Y98.0
X49.0Y48.2
X49.0Y47.4
X49.4Y71.2
X49.4Y70.4
X49.5Y90.0
X49.5Y89.25
X49.8Y48.2
X49.8Y47.4
X50.2Y71.2
X50.2Y70.4
X50.6Y48.2
X50.6Y47.4
X50.654Y89.867
X50.904Y91.867
X51.154Y100.617
X51.454Y89.517
X52.25Y102.0
X52.4Y55.0
X52.4Y54.2
X52.75Y101.5
X52.75Y93.25
X52.75Y92.5
X53.2Y83.8
X53.2Y83.0
X53.2Y82.2
X53.2Y81.4
X53.2Y55.0
X53.2Y54.2
X53.25Y101.0
X53.5Y93.25
X53.5Y92.5
X53.6Y11.8
X53.6Y11.0
X53.6Y8.4
X54.2Y34.4
X54.2Y33.6
X54.2Y32.8
X54.4Y11.8
X54.4Y11.0
X54.4Y8.4
X55.153Y57.617
X55.2Y93.2
X55.2Y92.4
X55.2Y8.4
X55.5Y87.25
X55.591Y68.159
X55.591Y44.841
X55.591Y44.091
X55.6Y55.2
X56.0Y52.2
X56.0Y8.4
X56.4Y55.2
X56.6Y83.8
X56.6Y83.0
X56.6Y82.2
X56.6Y81.4
X56.653Y63.367
X56.653Y62.367
X56.75Y48.25
X56.75Y47.5
X56.8Y11.8
X56.8Y11.0
X56.8Y8.4
X56.903Y53.367
X57.0Y34.4
X57.0Y33.6
X57.0Y32.8
X57.6Y11.8
X57.6Y11.0
X57.6Y8.4
X58.2Y88.4
X58.903Y63.367
X58.903Y62.367
X58.903Y57.617
X58.903Y53.367
X59.0Y88.4
X59.8Y88.4
X59.8Y87.6
X61.0Y51.0
X61.0Y50.2
X61.4Y56.4
X61.4Y55.6
X61.4Y54.8
X61.8Y51.0
X61.8Y50.2
X62.2Y56.4
X62.2Y55.6
X62.2Y54.8
X63.0Y89.2
X63.0Y88.4
X63.403Y50.867
X63.461Y58.217
X63.75Y62.0
X63.8Y89.2
X63.8Y88.4
X63.8Y66.0
X63.81Y64.31
X64.153Y58.617
X64.153Y51.367
X64.6Y89.2
X64.6Y88.4
X65.5Y71.5
X65.5Y70.75
X65.75Y59.5
X66.25Y71.5
X66.25Y70.75
X66.6Y43.4
X66.75Y60.25
X66.75Y47.75
X67.0Y71.5
X67.0Y69.0
X67.2Y43.0
X67.6Y67.4
X67.6Y66.6
X67.75Y47.75
X67.8Y42.6
X68.4Y67.4
X68.4Y66.6
X68.75Y57.5
X68.75Y56.75
X69.153Y53.367
X69.153Y50.617
X69.75Y70.25
X69.903Y50.117
X70.0Y14.0
X70.0Y13.25
X70.0Y12.5
X70.4Y19.4
X70.4Y18.6
X70.403Y60.367
X70.5Y70.25
X70.653Y64.867
X70.653Y63.867
X70.653Y62.867
X70.653Y53.367
X70.653Y50.617
X70.75Y14.0
X70.75Y13.25
X70.75Y12.5
X71.0Y87.5
X71.153Y59.617
X71.403Y50.117
X71.75Y64.75
X71.75Y30.75
X71.75Y14.0
X71.75Y13.25
X71.75Y12.5
X71.8Y91.6
X72.0Y60.0
X72.153Y55.117
X72.153Y54.117
X72.4Y45.2
X72.6Y91.6
X72.6Y90.6
X72.75Y56.25
X73.2Y45.2
X73.254Y71.25
X73.4Y91.6
X73.5Y14.0
X73.5Y13.25
X73.5Y12.5
X73.6Y19.4
X73.6Y18.6
X73.8Y51.4
X74.0Y45.2
X74.25Y63.25
X74.25Y14.0
X74.25Y13.25
X74.25Y12.5
X74.5Y65.0
X74.75Y89.25
X74.8Y45.2
X74.903Y68.367
X75.0Y71.0
X75.2Y53.2
X75.2Y52.4
X75.25Y64.25
X75.25Y56.5
X75.403Y69.117
X76.0Y53.2
X76.0Y52.4
X76.403Y67.617
X77.403Y66.867
X77.5Y52.0
X78.403Y66.117
X79.2Y52.2
X79.2Y51.4
X80.0Y51.4
X80.75Y53.75
X80.75Y52.75
X81.0Y56.0
X81.0Y54.75
X81.4Y60.0
X81.5Y70.25
X84.75Y70.0
X85.5Y70.0
X86.153Y68.367
X86.653Y69.117
X86.653Y67.617
X87.153Y66.867
X89.0Y64.25
X89.0Y63.4
X89.0Y61.6
X89.0Y60.75
X90.0Y27.8
X90.0Y27.0
X90.403Y66.117
X90.8Y27.8
X90.8Y27.0
X91.4Y79.4
X91.4Y78.6
X91.6Y88.0
X91.6Y87.2
X92.0Y71.6
X92.0Y70.8
X92.2Y79.4
X92.2Y78.6
X92.4Y88.0
X92.4Y87.2
X92.8Y71.6
X92.8Y70.8
X93.0Y79.4
X93.0Y78.6
X93.2Y88.0
X93.2Y87.2
X93.6Y71.6
X93.6Y70.8
X93.8Y79.4
X93.8Y78.6
X94.0Y65.4
X94.4Y95.0
X94.95Y65.0
X95.2Y95.0
X95.75Y65.0
X96.0Y95.0
X96.403Y66.867
X96.403Y66.067
X96.8Y71.0
X96.8Y57.6
X97.6Y71.0
X98.0Y9.75
X98.75Y67.75
X98.75Y9.75
X99.5Y67.75
X99.5Y9.75
X99.8Y78.8
X100.0Y46.75
X100.0Y46.0
X100.25Y67.75
X100.25Y52.75
X100.25Y52.0
X100.5Y63.25
X100.5Y61.5
X100.6Y78.8
X100.75Y46.75
X100.75Y46.0
X101.0Y52.75
X101.0Y52.0
X101.403Y56.867
X101.403Y54.867
X101.5Y78.75
X101.75Y97.75
X101.75Y97.0
X101.75Y87.5
X102.0Y106.5
X102.903Y57.867
X103.403Y58.617
X103.75Y73.25
X103.8Y44.8
X103.8Y44.0
X104.0Y68.8
X104.0Y68.0
X104.25Y64.0
X104.6Y44.8
X104.6Y44.0
X105.25Y51.5
X105.25Y50.75
X105.403Y55.367
X105.521Y53.598
X105.6Y27.8
X105.6Y27.0
X105.653Y56.367
X105.75Y80.5
X106.0Y90.5
X106.0Y89.75
X106.2Y81.2
X106.25Y100.0
X106.4Y27.8
X106.4Y27.0
X107.0Y100.0
X107.0Y89.05
X107.0Y88.25
X107.0Y81.2
X107.75Y73.25
X107.75Y72.5
X108.0Y69.0
X108.8Y69.0
X109.6Y69.0
X112.25Y56.25
X112.75Y51.25
X113.25Y44.75
X114.11Y74.41
X114.25Y101.25
X114.36Y82.96
X114.37Y92.17
X114.8Y61.6
X116.25Y45.0
X116.25Y44.25
X117.0Y45.0
X117.0Y44.25
X117.2Y12.0
X117.2Y11.2
X117.8Y57.6
X117.8Y56.8
X118.0Y12.0
X118.0Y11.2
X118.5Y51.25
X118.5Y50.5
X118.6Y57.6
X118.6Y56.8
X118.8Y12.0
X118.8Y11.2
X119.4Y57.6
X119.4Y56.8
X119.6Y12.0
X119.6Y11.2
X120.5Y103.0
X120.5Y99.5
X120.5Y72.5
X120.6Y76.4
X120.75Y94.0
X120.75Y90.25
X120.8Y84.7
X120.9Y81.0
X123.2Y74.3
X123.25Y101.25
X123.5Y92.0
X123.5Y82.8
X126.4Y12.2
X126.4Y11.4
X126.4Y10.6
X127.2Y12.2
X127.2Y11.4
X127.2Y10.6
X127.6Y50.0
X127.6Y49.2
X128.4Y50.0
X128.4Y49.2
X130.0Y56.25
X130.0Y55.5
X130.0Y52.75
X131.5Y22.25
X131.5Y21.5
X131.6Y83.0
X131.6Y82.2
X131.6Y81.4
X131.75Y55.75
X132.25Y21.5
X132.4Y83.0
X132.4Y82.2
X132.4Y81.4
X132.5Y89.5
X132.5Y86.25
X132.6Y73.0
X133.25Y87.25
X133.5Y89.25
X133.75Y54.5
X134.25Y19.0
X134.25Y18.25
X134.25Y17.5
X136.5Y55.75
X136.75Y65.25
X137.25Y85.5
X137.25Y84.75
X137.25Y14.25
X137.25Y13.5
X137.25Y12.75
X137.5Y42.0
X138.0Y85.5
X138.0Y84.75
X138.0Y14.25
X138.0Y13.5
X138.0Y12.75
X139.403Y43.867
X139.403Y37.867
X140.4Y94.6
X140.4Y22.4
X140.4Y21.6
X140.4Y20.8
X140.4Y20.0
X140.5Y66.0
X140.75Y91.25
X140.75Y90.5
X140.75Y89.75
X141.0Y102.75
X141.0Y102.0
X141.0Y101.25
X141.4Y22.4
X141.4Y21.6
X141.4Y20.8
X141.4Y20.0
X141.75Y62.0
X142.0Y39.75
X142.75Y39.75
X143.0Y74.2
X143.5Y39.75
X144.25Y39.75
X145.0Y82.8
X145.0Y76.0
X145.0Y39.75
X145.75Y39.75
X145.8Y76.0
X145.8Y75.2
X147.75Y92.0
X148.451Y96.299
X149.0Y99.0
X149.0Y13.0
X149.0Y12.2
X149.0Y11.4
X149.8Y13.0
X149.8Y12.2
X149.8Y11.4
X150.2Y35.2
X150.2Y34.4
X150.5Y82.75
X151.0Y76.6
X151.0Y35.2
X151.0Y34.4
X151.8Y39.0
X151.8Y35.2
X151.8Y34.4
X152.6Y39.0
X153.4Y39.0
T2
X21.807Y105.234
X24.307Y106.234
T3
X150.653Y31.117
X150.653Y26.117
X150.653Y21.117
X155.754Y29.517
X155.754Y24.517
X155.754Y19.517
T4
X122.403Y30.367
X122.403Y15.617
X124.903Y30.367
X124.903Y15.617
X134.653Y84.117
X136.153Y28.617
X136.153Y21.367
X138.653Y28.617
X138.653Y21.367
X142.273Y84.117
X143.153Y21.367
X145.653Y21.367
T5
X146.17Y101.96
X146.17Y99.67
X146.17Y90.53
X146.17Y88.24
X151.03Y97.65
X151.03Y95.61
X151.03Y93.57
X151.03Y91.53
X152.81Y98.67
X152.81Y96.63
X152.81Y94.59
X152.81Y92.55
T6
X17.767Y102.334
X17.767Y99.794
X17.767Y97.254
X17.767Y94.714
X17.767Y92.174
X17.767Y89.634
X17.767Y87.094
X17.767Y84.554
X17.767Y82.014
X17.767Y79.474
X17.767Y76.934
X17.767Y74.394
X17.767Y71.854
X17.767Y69.314
X17.767Y66.774
X17.767Y64.234
X17.767Y61.694
X17.767Y49.374
X17.767Y46.834
X17.767Y44.294
X17.767Y41.754
X17.767Y39.214
X17.767Y36.674
X17.767Y34.134
X17.767Y31.594
X17.767Y29.054
X17.767Y26.514
X17.767Y23.974
X17.767Y21.434
X17.767Y18.894
X17.767Y16.354
X17.767Y13.814
X17.767Y11.274
X17.767Y8.734
X20.307Y102.334
X20.307Y99.794
X20.307Y97.254
X20.307Y94.714
X20.307Y92.174
X20.307Y89.634
X20.307Y87.094
X20.307Y84.554
X20.307Y82.014
X20.307Y79.474
X20.307Y76.934
X20.307Y74.394
X20.307Y71.854
X20.307Y69.314
X20.307Y66.774
X20.307Y64.234
X20.307Y61.694
X20.307Y49.374
X20.307Y46.834
X20.307Y44.294
X20.307Y41.754
X20.307Y39.214
X20.307Y36.674
X20.307Y34.134
X20.307Y31.594
X20.307Y29.054
X20.307Y26.514
X20.307Y23.974
X20.307Y21.434
X20.307Y18.894
X20.307Y16.354
X20.307Y13.814
X20.307Y11.274
X20.307Y8.734
X71.653Y40.407
X71.653Y37.867
X74.194Y40.407
X74.194Y37.867
X76.733Y40.407
X76.733Y37.867
X92.403Y16.117
X93.788Y18.957
X95.173Y16.117
X96.558Y18.957
X97.944Y16.117
X99.328Y18.957
X100.713Y16.117
X102.099Y18.957
X103.483Y16.117
X107.403Y55.367
X107.403Y52.827
X107.403Y50.287
X107.403Y47.747
X107.403Y45.207
X109.944Y55.367
X109.944Y52.827
X109.944Y50.287
X109.944Y47.747
X109.944Y45.207
X128.11Y75.82
X128.11Y73.28
X128.25Y102.79
X128.25Y100.25
X128.36Y84.36
X128.36Y81.82
X128.37Y93.57
X128.37Y91.03
X135.903Y80.117
X135.903Y75.037
X135.903Y72.497
X135.903Y69.957
X140.983Y80.117
X140.983Y75.037
X140.983Y72.497
X140.983Y69.957
T7
X149.653Y44.117
X149.653Y37.117
X154.653Y47.617
X154.653Y40.617
T8
X134.863Y11.117
X137.403Y11.117
X139.944Y11.117
T9
X153.903Y73.117
X153.903Y69.617
X153.903Y64.367
X153.903Y60.867
T10
X151.92Y103.35
X151.92Y86.85
T11
X155.35Y101.45
X155.35Y88.75
T12
X4.0Y103.0
X4.0Y8.0
X64.0Y103.0
X154.0Y8.0
T0
M30
