%TF.GenerationSoftware,KiCad,Pcbnew,(5.1.9)-1*%
%TF.CreationDate,2021-04-04T23:22:27+02:00*%
%TF.ProjectId,AR2ISS_AntCTL_HW,41523249-5353-45f4-916e-7443544c5f48,rev?*%
%TF.SameCoordinates,PX2625a00PY8f0d180*%
%TF.FileFunction,Soldermask,Top*%
%TF.FilePolarity,Negative*%
%FSLAX46Y46*%
G04 Gerber Fmt 4.6, Leading zero omitted, Abs format (unit mm)*
G04 Created by KiCad (PCBNEW (5.1.9)-1) date 2021-04-04 23:22:27*
%MOMM*%
%LPD*%
G01*
G04 APERTURE LIST*
%ADD10R,0.900000X0.800000*%
%ADD11R,1.600000X1.600000*%
%ADD12O,1.600000X1.600000*%
%ADD13C,1.270000*%
%ADD14C,1.500000*%
%ADD15C,1.700000*%
%ADD16C,1.300000*%
%ADD17C,1.900000*%
%ADD18C,3.100000*%
%ADD19R,1.700000X1.700000*%
%ADD20O,1.700000X1.700000*%
%ADD21C,1.600000*%
%ADD22C,0.100000*%
%ADD23C,2.000000*%
%ADD24R,2.000000X2.000000*%
%ADD25R,1.905000X2.000000*%
%ADD26O,1.905000X2.000000*%
%ADD27R,2.000000X3.800000*%
%ADD28R,2.000000X1.500000*%
%ADD29R,1.560000X0.650000*%
%ADD30R,1.100000X0.400000*%
%ADD31C,4.500000*%
%ADD32R,3.500000X2.400000*%
G04 APERTURE END LIST*
%TO.C,C1*%
G36*
G01*
X93610001Y132434999D02*
X93610001Y132934999D01*
G75*
G02*
X93835001Y133159999I225000J0D01*
G01*
X94285001Y133159999D01*
G75*
G02*
X94510001Y132934999I0J-225000D01*
G01*
X94510001Y132434999D01*
G75*
G02*
X94285001Y132209999I-225000J0D01*
G01*
X93835001Y132209999D01*
G75*
G02*
X93610001Y132434999I0J225000D01*
G01*
G37*
G36*
G01*
X92060001Y132434999D02*
X92060001Y132934999D01*
G75*
G02*
X92285001Y133159999I225000J0D01*
G01*
X92735001Y133159999D01*
G75*
G02*
X92960001Y132934999I0J-225000D01*
G01*
X92960001Y132434999D01*
G75*
G02*
X92735001Y132209999I-225000J0D01*
G01*
X92285001Y132209999D01*
G75*
G02*
X92060001Y132434999I0J225000D01*
G01*
G37*
%TD*%
%TO.C,C2*%
G36*
G01*
X100080001Y132434999D02*
X100080001Y132934999D01*
G75*
G02*
X100305001Y133159999I225000J0D01*
G01*
X100755001Y133159999D01*
G75*
G02*
X100980001Y132934999I0J-225000D01*
G01*
X100980001Y132434999D01*
G75*
G02*
X100755001Y132209999I-225000J0D01*
G01*
X100305001Y132209999D01*
G75*
G02*
X100080001Y132434999I0J225000D01*
G01*
G37*
G36*
G01*
X101630001Y132434999D02*
X101630001Y132934999D01*
G75*
G02*
X101855001Y133159999I225000J0D01*
G01*
X102305001Y133159999D01*
G75*
G02*
X102530001Y132934999I0J-225000D01*
G01*
X102530001Y132434999D01*
G75*
G02*
X102305001Y132209999I-225000J0D01*
G01*
X101855001Y132209999D01*
G75*
G02*
X101630001Y132434999I0J225000D01*
G01*
G37*
%TD*%
%TO.C,C3*%
G36*
G01*
X100710001Y141594999D02*
X100710001Y142094999D01*
G75*
G02*
X100935001Y142319999I225000J0D01*
G01*
X101385001Y142319999D01*
G75*
G02*
X101610001Y142094999I0J-225000D01*
G01*
X101610001Y141594999D01*
G75*
G02*
X101385001Y141369999I-225000J0D01*
G01*
X100935001Y141369999D01*
G75*
G02*
X100710001Y141594999I0J225000D01*
G01*
G37*
G36*
G01*
X102260001Y141594999D02*
X102260001Y142094999D01*
G75*
G02*
X102485001Y142319999I225000J0D01*
G01*
X102935001Y142319999D01*
G75*
G02*
X103160001Y142094999I0J-225000D01*
G01*
X103160001Y141594999D01*
G75*
G02*
X102935001Y141369999I-225000J0D01*
G01*
X102485001Y141369999D01*
G75*
G02*
X102260001Y141594999I0J225000D01*
G01*
G37*
%TD*%
%TO.C,C4*%
G36*
G01*
X75960001Y133294999D02*
X75960001Y133794999D01*
G75*
G02*
X76185001Y134019999I225000J0D01*
G01*
X76635001Y134019999D01*
G75*
G02*
X76860001Y133794999I0J-225000D01*
G01*
X76860001Y133294999D01*
G75*
G02*
X76635001Y133069999I-225000J0D01*
G01*
X76185001Y133069999D01*
G75*
G02*
X75960001Y133294999I0J225000D01*
G01*
G37*
G36*
G01*
X77510001Y133294999D02*
X77510001Y133794999D01*
G75*
G02*
X77735001Y134019999I225000J0D01*
G01*
X78185001Y134019999D01*
G75*
G02*
X78410001Y133794999I0J-225000D01*
G01*
X78410001Y133294999D01*
G75*
G02*
X78185001Y133069999I-225000J0D01*
G01*
X77735001Y133069999D01*
G75*
G02*
X77510001Y133294999I0J225000D01*
G01*
G37*
%TD*%
%TO.C,C5*%
G36*
G01*
X92250001Y137454999D02*
X92250001Y137954999D01*
G75*
G02*
X92475001Y138179999I225000J0D01*
G01*
X92925001Y138179999D01*
G75*
G02*
X93150001Y137954999I0J-225000D01*
G01*
X93150001Y137454999D01*
G75*
G02*
X92925001Y137229999I-225000J0D01*
G01*
X92475001Y137229999D01*
G75*
G02*
X92250001Y137454999I0J225000D01*
G01*
G37*
G36*
G01*
X93800001Y137454999D02*
X93800001Y137954999D01*
G75*
G02*
X94025001Y138179999I225000J0D01*
G01*
X94475001Y138179999D01*
G75*
G02*
X94700001Y137954999I0J-225000D01*
G01*
X94700001Y137454999D01*
G75*
G02*
X94475001Y137229999I-225000J0D01*
G01*
X94025001Y137229999D01*
G75*
G02*
X93800001Y137454999I0J225000D01*
G01*
G37*
%TD*%
%TO.C,C6*%
G36*
G01*
X98250001Y141594999D02*
X98250001Y142094999D01*
G75*
G02*
X98475001Y142319999I225000J0D01*
G01*
X98925001Y142319999D01*
G75*
G02*
X99150001Y142094999I0J-225000D01*
G01*
X99150001Y141594999D01*
G75*
G02*
X98925001Y141369999I-225000J0D01*
G01*
X98475001Y141369999D01*
G75*
G02*
X98250001Y141594999I0J225000D01*
G01*
G37*
G36*
G01*
X96700001Y141594999D02*
X96700001Y142094999D01*
G75*
G02*
X96925001Y142319999I225000J0D01*
G01*
X97375001Y142319999D01*
G75*
G02*
X97600001Y142094999I0J-225000D01*
G01*
X97600001Y141594999D01*
G75*
G02*
X97375001Y141369999I-225000J0D01*
G01*
X96925001Y141369999D01*
G75*
G02*
X96700001Y141594999I0J225000D01*
G01*
G37*
%TD*%
%TO.C,C7*%
G36*
G01*
X71950001Y133294999D02*
X71950001Y133794999D01*
G75*
G02*
X72175001Y134019999I225000J0D01*
G01*
X72625001Y134019999D01*
G75*
G02*
X72850001Y133794999I0J-225000D01*
G01*
X72850001Y133294999D01*
G75*
G02*
X72625001Y133069999I-225000J0D01*
G01*
X72175001Y133069999D01*
G75*
G02*
X71950001Y133294999I0J225000D01*
G01*
G37*
G36*
G01*
X73500001Y133294999D02*
X73500001Y133794999D01*
G75*
G02*
X73725001Y134019999I225000J0D01*
G01*
X74175001Y134019999D01*
G75*
G02*
X74400001Y133794999I0J-225000D01*
G01*
X74400001Y133294999D01*
G75*
G02*
X74175001Y133069999I-225000J0D01*
G01*
X73725001Y133069999D01*
G75*
G02*
X73500001Y133294999I0J225000D01*
G01*
G37*
%TD*%
%TO.C,C8*%
G36*
G01*
X102260001Y144104999D02*
X102260001Y144604999D01*
G75*
G02*
X102485001Y144829999I225000J0D01*
G01*
X102935001Y144829999D01*
G75*
G02*
X103160001Y144604999I0J-225000D01*
G01*
X103160001Y144104999D01*
G75*
G02*
X102935001Y143879999I-225000J0D01*
G01*
X102485001Y143879999D01*
G75*
G02*
X102260001Y144104999I0J225000D01*
G01*
G37*
G36*
G01*
X100710001Y144104999D02*
X100710001Y144604999D01*
G75*
G02*
X100935001Y144829999I225000J0D01*
G01*
X101385001Y144829999D01*
G75*
G02*
X101610001Y144604999I0J-225000D01*
G01*
X101610001Y144104999D01*
G75*
G02*
X101385001Y143879999I-225000J0D01*
G01*
X100935001Y143879999D01*
G75*
G02*
X100710001Y144104999I0J225000D01*
G01*
G37*
%TD*%
%TO.C,C9*%
G36*
G01*
X98250001Y144104999D02*
X98250001Y144604999D01*
G75*
G02*
X98475001Y144829999I225000J0D01*
G01*
X98925001Y144829999D01*
G75*
G02*
X99150001Y144604999I0J-225000D01*
G01*
X99150001Y144104999D01*
G75*
G02*
X98925001Y143879999I-225000J0D01*
G01*
X98475001Y143879999D01*
G75*
G02*
X98250001Y144104999I0J225000D01*
G01*
G37*
G36*
G01*
X96700001Y144104999D02*
X96700001Y144604999D01*
G75*
G02*
X96925001Y144829999I225000J0D01*
G01*
X97375001Y144829999D01*
G75*
G02*
X97600001Y144604999I0J-225000D01*
G01*
X97600001Y144104999D01*
G75*
G02*
X97375001Y143879999I-225000J0D01*
G01*
X96925001Y143879999D01*
G75*
G02*
X96700001Y144104999I0J225000D01*
G01*
G37*
%TD*%
%TO.C,C10*%
G36*
G01*
X104450001Y147804999D02*
X104450001Y148304999D01*
G75*
G02*
X104675001Y148529999I225000J0D01*
G01*
X105125001Y148529999D01*
G75*
G02*
X105350001Y148304999I0J-225000D01*
G01*
X105350001Y147804999D01*
G75*
G02*
X105125001Y147579999I-225000J0D01*
G01*
X104675001Y147579999D01*
G75*
G02*
X104450001Y147804999I0J225000D01*
G01*
G37*
G36*
G01*
X102900001Y147804999D02*
X102900001Y148304999D01*
G75*
G02*
X103125001Y148529999I225000J0D01*
G01*
X103575001Y148529999D01*
G75*
G02*
X103800001Y148304999I0J-225000D01*
G01*
X103800001Y147804999D01*
G75*
G02*
X103575001Y147579999I-225000J0D01*
G01*
X103125001Y147579999D01*
G75*
G02*
X102900001Y147804999I0J225000D01*
G01*
G37*
%TD*%
%TO.C,C11*%
G36*
G01*
X108900001Y152354999D02*
X108900001Y152854999D01*
G75*
G02*
X109125001Y153079999I225000J0D01*
G01*
X109575001Y153079999D01*
G75*
G02*
X109800001Y152854999I0J-225000D01*
G01*
X109800001Y152354999D01*
G75*
G02*
X109575001Y152129999I-225000J0D01*
G01*
X109125001Y152129999D01*
G75*
G02*
X108900001Y152354999I0J225000D01*
G01*
G37*
G36*
G01*
X107350001Y152354999D02*
X107350001Y152854999D01*
G75*
G02*
X107575001Y153079999I225000J0D01*
G01*
X108025001Y153079999D01*
G75*
G02*
X108250001Y152854999I0J-225000D01*
G01*
X108250001Y152354999D01*
G75*
G02*
X108025001Y152129999I-225000J0D01*
G01*
X107575001Y152129999D01*
G75*
G02*
X107350001Y152354999I0J225000D01*
G01*
G37*
%TD*%
%TO.C,C12*%
G36*
G01*
X107350001Y149844999D02*
X107350001Y150344999D01*
G75*
G02*
X107575001Y150569999I225000J0D01*
G01*
X108025001Y150569999D01*
G75*
G02*
X108250001Y150344999I0J-225000D01*
G01*
X108250001Y149844999D01*
G75*
G02*
X108025001Y149619999I-225000J0D01*
G01*
X107575001Y149619999D01*
G75*
G02*
X107350001Y149844999I0J225000D01*
G01*
G37*
G36*
G01*
X108900001Y149844999D02*
X108900001Y150344999D01*
G75*
G02*
X109125001Y150569999I225000J0D01*
G01*
X109575001Y150569999D01*
G75*
G02*
X109800001Y150344999I0J-225000D01*
G01*
X109800001Y149844999D01*
G75*
G02*
X109575001Y149619999I-225000J0D01*
G01*
X109125001Y149619999D01*
G75*
G02*
X108900001Y149844999I0J225000D01*
G01*
G37*
%TD*%
%TO.C,C13*%
G36*
G01*
X96260001Y137454999D02*
X96260001Y137954999D01*
G75*
G02*
X96485001Y138179999I225000J0D01*
G01*
X96935001Y138179999D01*
G75*
G02*
X97160001Y137954999I0J-225000D01*
G01*
X97160001Y137454999D01*
G75*
G02*
X96935001Y137229999I-225000J0D01*
G01*
X96485001Y137229999D01*
G75*
G02*
X96260001Y137454999I0J225000D01*
G01*
G37*
G36*
G01*
X97810001Y137454999D02*
X97810001Y137954999D01*
G75*
G02*
X98035001Y138179999I225000J0D01*
G01*
X98485001Y138179999D01*
G75*
G02*
X98710001Y137954999I0J-225000D01*
G01*
X98710001Y137454999D01*
G75*
G02*
X98485001Y137229999I-225000J0D01*
G01*
X98035001Y137229999D01*
G75*
G02*
X97810001Y137454999I0J225000D01*
G01*
G37*
%TD*%
%TO.C,C14*%
G36*
G01*
X133520001Y180204999D02*
X133520001Y180704999D01*
G75*
G02*
X133745001Y180929999I225000J0D01*
G01*
X134195001Y180929999D01*
G75*
G02*
X134420001Y180704999I0J-225000D01*
G01*
X134420001Y180204999D01*
G75*
G02*
X134195001Y179979999I-225000J0D01*
G01*
X133745001Y179979999D01*
G75*
G02*
X133520001Y180204999I0J225000D01*
G01*
G37*
G36*
G01*
X135070001Y180204999D02*
X135070001Y180704999D01*
G75*
G02*
X135295001Y180929999I225000J0D01*
G01*
X135745001Y180929999D01*
G75*
G02*
X135970001Y180704999I0J-225000D01*
G01*
X135970001Y180204999D01*
G75*
G02*
X135745001Y179979999I-225000J0D01*
G01*
X135295001Y179979999D01*
G75*
G02*
X135070001Y180204999I0J225000D01*
G01*
G37*
%TD*%
%TO.C,C15*%
G36*
G01*
X56250001Y198954999D02*
X56250001Y199454999D01*
G75*
G02*
X56475001Y199679999I225000J0D01*
G01*
X56925001Y199679999D01*
G75*
G02*
X57150001Y199454999I0J-225000D01*
G01*
X57150001Y198954999D01*
G75*
G02*
X56925001Y198729999I-225000J0D01*
G01*
X56475001Y198729999D01*
G75*
G02*
X56250001Y198954999I0J225000D01*
G01*
G37*
G36*
G01*
X54700001Y198954999D02*
X54700001Y199454999D01*
G75*
G02*
X54925001Y199679999I225000J0D01*
G01*
X55375001Y199679999D01*
G75*
G02*
X55600001Y199454999I0J-225000D01*
G01*
X55600001Y198954999D01*
G75*
G02*
X55375001Y198729999I-225000J0D01*
G01*
X54925001Y198729999D01*
G75*
G02*
X54700001Y198954999I0J225000D01*
G01*
G37*
%TD*%
%TO.C,C16*%
G36*
G01*
X50690001Y198954999D02*
X50690001Y199454999D01*
G75*
G02*
X50915001Y199679999I225000J0D01*
G01*
X51365001Y199679999D01*
G75*
G02*
X51590001Y199454999I0J-225000D01*
G01*
X51590001Y198954999D01*
G75*
G02*
X51365001Y198729999I-225000J0D01*
G01*
X50915001Y198729999D01*
G75*
G02*
X50690001Y198954999I0J225000D01*
G01*
G37*
G36*
G01*
X52240001Y198954999D02*
X52240001Y199454999D01*
G75*
G02*
X52465001Y199679999I225000J0D01*
G01*
X52915001Y199679999D01*
G75*
G02*
X53140001Y199454999I0J-225000D01*
G01*
X53140001Y198954999D01*
G75*
G02*
X52915001Y198729999I-225000J0D01*
G01*
X52465001Y198729999D01*
G75*
G02*
X52240001Y198954999I0J225000D01*
G01*
G37*
%TD*%
%TO.C,C17*%
G36*
G01*
X62720001Y201464999D02*
X62720001Y201964999D01*
G75*
G02*
X62945001Y202189999I225000J0D01*
G01*
X63395001Y202189999D01*
G75*
G02*
X63620001Y201964999I0J-225000D01*
G01*
X63620001Y201464999D01*
G75*
G02*
X63395001Y201239999I-225000J0D01*
G01*
X62945001Y201239999D01*
G75*
G02*
X62720001Y201464999I0J225000D01*
G01*
G37*
G36*
G01*
X64270001Y201464999D02*
X64270001Y201964999D01*
G75*
G02*
X64495001Y202189999I225000J0D01*
G01*
X64945001Y202189999D01*
G75*
G02*
X65170001Y201964999I0J-225000D01*
G01*
X65170001Y201464999D01*
G75*
G02*
X64945001Y201239999I-225000J0D01*
G01*
X64495001Y201239999D01*
G75*
G02*
X64270001Y201464999I0J225000D01*
G01*
G37*
%TD*%
%TO.C,C18*%
G36*
G01*
X152470001Y201464999D02*
X152470001Y201964999D01*
G75*
G02*
X152695001Y202189999I225000J0D01*
G01*
X153145001Y202189999D01*
G75*
G02*
X153370001Y201964999I0J-225000D01*
G01*
X153370001Y201464999D01*
G75*
G02*
X153145001Y201239999I-225000J0D01*
G01*
X152695001Y201239999D01*
G75*
G02*
X152470001Y201464999I0J225000D01*
G01*
G37*
G36*
G01*
X154020001Y201464999D02*
X154020001Y201964999D01*
G75*
G02*
X154245001Y202189999I225000J0D01*
G01*
X154695001Y202189999D01*
G75*
G02*
X154920001Y201964999I0J-225000D01*
G01*
X154920001Y201464999D01*
G75*
G02*
X154695001Y201239999I-225000J0D01*
G01*
X154245001Y201239999D01*
G75*
G02*
X154020001Y201464999I0J225000D01*
G01*
G37*
%TD*%
%TO.C,C19*%
G36*
G01*
X135050001Y189664999D02*
X135050001Y190164999D01*
G75*
G02*
X135275001Y190389999I225000J0D01*
G01*
X135725001Y190389999D01*
G75*
G02*
X135950001Y190164999I0J-225000D01*
G01*
X135950001Y189664999D01*
G75*
G02*
X135725001Y189439999I-225000J0D01*
G01*
X135275001Y189439999D01*
G75*
G02*
X135050001Y189664999I0J225000D01*
G01*
G37*
G36*
G01*
X133500001Y189664999D02*
X133500001Y190164999D01*
G75*
G02*
X133725001Y190389999I225000J0D01*
G01*
X134175001Y190389999D01*
G75*
G02*
X134400001Y190164999I0J-225000D01*
G01*
X134400001Y189664999D01*
G75*
G02*
X134175001Y189439999I-225000J0D01*
G01*
X133725001Y189439999D01*
G75*
G02*
X133500001Y189664999I0J225000D01*
G01*
G37*
%TD*%
%TO.C,C20*%
G36*
G01*
X143070001Y191074999D02*
X143070001Y191574999D01*
G75*
G02*
X143295001Y191799999I225000J0D01*
G01*
X143745001Y191799999D01*
G75*
G02*
X143970001Y191574999I0J-225000D01*
G01*
X143970001Y191074999D01*
G75*
G02*
X143745001Y190849999I-225000J0D01*
G01*
X143295001Y190849999D01*
G75*
G02*
X143070001Y191074999I0J225000D01*
G01*
G37*
G36*
G01*
X141520001Y191074999D02*
X141520001Y191574999D01*
G75*
G02*
X141745001Y191799999I225000J0D01*
G01*
X142195001Y191799999D01*
G75*
G02*
X142420001Y191574999I0J-225000D01*
G01*
X142420001Y191074999D01*
G75*
G02*
X142195001Y190849999I-225000J0D01*
G01*
X141745001Y190849999D01*
G75*
G02*
X141520001Y191074999I0J225000D01*
G01*
G37*
%TD*%
%TO.C,C21*%
G36*
G01*
X137510001Y188564999D02*
X137510001Y189064999D01*
G75*
G02*
X137735001Y189289999I225000J0D01*
G01*
X138185001Y189289999D01*
G75*
G02*
X138410001Y189064999I0J-225000D01*
G01*
X138410001Y188564999D01*
G75*
G02*
X138185001Y188339999I-225000J0D01*
G01*
X137735001Y188339999D01*
G75*
G02*
X137510001Y188564999I0J225000D01*
G01*
G37*
G36*
G01*
X139060001Y188564999D02*
X139060001Y189064999D01*
G75*
G02*
X139285001Y189289999I225000J0D01*
G01*
X139735001Y189289999D01*
G75*
G02*
X139960001Y189064999I0J-225000D01*
G01*
X139960001Y188564999D01*
G75*
G02*
X139735001Y188339999I-225000J0D01*
G01*
X139285001Y188339999D01*
G75*
G02*
X139060001Y188564999I0J225000D01*
G01*
G37*
%TD*%
%TO.C,C22*%
G36*
G01*
X154020001Y203974999D02*
X154020001Y204474999D01*
G75*
G02*
X154245001Y204699999I225000J0D01*
G01*
X154695001Y204699999D01*
G75*
G02*
X154920001Y204474999I0J-225000D01*
G01*
X154920001Y203974999D01*
G75*
G02*
X154695001Y203749999I-225000J0D01*
G01*
X154245001Y203749999D01*
G75*
G02*
X154020001Y203974999I0J225000D01*
G01*
G37*
G36*
G01*
X152470001Y203974999D02*
X152470001Y204474999D01*
G75*
G02*
X152695001Y204699999I225000J0D01*
G01*
X153145001Y204699999D01*
G75*
G02*
X153370001Y204474999I0J-225000D01*
G01*
X153370001Y203974999D01*
G75*
G02*
X153145001Y203749999I-225000J0D01*
G01*
X152695001Y203749999D01*
G75*
G02*
X152470001Y203974999I0J225000D01*
G01*
G37*
%TD*%
%TO.C,C23*%
G36*
G01*
X173890001Y203974999D02*
X173890001Y204474999D01*
G75*
G02*
X174115001Y204699999I225000J0D01*
G01*
X174565001Y204699999D01*
G75*
G02*
X174790001Y204474999I0J-225000D01*
G01*
X174790001Y203974999D01*
G75*
G02*
X174565001Y203749999I-225000J0D01*
G01*
X174115001Y203749999D01*
G75*
G02*
X173890001Y203974999I0J225000D01*
G01*
G37*
G36*
G01*
X175440001Y203974999D02*
X175440001Y204474999D01*
G75*
G02*
X175665001Y204699999I225000J0D01*
G01*
X176115001Y204699999D01*
G75*
G02*
X176340001Y204474999I0J-225000D01*
G01*
X176340001Y203974999D01*
G75*
G02*
X176115001Y203749999I-225000J0D01*
G01*
X175665001Y203749999D01*
G75*
G02*
X175440001Y203974999I0J225000D01*
G01*
G37*
%TD*%
%TO.C,C24*%
G36*
G01*
X95280001Y118274999D02*
X95280001Y118774999D01*
G75*
G02*
X95505001Y118999999I225000J0D01*
G01*
X95955001Y118999999D01*
G75*
G02*
X96180001Y118774999I0J-225000D01*
G01*
X96180001Y118274999D01*
G75*
G02*
X95955001Y118049999I-225000J0D01*
G01*
X95505001Y118049999D01*
G75*
G02*
X95280001Y118274999I0J225000D01*
G01*
G37*
G36*
G01*
X96830001Y118274999D02*
X96830001Y118774999D01*
G75*
G02*
X97055001Y118999999I225000J0D01*
G01*
X97505001Y118999999D01*
G75*
G02*
X97730001Y118774999I0J-225000D01*
G01*
X97730001Y118274999D01*
G75*
G02*
X97505001Y118049999I-225000J0D01*
G01*
X97055001Y118049999D01*
G75*
G02*
X96830001Y118274999I0J225000D01*
G01*
G37*
%TD*%
%TO.C,C25*%
G36*
G01*
X95730001Y112984999D02*
X95730001Y113484999D01*
G75*
G02*
X95955001Y113709999I225000J0D01*
G01*
X96405001Y113709999D01*
G75*
G02*
X96630001Y113484999I0J-225000D01*
G01*
X96630001Y112984999D01*
G75*
G02*
X96405001Y112759999I-225000J0D01*
G01*
X95955001Y112759999D01*
G75*
G02*
X95730001Y112984999I0J225000D01*
G01*
G37*
G36*
G01*
X94180001Y112984999D02*
X94180001Y113484999D01*
G75*
G02*
X94405001Y113709999I225000J0D01*
G01*
X94855001Y113709999D01*
G75*
G02*
X95080001Y113484999I0J-225000D01*
G01*
X95080001Y112984999D01*
G75*
G02*
X94855001Y112759999I-225000J0D01*
G01*
X94405001Y112759999D01*
G75*
G02*
X94180001Y112984999I0J225000D01*
G01*
G37*
%TD*%
%TO.C,C26*%
G36*
G01*
X95730001Y115494999D02*
X95730001Y115994999D01*
G75*
G02*
X95955001Y116219999I225000J0D01*
G01*
X96405001Y116219999D01*
G75*
G02*
X96630001Y115994999I0J-225000D01*
G01*
X96630001Y115494999D01*
G75*
G02*
X96405001Y115269999I-225000J0D01*
G01*
X95955001Y115269999D01*
G75*
G02*
X95730001Y115494999I0J225000D01*
G01*
G37*
G36*
G01*
X94180001Y115494999D02*
X94180001Y115994999D01*
G75*
G02*
X94405001Y116219999I225000J0D01*
G01*
X94855001Y116219999D01*
G75*
G02*
X95080001Y115994999I0J-225000D01*
G01*
X95080001Y115494999D01*
G75*
G02*
X94855001Y115269999I-225000J0D01*
G01*
X94405001Y115269999D01*
G75*
G02*
X94180001Y115494999I0J225000D01*
G01*
G37*
%TD*%
%TO.C,C27*%
G36*
G01*
X83930001Y110644999D02*
X83930001Y111144999D01*
G75*
G02*
X84155001Y111369999I225000J0D01*
G01*
X84605001Y111369999D01*
G75*
G02*
X84830001Y111144999I0J-225000D01*
G01*
X84830001Y110644999D01*
G75*
G02*
X84605001Y110419999I-225000J0D01*
G01*
X84155001Y110419999D01*
G75*
G02*
X83930001Y110644999I0J225000D01*
G01*
G37*
G36*
G01*
X85480001Y110644999D02*
X85480001Y111144999D01*
G75*
G02*
X85705001Y111369999I225000J0D01*
G01*
X86155001Y111369999D01*
G75*
G02*
X86380001Y111144999I0J-225000D01*
G01*
X86380001Y110644999D01*
G75*
G02*
X86155001Y110419999I-225000J0D01*
G01*
X85705001Y110419999D01*
G75*
G02*
X85480001Y110644999I0J225000D01*
G01*
G37*
%TD*%
%TO.C,C28*%
G36*
G01*
X99740001Y115764999D02*
X99740001Y116264999D01*
G75*
G02*
X99965001Y116489999I225000J0D01*
G01*
X100415001Y116489999D01*
G75*
G02*
X100640001Y116264999I0J-225000D01*
G01*
X100640001Y115764999D01*
G75*
G02*
X100415001Y115539999I-225000J0D01*
G01*
X99965001Y115539999D01*
G75*
G02*
X99740001Y115764999I0J225000D01*
G01*
G37*
G36*
G01*
X98190001Y115764999D02*
X98190001Y116264999D01*
G75*
G02*
X98415001Y116489999I225000J0D01*
G01*
X98865001Y116489999D01*
G75*
G02*
X99090001Y116264999I0J-225000D01*
G01*
X99090001Y115764999D01*
G75*
G02*
X98865001Y115539999I-225000J0D01*
G01*
X98415001Y115539999D01*
G75*
G02*
X98190001Y115764999I0J225000D01*
G01*
G37*
%TD*%
%TO.C,C29*%
G36*
G01*
X99290001Y120784999D02*
X99290001Y121284999D01*
G75*
G02*
X99515001Y121509999I225000J0D01*
G01*
X99965001Y121509999D01*
G75*
G02*
X100190001Y121284999I0J-225000D01*
G01*
X100190001Y120784999D01*
G75*
G02*
X99965001Y120559999I-225000J0D01*
G01*
X99515001Y120559999D01*
G75*
G02*
X99290001Y120784999I0J225000D01*
G01*
G37*
G36*
G01*
X100840001Y120784999D02*
X100840001Y121284999D01*
G75*
G02*
X101065001Y121509999I225000J0D01*
G01*
X101515001Y121509999D01*
G75*
G02*
X101740001Y121284999I0J-225000D01*
G01*
X101740001Y120784999D01*
G75*
G02*
X101515001Y120559999I-225000J0D01*
G01*
X101065001Y120559999D01*
G75*
G02*
X100840001Y120784999I0J225000D01*
G01*
G37*
%TD*%
%TO.C,C30*%
G36*
G01*
X96830001Y123294999D02*
X96830001Y123794999D01*
G75*
G02*
X97055001Y124019999I225000J0D01*
G01*
X97505001Y124019999D01*
G75*
G02*
X97730001Y123794999I0J-225000D01*
G01*
X97730001Y123294999D01*
G75*
G02*
X97505001Y123069999I-225000J0D01*
G01*
X97055001Y123069999D01*
G75*
G02*
X96830001Y123294999I0J225000D01*
G01*
G37*
G36*
G01*
X95280001Y123294999D02*
X95280001Y123794999D01*
G75*
G02*
X95505001Y124019999I225000J0D01*
G01*
X95955001Y124019999D01*
G75*
G02*
X96180001Y123794999I0J-225000D01*
G01*
X96180001Y123294999D01*
G75*
G02*
X95955001Y123069999I-225000J0D01*
G01*
X95505001Y123069999D01*
G75*
G02*
X95280001Y123294999I0J225000D01*
G01*
G37*
%TD*%
%TO.C,C31*%
G36*
G01*
X101180001Y126844999D02*
X101180001Y127344999D01*
G75*
G02*
X101405001Y127569999I225000J0D01*
G01*
X101855001Y127569999D01*
G75*
G02*
X102080001Y127344999I0J-225000D01*
G01*
X102080001Y126844999D01*
G75*
G02*
X101855001Y126619999I-225000J0D01*
G01*
X101405001Y126619999D01*
G75*
G02*
X101180001Y126844999I0J225000D01*
G01*
G37*
G36*
G01*
X99630001Y126844999D02*
X99630001Y127344999D01*
G75*
G02*
X99855001Y127569999I225000J0D01*
G01*
X100305001Y127569999D01*
G75*
G02*
X100530001Y127344999I0J-225000D01*
G01*
X100530001Y126844999D01*
G75*
G02*
X100305001Y126619999I-225000J0D01*
G01*
X99855001Y126619999D01*
G75*
G02*
X99630001Y126844999I0J225000D01*
G01*
G37*
%TD*%
%TO.C,C32*%
G36*
G01*
X95280001Y120784999D02*
X95280001Y121284999D01*
G75*
G02*
X95505001Y121509999I225000J0D01*
G01*
X95955001Y121509999D01*
G75*
G02*
X96180001Y121284999I0J-225000D01*
G01*
X96180001Y120784999D01*
G75*
G02*
X95955001Y120559999I-225000J0D01*
G01*
X95505001Y120559999D01*
G75*
G02*
X95280001Y120784999I0J225000D01*
G01*
G37*
G36*
G01*
X96830001Y120784999D02*
X96830001Y121284999D01*
G75*
G02*
X97055001Y121509999I225000J0D01*
G01*
X97505001Y121509999D01*
G75*
G02*
X97730001Y121284999I0J-225000D01*
G01*
X97730001Y120784999D01*
G75*
G02*
X97505001Y120559999I-225000J0D01*
G01*
X97055001Y120559999D01*
G75*
G02*
X96830001Y120784999I0J225000D01*
G01*
G37*
%TD*%
%TO.C,C33*%
G36*
G01*
X87940001Y110644999D02*
X87940001Y111144999D01*
G75*
G02*
X88165001Y111369999I225000J0D01*
G01*
X88615001Y111369999D01*
G75*
G02*
X88840001Y111144999I0J-225000D01*
G01*
X88840001Y110644999D01*
G75*
G02*
X88615001Y110419999I-225000J0D01*
G01*
X88165001Y110419999D01*
G75*
G02*
X87940001Y110644999I0J225000D01*
G01*
G37*
G36*
G01*
X89490001Y110644999D02*
X89490001Y111144999D01*
G75*
G02*
X89715001Y111369999I225000J0D01*
G01*
X90165001Y111369999D01*
G75*
G02*
X90390001Y111144999I0J-225000D01*
G01*
X90390001Y110644999D01*
G75*
G02*
X90165001Y110419999I-225000J0D01*
G01*
X89715001Y110419999D01*
G75*
G02*
X89490001Y110644999I0J225000D01*
G01*
G37*
%TD*%
%TO.C,C34*%
G36*
G01*
X131070001Y147254999D02*
X131070001Y147754999D01*
G75*
G02*
X131295001Y147979999I225000J0D01*
G01*
X131745001Y147979999D01*
G75*
G02*
X131970001Y147754999I0J-225000D01*
G01*
X131970001Y147254999D01*
G75*
G02*
X131745001Y147029999I-225000J0D01*
G01*
X131295001Y147029999D01*
G75*
G02*
X131070001Y147254999I0J225000D01*
G01*
G37*
G36*
G01*
X132620001Y147254999D02*
X132620001Y147754999D01*
G75*
G02*
X132845001Y147979999I225000J0D01*
G01*
X133295001Y147979999D01*
G75*
G02*
X133520001Y147754999I0J-225000D01*
G01*
X133520001Y147254999D01*
G75*
G02*
X133295001Y147029999I-225000J0D01*
G01*
X132845001Y147029999D01*
G75*
G02*
X132620001Y147254999I0J225000D01*
G01*
G37*
%TD*%
%TO.C,C35*%
G36*
G01*
X140620001Y139724999D02*
X140620001Y140224999D01*
G75*
G02*
X140845001Y140449999I225000J0D01*
G01*
X141295001Y140449999D01*
G75*
G02*
X141520001Y140224999I0J-225000D01*
G01*
X141520001Y139724999D01*
G75*
G02*
X141295001Y139499999I-225000J0D01*
G01*
X140845001Y139499999D01*
G75*
G02*
X140620001Y139724999I0J225000D01*
G01*
G37*
G36*
G01*
X139070001Y139724999D02*
X139070001Y140224999D01*
G75*
G02*
X139295001Y140449999I225000J0D01*
G01*
X139745001Y140449999D01*
G75*
G02*
X139970001Y140224999I0J-225000D01*
G01*
X139970001Y139724999D01*
G75*
G02*
X139745001Y139499999I-225000J0D01*
G01*
X139295001Y139499999D01*
G75*
G02*
X139070001Y139724999I0J225000D01*
G01*
G37*
%TD*%
%TO.C,C36*%
G36*
G01*
X143770001Y142234999D02*
X143770001Y142734999D01*
G75*
G02*
X143995001Y142959999I225000J0D01*
G01*
X144445001Y142959999D01*
G75*
G02*
X144670001Y142734999I0J-225000D01*
G01*
X144670001Y142234999D01*
G75*
G02*
X144445001Y142009999I-225000J0D01*
G01*
X143995001Y142009999D01*
G75*
G02*
X143770001Y142234999I0J225000D01*
G01*
G37*
G36*
G01*
X142220001Y142234999D02*
X142220001Y142734999D01*
G75*
G02*
X142445001Y142959999I225000J0D01*
G01*
X142895001Y142959999D01*
G75*
G02*
X143120001Y142734999I0J-225000D01*
G01*
X143120001Y142234999D01*
G75*
G02*
X142895001Y142009999I-225000J0D01*
G01*
X142445001Y142009999D01*
G75*
G02*
X142220001Y142234999I0J225000D01*
G01*
G37*
%TD*%
%TO.C,C37*%
G36*
G01*
X143850001Y144824999D02*
X143850001Y145324999D01*
G75*
G02*
X144075001Y145549999I225000J0D01*
G01*
X144525001Y145549999D01*
G75*
G02*
X144750001Y145324999I0J-225000D01*
G01*
X144750001Y144824999D01*
G75*
G02*
X144525001Y144599999I-225000J0D01*
G01*
X144075001Y144599999D01*
G75*
G02*
X143850001Y144824999I0J225000D01*
G01*
G37*
G36*
G01*
X142300001Y144824999D02*
X142300001Y145324999D01*
G75*
G02*
X142525001Y145549999I225000J0D01*
G01*
X142975001Y145549999D01*
G75*
G02*
X143200001Y145324999I0J-225000D01*
G01*
X143200001Y144824999D01*
G75*
G02*
X142975001Y144599999I-225000J0D01*
G01*
X142525001Y144599999D01*
G75*
G02*
X142300001Y144824999I0J225000D01*
G01*
G37*
%TD*%
%TO.C,C38*%
G36*
G01*
X135060001Y138234999D02*
X135060001Y138734999D01*
G75*
G02*
X135285001Y138959999I225000J0D01*
G01*
X135735001Y138959999D01*
G75*
G02*
X135960001Y138734999I0J-225000D01*
G01*
X135960001Y138234999D01*
G75*
G02*
X135735001Y138009999I-225000J0D01*
G01*
X135285001Y138009999D01*
G75*
G02*
X135060001Y138234999I0J225000D01*
G01*
G37*
G36*
G01*
X136610001Y138234999D02*
X136610001Y138734999D01*
G75*
G02*
X136835001Y138959999I225000J0D01*
G01*
X137285001Y138959999D01*
G75*
G02*
X137510001Y138734999I0J-225000D01*
G01*
X137510001Y138234999D01*
G75*
G02*
X137285001Y138009999I-225000J0D01*
G01*
X136835001Y138009999D01*
G75*
G02*
X136610001Y138234999I0J225000D01*
G01*
G37*
%TD*%
%TO.C,C39*%
G36*
G01*
X132600001Y138154999D02*
X132600001Y138654999D01*
G75*
G02*
X132825001Y138879999I225000J0D01*
G01*
X133275001Y138879999D01*
G75*
G02*
X133500001Y138654999I0J-225000D01*
G01*
X133500001Y138154999D01*
G75*
G02*
X133275001Y137929999I-225000J0D01*
G01*
X132825001Y137929999D01*
G75*
G02*
X132600001Y138154999I0J225000D01*
G01*
G37*
G36*
G01*
X131050001Y138154999D02*
X131050001Y138654999D01*
G75*
G02*
X131275001Y138879999I225000J0D01*
G01*
X131725001Y138879999D01*
G75*
G02*
X131950001Y138654999I0J-225000D01*
G01*
X131950001Y138154999D01*
G75*
G02*
X131725001Y137929999I-225000J0D01*
G01*
X131275001Y137929999D01*
G75*
G02*
X131050001Y138154999I0J225000D01*
G01*
G37*
%TD*%
D10*
%TO.C,D1*%
X90055001Y135884999D03*
X88055001Y134934999D03*
X88055001Y136834999D03*
%TD*%
%TO.C,D2*%
X92695001Y142184999D03*
X92695001Y140284999D03*
X94695001Y141234999D03*
%TD*%
%TO.C,D3*%
G36*
G01*
X127835001Y143208749D02*
X127835001Y143721249D01*
G75*
G02*
X128053751Y143939999I218750J0D01*
G01*
X128491251Y143939999D01*
G75*
G02*
X128710001Y143721249I0J-218750D01*
G01*
X128710001Y143208749D01*
G75*
G02*
X128491251Y142989999I-218750J0D01*
G01*
X128053751Y142989999D01*
G75*
G02*
X127835001Y143208749I0J218750D01*
G01*
G37*
G36*
G01*
X126260001Y143208749D02*
X126260001Y143721249D01*
G75*
G02*
X126478751Y143939999I218750J0D01*
G01*
X126916251Y143939999D01*
G75*
G02*
X127135001Y143721249I0J-218750D01*
G01*
X127135001Y143208749D01*
G75*
G02*
X126916251Y142989999I-218750J0D01*
G01*
X126478751Y142989999D01*
G75*
G02*
X126260001Y143208749I0J218750D01*
G01*
G37*
%TD*%
%TO.C,D4*%
G36*
G01*
X115010001Y137508749D02*
X115010001Y138021249D01*
G75*
G02*
X115228751Y138239999I218750J0D01*
G01*
X115666251Y138239999D01*
G75*
G02*
X115885001Y138021249I0J-218750D01*
G01*
X115885001Y137508749D01*
G75*
G02*
X115666251Y137289999I-218750J0D01*
G01*
X115228751Y137289999D01*
G75*
G02*
X115010001Y137508749I0J218750D01*
G01*
G37*
G36*
G01*
X116585001Y137508749D02*
X116585001Y138021249D01*
G75*
G02*
X116803751Y138239999I218750J0D01*
G01*
X117241251Y138239999D01*
G75*
G02*
X117460001Y138021249I0J-218750D01*
G01*
X117460001Y137508749D01*
G75*
G02*
X117241251Y137289999I-218750J0D01*
G01*
X116803751Y137289999D01*
G75*
G02*
X116585001Y137508749I0J218750D01*
G01*
G37*
%TD*%
%TO.C,D5*%
G36*
G01*
X123785001Y143208749D02*
X123785001Y143721249D01*
G75*
G02*
X124003751Y143939999I218750J0D01*
G01*
X124441251Y143939999D01*
G75*
G02*
X124660001Y143721249I0J-218750D01*
G01*
X124660001Y143208749D01*
G75*
G02*
X124441251Y142989999I-218750J0D01*
G01*
X124003751Y142989999D01*
G75*
G02*
X123785001Y143208749I0J218750D01*
G01*
G37*
G36*
G01*
X122210001Y143208749D02*
X122210001Y143721249D01*
G75*
G02*
X122428751Y143939999I218750J0D01*
G01*
X122866251Y143939999D01*
G75*
G02*
X123085001Y143721249I0J-218750D01*
G01*
X123085001Y143208749D01*
G75*
G02*
X122866251Y142989999I-218750J0D01*
G01*
X122428751Y142989999D01*
G75*
G02*
X122210001Y143208749I0J218750D01*
G01*
G37*
%TD*%
%TO.C,D6*%
G36*
G01*
X131110001Y152308749D02*
X131110001Y152821249D01*
G75*
G02*
X131328751Y153039999I218750J0D01*
G01*
X131766251Y153039999D01*
G75*
G02*
X131985001Y152821249I0J-218750D01*
G01*
X131985001Y152308749D01*
G75*
G02*
X131766251Y152089999I-218750J0D01*
G01*
X131328751Y152089999D01*
G75*
G02*
X131110001Y152308749I0J218750D01*
G01*
G37*
G36*
G01*
X132685001Y152308749D02*
X132685001Y152821249D01*
G75*
G02*
X132903751Y153039999I218750J0D01*
G01*
X133341251Y153039999D01*
G75*
G02*
X133560001Y152821249I0J-218750D01*
G01*
X133560001Y152308749D01*
G75*
G02*
X133341251Y152089999I-218750J0D01*
G01*
X132903751Y152089999D01*
G75*
G02*
X132685001Y152308749I0J218750D01*
G01*
G37*
%TD*%
%TO.C,D7*%
G36*
G01*
X18320001Y126878749D02*
X18320001Y127391249D01*
G75*
G02*
X18538751Y127609999I218750J0D01*
G01*
X18976251Y127609999D01*
G75*
G02*
X19195001Y127391249I0J-218750D01*
G01*
X19195001Y126878749D01*
G75*
G02*
X18976251Y126659999I-218750J0D01*
G01*
X18538751Y126659999D01*
G75*
G02*
X18320001Y126878749I0J218750D01*
G01*
G37*
G36*
G01*
X19895001Y126878749D02*
X19895001Y127391249D01*
G75*
G02*
X20113751Y127609999I218750J0D01*
G01*
X20551251Y127609999D01*
G75*
G02*
X20770001Y127391249I0J-218750D01*
G01*
X20770001Y126878749D01*
G75*
G02*
X20551251Y126659999I-218750J0D01*
G01*
X20113751Y126659999D01*
G75*
G02*
X19895001Y126878749I0J218750D01*
G01*
G37*
%TD*%
D11*
%TO.C,D8*%
X19075001Y130204999D03*
D12*
X26695001Y130204999D03*
%TD*%
D13*
%TO.C,F1*%
X78645001Y136674999D03*
X73545001Y138274999D03*
%TD*%
%TO.C,F2*%
X83995001Y141634999D03*
X89095001Y140034999D03*
%TD*%
%TO.C,F3*%
X35745001Y128504999D03*
X30645001Y130104999D03*
%TD*%
D14*
%TO.C,J1*%
X85745001Y152084999D03*
X89245001Y152084999D03*
%TD*%
D15*
%TO.C,J2*%
X25280001Y163734999D03*
X25280001Y166274999D03*
X25280001Y168814999D03*
X25280001Y171354999D03*
X25280001Y173894999D03*
X25280001Y176434999D03*
X25280001Y178974999D03*
X25280001Y181514999D03*
X25280001Y184054999D03*
X25280001Y186594999D03*
X25280001Y189134999D03*
X25280001Y191674999D03*
X25280001Y194214999D03*
X25280001Y196754999D03*
X25280001Y199294999D03*
X25280001Y201834999D03*
X25280001Y204374999D03*
X22740001Y163734999D03*
X22740001Y166274999D03*
X22740001Y168814999D03*
X22740001Y171354999D03*
X22740001Y173894999D03*
X22740001Y176434999D03*
X22740001Y178974999D03*
X22740001Y181514999D03*
X22740001Y184054999D03*
X22740001Y186594999D03*
X22740001Y189134999D03*
X22740001Y191674999D03*
X22740001Y194214999D03*
X22740001Y196754999D03*
X22740001Y199294999D03*
X22740001Y201834999D03*
G36*
G01*
X21890001Y203774999D02*
X21890001Y204974999D01*
G75*
G02*
X22140001Y205224999I250000J0D01*
G01*
X23340001Y205224999D01*
G75*
G02*
X23590001Y204974999I0J-250000D01*
G01*
X23590001Y203774999D01*
G75*
G02*
X23340001Y203524999I-250000J0D01*
G01*
X22140001Y203524999D01*
G75*
G02*
X21890001Y203774999I0J250000D01*
G01*
G37*
%TD*%
%TO.C,J3*%
G36*
G01*
X33870001Y203774999D02*
X33870001Y204974999D01*
G75*
G02*
X34120001Y205224999I250000J0D01*
G01*
X35320001Y205224999D01*
G75*
G02*
X35570001Y204974999I0J-250000D01*
G01*
X35570001Y203774999D01*
G75*
G02*
X35320001Y203524999I-250000J0D01*
G01*
X34120001Y203524999D01*
G75*
G02*
X33870001Y203774999I0J250000D01*
G01*
G37*
X34720001Y201834999D03*
X34720001Y199294999D03*
X34720001Y196754999D03*
X34720001Y194214999D03*
X34720001Y191674999D03*
X34720001Y189134999D03*
X34720001Y186594999D03*
X34720001Y184054999D03*
X34720001Y181514999D03*
X34720001Y178974999D03*
X34720001Y176434999D03*
X34720001Y173894999D03*
X34720001Y171354999D03*
X34720001Y168814999D03*
X34720001Y166274999D03*
X34720001Y163734999D03*
X37260001Y204374999D03*
X37260001Y201834999D03*
X37260001Y199294999D03*
X37260001Y196754999D03*
X37260001Y194214999D03*
X37260001Y191674999D03*
X37260001Y189134999D03*
X37260001Y186594999D03*
X37260001Y184054999D03*
X37260001Y181514999D03*
X37260001Y178974999D03*
X37260001Y176434999D03*
X37260001Y173894999D03*
X37260001Y171354999D03*
X37260001Y168814999D03*
X37260001Y166274999D03*
X37260001Y163734999D03*
%TD*%
D16*
%TO.C,J4*%
X118660000Y195170000D03*
X120950000Y195170000D03*
X130090000Y195170000D03*
X132380000Y195170000D03*
X129090000Y200030000D03*
X128070000Y201810000D03*
X127050000Y200030000D03*
X126030000Y201810000D03*
X125010000Y200030000D03*
X123990000Y201810000D03*
X122970000Y200030000D03*
X121950000Y201810000D03*
D17*
X117270000Y200920000D03*
X133770000Y200920000D03*
D18*
X119170000Y204350000D03*
X131870000Y204350000D03*
%TD*%
%TO.C,J5*%
G36*
G01*
X75560001Y121624999D02*
X75560001Y122824999D01*
G75*
G02*
X75810001Y123074999I250000J0D01*
G01*
X77010001Y123074999D01*
G75*
G02*
X77260001Y122824999I0J-250000D01*
G01*
X77260001Y121624999D01*
G75*
G02*
X77010001Y121374999I-250000J0D01*
G01*
X75810001Y121374999D01*
G75*
G02*
X75560001Y121624999I0J250000D01*
G01*
G37*
D15*
X76410001Y119684999D03*
X76410001Y117144999D03*
X78950001Y122224999D03*
X78950001Y119684999D03*
X78950001Y117144999D03*
%TD*%
D19*
%TO.C,J6*%
X116515001Y151534999D03*
D20*
X119055001Y151534999D03*
X116515001Y148994999D03*
X119055001Y148994999D03*
X116515001Y146454999D03*
X119055001Y146454999D03*
X116515001Y143914999D03*
X119055001Y143914999D03*
X116515001Y141374999D03*
X119055001Y141374999D03*
%TD*%
D11*
%TO.C,J7*%
X39525001Y151545661D03*
D21*
X36755001Y151545661D03*
X33985001Y151545661D03*
X31215001Y151545661D03*
X28445001Y151545661D03*
X38140001Y149005661D03*
X35370001Y149005661D03*
X32600001Y149005661D03*
X29830001Y149005661D03*
%TD*%
D14*
%TO.C,J8*%
X56975001Y135554999D03*
X53475001Y135554999D03*
%TD*%
D22*
%TO.C,JP1*%
G36*
X97325001Y127324397D02*
G01*
X97349535Y127324397D01*
X97398366Y127319587D01*
X97446491Y127310015D01*
X97493446Y127295771D01*
X97538779Y127276994D01*
X97582052Y127253863D01*
X97622851Y127226603D01*
X97660780Y127195475D01*
X97695477Y127160778D01*
X97726605Y127122849D01*
X97753865Y127082050D01*
X97776996Y127038777D01*
X97795773Y126993444D01*
X97810017Y126946489D01*
X97819589Y126898364D01*
X97824399Y126849533D01*
X97824399Y126824999D01*
X97825001Y126824999D01*
X97825001Y126324999D01*
X97824399Y126324999D01*
X97824399Y126300465D01*
X97819589Y126251634D01*
X97810017Y126203509D01*
X97795773Y126156554D01*
X97776996Y126111221D01*
X97753865Y126067948D01*
X97726605Y126027149D01*
X97695477Y125989220D01*
X97660780Y125954523D01*
X97622851Y125923395D01*
X97582052Y125896135D01*
X97538779Y125873004D01*
X97493446Y125854227D01*
X97446491Y125839983D01*
X97398366Y125830411D01*
X97349535Y125825601D01*
X97325001Y125825601D01*
X97325001Y125824999D01*
X96825001Y125824999D01*
X96825001Y127324999D01*
X97325001Y127324999D01*
X97325001Y127324397D01*
G37*
G36*
X96525001Y125824999D02*
G01*
X96025001Y125824999D01*
X96025001Y125825601D01*
X96000467Y125825601D01*
X95951636Y125830411D01*
X95903511Y125839983D01*
X95856556Y125854227D01*
X95811223Y125873004D01*
X95767950Y125896135D01*
X95727151Y125923395D01*
X95689222Y125954523D01*
X95654525Y125989220D01*
X95623397Y126027149D01*
X95596137Y126067948D01*
X95573006Y126111221D01*
X95554229Y126156554D01*
X95539985Y126203509D01*
X95530413Y126251634D01*
X95525603Y126300465D01*
X95525603Y126324999D01*
X95525001Y126324999D01*
X95525001Y126824999D01*
X95525603Y126824999D01*
X95525603Y126849533D01*
X95530413Y126898364D01*
X95539985Y126946489D01*
X95554229Y126993444D01*
X95573006Y127038777D01*
X95596137Y127082050D01*
X95623397Y127122849D01*
X95654525Y127160778D01*
X95689222Y127195475D01*
X95727151Y127226603D01*
X95767950Y127253863D01*
X95811223Y127276994D01*
X95856556Y127295771D01*
X95903511Y127310015D01*
X95951636Y127319587D01*
X96000467Y127324397D01*
X96025001Y127324397D01*
X96025001Y127324999D01*
X96525001Y127324999D01*
X96525001Y125824999D01*
G37*
%TD*%
D23*
%TO.C,K1*%
X57690001Y144179999D03*
X52610001Y144179999D03*
X57690001Y151799999D03*
X57690001Y146719999D03*
D24*
X52610001Y151799999D03*
D23*
X52610001Y146719999D03*
X57690001Y141639999D03*
X52610001Y141639999D03*
%TD*%
%TO.C,L1*%
G36*
G01*
X106295001Y139798749D02*
X106295001Y140311249D01*
G75*
G02*
X106513751Y140529999I218750J0D01*
G01*
X106951251Y140529999D01*
G75*
G02*
X107170001Y140311249I0J-218750D01*
G01*
X107170001Y139798749D01*
G75*
G02*
X106951251Y139579999I-218750J0D01*
G01*
X106513751Y139579999D01*
G75*
G02*
X106295001Y139798749I0J218750D01*
G01*
G37*
G36*
G01*
X104720001Y139798749D02*
X104720001Y140311249D01*
G75*
G02*
X104938751Y140529999I218750J0D01*
G01*
X105376251Y140529999D01*
G75*
G02*
X105595001Y140311249I0J-218750D01*
G01*
X105595001Y139798749D01*
G75*
G02*
X105376251Y139579999I-218750J0D01*
G01*
X104938751Y139579999D01*
G75*
G02*
X104720001Y139798749I0J218750D01*
G01*
G37*
%TD*%
%TO.C,L2*%
G36*
G01*
X148460001Y198948749D02*
X148460001Y199461249D01*
G75*
G02*
X148678751Y199679999I218750J0D01*
G01*
X149116251Y199679999D01*
G75*
G02*
X149335001Y199461249I0J-218750D01*
G01*
X149335001Y198948749D01*
G75*
G02*
X149116251Y198729999I-218750J0D01*
G01*
X148678751Y198729999D01*
G75*
G02*
X148460001Y198948749I0J218750D01*
G01*
G37*
G36*
G01*
X150035001Y198948749D02*
X150035001Y199461249D01*
G75*
G02*
X150253751Y199679999I218750J0D01*
G01*
X150691251Y199679999D01*
G75*
G02*
X150910001Y199461249I0J-218750D01*
G01*
X150910001Y198948749D01*
G75*
G02*
X150691251Y198729999I-218750J0D01*
G01*
X150253751Y198729999D01*
G75*
G02*
X150035001Y198948749I0J218750D01*
G01*
G37*
%TD*%
%TO.C,L3*%
G36*
G01*
X99290001Y123288749D02*
X99290001Y123801249D01*
G75*
G02*
X99508751Y124019999I218750J0D01*
G01*
X99946251Y124019999D01*
G75*
G02*
X100165001Y123801249I0J-218750D01*
G01*
X100165001Y123288749D01*
G75*
G02*
X99946251Y123069999I-218750J0D01*
G01*
X99508751Y123069999D01*
G75*
G02*
X99290001Y123288749I0J218750D01*
G01*
G37*
G36*
G01*
X100865001Y123288749D02*
X100865001Y123801249D01*
G75*
G02*
X101083751Y124019999I218750J0D01*
G01*
X101521251Y124019999D01*
G75*
G02*
X101740001Y123801249I0J-218750D01*
G01*
X101740001Y123288749D01*
G75*
G02*
X101521251Y123069999I-218750J0D01*
G01*
X101083751Y123069999D01*
G75*
G02*
X100865001Y123288749I0J218750D01*
G01*
G37*
%TD*%
%TO.C,L4*%
G36*
G01*
X136655001Y149758749D02*
X136655001Y150271249D01*
G75*
G02*
X136873751Y150489999I218750J0D01*
G01*
X137311251Y150489999D01*
G75*
G02*
X137530001Y150271249I0J-218750D01*
G01*
X137530001Y149758749D01*
G75*
G02*
X137311251Y149539999I-218750J0D01*
G01*
X136873751Y149539999D01*
G75*
G02*
X136655001Y149758749I0J218750D01*
G01*
G37*
G36*
G01*
X135080001Y149758749D02*
X135080001Y150271249D01*
G75*
G02*
X135298751Y150489999I218750J0D01*
G01*
X135736251Y150489999D01*
G75*
G02*
X135955001Y150271249I0J-218750D01*
G01*
X135955001Y149758749D01*
G75*
G02*
X135736251Y149539999I-218750J0D01*
G01*
X135298751Y149539999D01*
G75*
G02*
X135080001Y149758749I0J218750D01*
G01*
G37*
%TD*%
%TO.C,L5*%
G36*
G01*
X123030001Y138148749D02*
X123030001Y138661249D01*
G75*
G02*
X123248751Y138879999I218750J0D01*
G01*
X123686251Y138879999D01*
G75*
G02*
X123905001Y138661249I0J-218750D01*
G01*
X123905001Y138148749D01*
G75*
G02*
X123686251Y137929999I-218750J0D01*
G01*
X123248751Y137929999D01*
G75*
G02*
X123030001Y138148749I0J218750D01*
G01*
G37*
G36*
G01*
X124605001Y138148749D02*
X124605001Y138661249D01*
G75*
G02*
X124823751Y138879999I218750J0D01*
G01*
X125261251Y138879999D01*
G75*
G02*
X125480001Y138661249I0J-218750D01*
G01*
X125480001Y138148749D01*
G75*
G02*
X125261251Y137929999I-218750J0D01*
G01*
X124823751Y137929999D01*
G75*
G02*
X124605001Y138148749I0J218750D01*
G01*
G37*
%TD*%
%TO.C,L6*%
G36*
G01*
X126180001Y140658749D02*
X126180001Y141171249D01*
G75*
G02*
X126398751Y141389999I218750J0D01*
G01*
X126836251Y141389999D01*
G75*
G02*
X127055001Y141171249I0J-218750D01*
G01*
X127055001Y140658749D01*
G75*
G02*
X126836251Y140439999I-218750J0D01*
G01*
X126398751Y140439999D01*
G75*
G02*
X126180001Y140658749I0J218750D01*
G01*
G37*
G36*
G01*
X127755001Y140658749D02*
X127755001Y141171249D01*
G75*
G02*
X127973751Y141389999I218750J0D01*
G01*
X128411251Y141389999D01*
G75*
G02*
X128630001Y141171249I0J-218750D01*
G01*
X128630001Y140658749D01*
G75*
G02*
X128411251Y140439999I-218750J0D01*
G01*
X127973751Y140439999D01*
G75*
G02*
X127755001Y140658749I0J218750D01*
G01*
G37*
%TD*%
%TO.C,L7*%
G36*
G01*
X123745001Y140658749D02*
X123745001Y141171249D01*
G75*
G02*
X123963751Y141389999I218750J0D01*
G01*
X124401251Y141389999D01*
G75*
G02*
X124620001Y141171249I0J-218750D01*
G01*
X124620001Y140658749D01*
G75*
G02*
X124401251Y140439999I-218750J0D01*
G01*
X123963751Y140439999D01*
G75*
G02*
X123745001Y140658749I0J218750D01*
G01*
G37*
G36*
G01*
X122170001Y140658749D02*
X122170001Y141171249D01*
G75*
G02*
X122388751Y141389999I218750J0D01*
G01*
X122826251Y141389999D01*
G75*
G02*
X123045001Y141171249I0J-218750D01*
G01*
X123045001Y140658749D01*
G75*
G02*
X122826251Y140439999I-218750J0D01*
G01*
X122388751Y140439999D01*
G75*
G02*
X122170001Y140658749I0J218750D01*
G01*
G37*
%TD*%
%TO.C,L8*%
G36*
G01*
X131070001Y149758749D02*
X131070001Y150271249D01*
G75*
G02*
X131288751Y150489999I218750J0D01*
G01*
X131726251Y150489999D01*
G75*
G02*
X131945001Y150271249I0J-218750D01*
G01*
X131945001Y149758749D01*
G75*
G02*
X131726251Y149539999I-218750J0D01*
G01*
X131288751Y149539999D01*
G75*
G02*
X131070001Y149758749I0J218750D01*
G01*
G37*
G36*
G01*
X132645001Y149758749D02*
X132645001Y150271249D01*
G75*
G02*
X132863751Y150489999I218750J0D01*
G01*
X133301251Y150489999D01*
G75*
G02*
X133520001Y150271249I0J-218750D01*
G01*
X133520001Y149758749D01*
G75*
G02*
X133301251Y149539999I-218750J0D01*
G01*
X132863751Y149539999D01*
G75*
G02*
X132645001Y149758749I0J218750D01*
G01*
G37*
%TD*%
%TO.C,L9*%
G36*
G01*
X136695001Y152348749D02*
X136695001Y152861249D01*
G75*
G02*
X136913751Y153079999I218750J0D01*
G01*
X137351251Y153079999D01*
G75*
G02*
X137570001Y152861249I0J-218750D01*
G01*
X137570001Y152348749D01*
G75*
G02*
X137351251Y152129999I-218750J0D01*
G01*
X136913751Y152129999D01*
G75*
G02*
X136695001Y152348749I0J218750D01*
G01*
G37*
G36*
G01*
X135120001Y152348749D02*
X135120001Y152861249D01*
G75*
G02*
X135338751Y153079999I218750J0D01*
G01*
X135776251Y153079999D01*
G75*
G02*
X135995001Y152861249I0J-218750D01*
G01*
X135995001Y152348749D01*
G75*
G02*
X135776251Y152129999I-218750J0D01*
G01*
X135338751Y152129999D01*
G75*
G02*
X135120001Y152348749I0J218750D01*
G01*
G37*
%TD*%
D10*
%TO.C,Q1*%
X103345001Y152534999D03*
X103345001Y150634999D03*
X105345001Y151584999D03*
%TD*%
%TO.C,Q2*%
G36*
G01*
X71945001Y145779999D02*
X71945001Y146079999D01*
G75*
G02*
X72095001Y146229999I150000J0D01*
G01*
X73695001Y146229999D01*
G75*
G02*
X73845001Y146079999I0J-150000D01*
G01*
X73845001Y145779999D01*
G75*
G02*
X73695001Y145629999I-150000J0D01*
G01*
X72095001Y145629999D01*
G75*
G02*
X71945001Y145779999I0J150000D01*
G01*
G37*
G36*
G01*
X71945001Y144509999D02*
X71945001Y144809999D01*
G75*
G02*
X72095001Y144959999I150000J0D01*
G01*
X73695001Y144959999D01*
G75*
G02*
X73845001Y144809999I0J-150000D01*
G01*
X73845001Y144509999D01*
G75*
G02*
X73695001Y144359999I-150000J0D01*
G01*
X72095001Y144359999D01*
G75*
G02*
X71945001Y144509999I0J150000D01*
G01*
G37*
G36*
G01*
X71945001Y143239999D02*
X71945001Y143539999D01*
G75*
G02*
X72095001Y143689999I150000J0D01*
G01*
X73695001Y143689999D01*
G75*
G02*
X73845001Y143539999I0J-150000D01*
G01*
X73845001Y143239999D01*
G75*
G02*
X73695001Y143089999I-150000J0D01*
G01*
X72095001Y143089999D01*
G75*
G02*
X71945001Y143239999I0J150000D01*
G01*
G37*
G36*
G01*
X71945001Y141969999D02*
X71945001Y142269999D01*
G75*
G02*
X72095001Y142419999I150000J0D01*
G01*
X73695001Y142419999D01*
G75*
G02*
X73845001Y142269999I0J-150000D01*
G01*
X73845001Y141969999D01*
G75*
G02*
X73695001Y141819999I-150000J0D01*
G01*
X72095001Y141819999D01*
G75*
G02*
X71945001Y141969999I0J150000D01*
G01*
G37*
G36*
G01*
X78945001Y141969999D02*
X78945001Y142269999D01*
G75*
G02*
X79095001Y142419999I150000J0D01*
G01*
X80695001Y142419999D01*
G75*
G02*
X80845001Y142269999I0J-150000D01*
G01*
X80845001Y141969999D01*
G75*
G02*
X80695001Y141819999I-150000J0D01*
G01*
X79095001Y141819999D01*
G75*
G02*
X78945001Y141969999I0J150000D01*
G01*
G37*
G36*
G01*
X78945001Y143239999D02*
X78945001Y143539999D01*
G75*
G02*
X79095001Y143689999I150000J0D01*
G01*
X80695001Y143689999D01*
G75*
G02*
X80845001Y143539999I0J-150000D01*
G01*
X80845001Y143239999D01*
G75*
G02*
X80695001Y143089999I-150000J0D01*
G01*
X79095001Y143089999D01*
G75*
G02*
X78945001Y143239999I0J150000D01*
G01*
G37*
G36*
G01*
X78945001Y144509999D02*
X78945001Y144809999D01*
G75*
G02*
X79095001Y144959999I150000J0D01*
G01*
X80695001Y144959999D01*
G75*
G02*
X80845001Y144809999I0J-150000D01*
G01*
X80845001Y144509999D01*
G75*
G02*
X80695001Y144359999I-150000J0D01*
G01*
X79095001Y144359999D01*
G75*
G02*
X78945001Y144509999I0J150000D01*
G01*
G37*
G36*
G01*
X78945001Y145779999D02*
X78945001Y146079999D01*
G75*
G02*
X79095001Y146229999I150000J0D01*
G01*
X80695001Y146229999D01*
G75*
G02*
X80845001Y146079999I0J-150000D01*
G01*
X80845001Y145779999D01*
G75*
G02*
X80695001Y145629999I-150000J0D01*
G01*
X79095001Y145629999D01*
G75*
G02*
X78945001Y145779999I0J150000D01*
G01*
G37*
%TD*%
%TO.C,Q3*%
X127065001Y147984999D03*
X127065001Y146084999D03*
X129065001Y147034999D03*
%TD*%
%TO.C,Q4*%
X122615001Y147984999D03*
X122615001Y146084999D03*
X124615001Y147034999D03*
%TD*%
%TO.C,Q5*%
X127065001Y152534999D03*
X127065001Y150634999D03*
X129065001Y151584999D03*
%TD*%
%TO.C,Q6*%
X124615001Y151584999D03*
X122615001Y150634999D03*
X122615001Y152534999D03*
%TD*%
%TO.C,Q7*%
X62805001Y142484999D03*
X60805001Y141534999D03*
X60805001Y143434999D03*
%TD*%
%TO.C,Q8*%
X62805001Y147034999D03*
X60805001Y146084999D03*
X60805001Y147984999D03*
%TD*%
%TO.C,Q9*%
X62805001Y151584999D03*
X60805001Y150634999D03*
X60805001Y152534999D03*
%TD*%
%TO.C,R1*%
G36*
G01*
X172860001Y182689999D02*
X172860001Y183239999D01*
G75*
G02*
X173060001Y183439999I200000J0D01*
G01*
X173460001Y183439999D01*
G75*
G02*
X173660001Y183239999I0J-200000D01*
G01*
X173660001Y182689999D01*
G75*
G02*
X173460001Y182489999I-200000J0D01*
G01*
X173060001Y182489999D01*
G75*
G02*
X172860001Y182689999I0J200000D01*
G01*
G37*
G36*
G01*
X171210001Y182689999D02*
X171210001Y183239999D01*
G75*
G02*
X171410001Y183439999I200000J0D01*
G01*
X171810001Y183439999D01*
G75*
G02*
X172010001Y183239999I0J-200000D01*
G01*
X172010001Y182689999D01*
G75*
G02*
X171810001Y182489999I-200000J0D01*
G01*
X171410001Y182489999D01*
G75*
G02*
X171210001Y182689999I0J200000D01*
G01*
G37*
%TD*%
%TO.C,R2*%
G36*
G01*
X175220001Y182689999D02*
X175220001Y183239999D01*
G75*
G02*
X175420001Y183439999I200000J0D01*
G01*
X175820001Y183439999D01*
G75*
G02*
X176020001Y183239999I0J-200000D01*
G01*
X176020001Y182689999D01*
G75*
G02*
X175820001Y182489999I-200000J0D01*
G01*
X175420001Y182489999D01*
G75*
G02*
X175220001Y182689999I0J200000D01*
G01*
G37*
G36*
G01*
X176870001Y182689999D02*
X176870001Y183239999D01*
G75*
G02*
X177070001Y183439999I200000J0D01*
G01*
X177470001Y183439999D01*
G75*
G02*
X177670001Y183239999I0J-200000D01*
G01*
X177670001Y182689999D01*
G75*
G02*
X177470001Y182489999I-200000J0D01*
G01*
X177070001Y182489999D01*
G75*
G02*
X176870001Y182689999I0J200000D01*
G01*
G37*
%TD*%
%TO.C,R3*%
G36*
G01*
X172860001Y180179999D02*
X172860001Y180729999D01*
G75*
G02*
X173060001Y180929999I200000J0D01*
G01*
X173460001Y180929999D01*
G75*
G02*
X173660001Y180729999I0J-200000D01*
G01*
X173660001Y180179999D01*
G75*
G02*
X173460001Y179979999I-200000J0D01*
G01*
X173060001Y179979999D01*
G75*
G02*
X172860001Y180179999I0J200000D01*
G01*
G37*
G36*
G01*
X171210001Y180179999D02*
X171210001Y180729999D01*
G75*
G02*
X171410001Y180929999I200000J0D01*
G01*
X171810001Y180929999D01*
G75*
G02*
X172010001Y180729999I0J-200000D01*
G01*
X172010001Y180179999D01*
G75*
G02*
X171810001Y179979999I-200000J0D01*
G01*
X171410001Y179979999D01*
G75*
G02*
X171210001Y180179999I0J200000D01*
G01*
G37*
%TD*%
%TO.C,R4*%
G36*
G01*
X101730001Y134919999D02*
X101730001Y135469999D01*
G75*
G02*
X101930001Y135669999I200000J0D01*
G01*
X102330001Y135669999D01*
G75*
G02*
X102530001Y135469999I0J-200000D01*
G01*
X102530001Y134919999D01*
G75*
G02*
X102330001Y134719999I-200000J0D01*
G01*
X101930001Y134719999D01*
G75*
G02*
X101730001Y134919999I0J200000D01*
G01*
G37*
G36*
G01*
X100080001Y134919999D02*
X100080001Y135469999D01*
G75*
G02*
X100280001Y135669999I200000J0D01*
G01*
X100680001Y135669999D01*
G75*
G02*
X100880001Y135469999I0J-200000D01*
G01*
X100880001Y134919999D01*
G75*
G02*
X100680001Y134719999I-200000J0D01*
G01*
X100280001Y134719999D01*
G75*
G02*
X100080001Y134919999I0J200000D01*
G01*
G37*
%TD*%
%TO.C,R5*%
G36*
G01*
X96070001Y132409999D02*
X96070001Y132959999D01*
G75*
G02*
X96270001Y133159999I200000J0D01*
G01*
X96670001Y133159999D01*
G75*
G02*
X96870001Y132959999I0J-200000D01*
G01*
X96870001Y132409999D01*
G75*
G02*
X96670001Y132209999I-200000J0D01*
G01*
X96270001Y132209999D01*
G75*
G02*
X96070001Y132409999I0J200000D01*
G01*
G37*
G36*
G01*
X97720001Y132409999D02*
X97720001Y132959999D01*
G75*
G02*
X97920001Y133159999I200000J0D01*
G01*
X98320001Y133159999D01*
G75*
G02*
X98520001Y132959999I0J-200000D01*
G01*
X98520001Y132409999D01*
G75*
G02*
X98320001Y132209999I-200000J0D01*
G01*
X97920001Y132209999D01*
G75*
G02*
X97720001Y132409999I0J200000D01*
G01*
G37*
%TD*%
%TO.C,R6*%
G36*
G01*
X106370001Y142289999D02*
X106370001Y142839999D01*
G75*
G02*
X106570001Y143039999I200000J0D01*
G01*
X106970001Y143039999D01*
G75*
G02*
X107170001Y142839999I0J-200000D01*
G01*
X107170001Y142289999D01*
G75*
G02*
X106970001Y142089999I-200000J0D01*
G01*
X106570001Y142089999D01*
G75*
G02*
X106370001Y142289999I0J200000D01*
G01*
G37*
G36*
G01*
X104720001Y142289999D02*
X104720001Y142839999D01*
G75*
G02*
X104920001Y143039999I200000J0D01*
G01*
X105320001Y143039999D01*
G75*
G02*
X105520001Y142839999I0J-200000D01*
G01*
X105520001Y142289999D01*
G75*
G02*
X105320001Y142089999I-200000J0D01*
G01*
X104920001Y142089999D01*
G75*
G02*
X104720001Y142289999I0J200000D01*
G01*
G37*
%TD*%
%TO.C,R7*%
G36*
G01*
X100270001Y139059999D02*
X100270001Y139609999D01*
G75*
G02*
X100470001Y139809999I200000J0D01*
G01*
X100870001Y139809999D01*
G75*
G02*
X101070001Y139609999I0J-200000D01*
G01*
X101070001Y139059999D01*
G75*
G02*
X100870001Y138859999I-200000J0D01*
G01*
X100470001Y138859999D01*
G75*
G02*
X100270001Y139059999I0J200000D01*
G01*
G37*
G36*
G01*
X101920001Y139059999D02*
X101920001Y139609999D01*
G75*
G02*
X102120001Y139809999I200000J0D01*
G01*
X102520001Y139809999D01*
G75*
G02*
X102720001Y139609999I0J-200000D01*
G01*
X102720001Y139059999D01*
G75*
G02*
X102520001Y138859999I-200000J0D01*
G01*
X102120001Y138859999D01*
G75*
G02*
X101920001Y139059999I0J200000D01*
G01*
G37*
%TD*%
%TO.C,R8*%
G36*
G01*
X104720001Y144799999D02*
X104720001Y145349999D01*
G75*
G02*
X104920001Y145549999I200000J0D01*
G01*
X105320001Y145549999D01*
G75*
G02*
X105520001Y145349999I0J-200000D01*
G01*
X105520001Y144799999D01*
G75*
G02*
X105320001Y144599999I-200000J0D01*
G01*
X104920001Y144599999D01*
G75*
G02*
X104720001Y144799999I0J200000D01*
G01*
G37*
G36*
G01*
X106370001Y144799999D02*
X106370001Y145349999D01*
G75*
G02*
X106570001Y145549999I200000J0D01*
G01*
X106970001Y145549999D01*
G75*
G02*
X107170001Y145349999I0J-200000D01*
G01*
X107170001Y144799999D01*
G75*
G02*
X106970001Y144599999I-200000J0D01*
G01*
X106570001Y144599999D01*
G75*
G02*
X106370001Y144799999I0J200000D01*
G01*
G37*
%TD*%
%TO.C,R9*%
G36*
G01*
X108560001Y147309999D02*
X108560001Y147859999D01*
G75*
G02*
X108760001Y148059999I200000J0D01*
G01*
X109160001Y148059999D01*
G75*
G02*
X109360001Y147859999I0J-200000D01*
G01*
X109360001Y147309999D01*
G75*
G02*
X109160001Y147109999I-200000J0D01*
G01*
X108760001Y147109999D01*
G75*
G02*
X108560001Y147309999I0J200000D01*
G01*
G37*
G36*
G01*
X106910001Y147309999D02*
X106910001Y147859999D01*
G75*
G02*
X107110001Y148059999I200000J0D01*
G01*
X107510001Y148059999D01*
G75*
G02*
X107710001Y147859999I0J-200000D01*
G01*
X107710001Y147309999D01*
G75*
G02*
X107510001Y147109999I-200000J0D01*
G01*
X107110001Y147109999D01*
G75*
G02*
X106910001Y147309999I0J200000D01*
G01*
G37*
%TD*%
%TO.C,R10*%
G36*
G01*
X97720001Y134919999D02*
X97720001Y135469999D01*
G75*
G02*
X97920001Y135669999I200000J0D01*
G01*
X98320001Y135669999D01*
G75*
G02*
X98520001Y135469999I0J-200000D01*
G01*
X98520001Y134919999D01*
G75*
G02*
X98320001Y134719999I-200000J0D01*
G01*
X97920001Y134719999D01*
G75*
G02*
X97720001Y134919999I0J200000D01*
G01*
G37*
G36*
G01*
X96070001Y134919999D02*
X96070001Y135469999D01*
G75*
G02*
X96270001Y135669999I200000J0D01*
G01*
X96670001Y135669999D01*
G75*
G02*
X96870001Y135469999I0J-200000D01*
G01*
X96870001Y134919999D01*
G75*
G02*
X96670001Y134719999I-200000J0D01*
G01*
X96270001Y134719999D01*
G75*
G02*
X96070001Y134919999I0J200000D01*
G01*
G37*
%TD*%
%TO.C,R11*%
G36*
G01*
X92060001Y134919999D02*
X92060001Y135469999D01*
G75*
G02*
X92260001Y135669999I200000J0D01*
G01*
X92660001Y135669999D01*
G75*
G02*
X92860001Y135469999I0J-200000D01*
G01*
X92860001Y134919999D01*
G75*
G02*
X92660001Y134719999I-200000J0D01*
G01*
X92260001Y134719999D01*
G75*
G02*
X92060001Y134919999I0J200000D01*
G01*
G37*
G36*
G01*
X93710001Y134919999D02*
X93710001Y135469999D01*
G75*
G02*
X93910001Y135669999I200000J0D01*
G01*
X94310001Y135669999D01*
G75*
G02*
X94510001Y135469999I0J-200000D01*
G01*
X94510001Y134919999D01*
G75*
G02*
X94310001Y134719999I-200000J0D01*
G01*
X93910001Y134719999D01*
G75*
G02*
X93710001Y134919999I0J200000D01*
G01*
G37*
%TD*%
%TO.C,R12*%
G36*
G01*
X131160001Y180179999D02*
X131160001Y180729999D01*
G75*
G02*
X131360001Y180929999I200000J0D01*
G01*
X131760001Y180929999D01*
G75*
G02*
X131960001Y180729999I0J-200000D01*
G01*
X131960001Y180179999D01*
G75*
G02*
X131760001Y179979999I-200000J0D01*
G01*
X131360001Y179979999D01*
G75*
G02*
X131160001Y180179999I0J200000D01*
G01*
G37*
G36*
G01*
X129510001Y180179999D02*
X129510001Y180729999D01*
G75*
G02*
X129710001Y180929999I200000J0D01*
G01*
X130110001Y180929999D01*
G75*
G02*
X130310001Y180729999I0J-200000D01*
G01*
X130310001Y180179999D01*
G75*
G02*
X130110001Y179979999I-200000J0D01*
G01*
X129710001Y179979999D01*
G75*
G02*
X129510001Y180179999I0J200000D01*
G01*
G37*
%TD*%
%TO.C,R13*%
G36*
G01*
X135170001Y182689999D02*
X135170001Y183239999D01*
G75*
G02*
X135370001Y183439999I200000J0D01*
G01*
X135770001Y183439999D01*
G75*
G02*
X135970001Y183239999I0J-200000D01*
G01*
X135970001Y182689999D01*
G75*
G02*
X135770001Y182489999I-200000J0D01*
G01*
X135370001Y182489999D01*
G75*
G02*
X135170001Y182689999I0J200000D01*
G01*
G37*
G36*
G01*
X133520001Y182689999D02*
X133520001Y183239999D01*
G75*
G02*
X133720001Y183439999I200000J0D01*
G01*
X134120001Y183439999D01*
G75*
G02*
X134320001Y183239999I0J-200000D01*
G01*
X134320001Y182689999D01*
G75*
G02*
X134120001Y182489999I-200000J0D01*
G01*
X133720001Y182489999D01*
G75*
G02*
X133520001Y182689999I0J200000D01*
G01*
G37*
%TD*%
%TO.C,R14*%
G36*
G01*
X129510001Y182689999D02*
X129510001Y183239999D01*
G75*
G02*
X129710001Y183439999I200000J0D01*
G01*
X130110001Y183439999D01*
G75*
G02*
X130310001Y183239999I0J-200000D01*
G01*
X130310001Y182689999D01*
G75*
G02*
X130110001Y182489999I-200000J0D01*
G01*
X129710001Y182489999D01*
G75*
G02*
X129510001Y182689999I0J200000D01*
G01*
G37*
G36*
G01*
X131160001Y182689999D02*
X131160001Y183239999D01*
G75*
G02*
X131360001Y183439999I200000J0D01*
G01*
X131760001Y183439999D01*
G75*
G02*
X131960001Y183239999I0J-200000D01*
G01*
X131960001Y182689999D01*
G75*
G02*
X131760001Y182489999I-200000J0D01*
G01*
X131360001Y182489999D01*
G75*
G02*
X131160001Y182689999I0J200000D01*
G01*
G37*
%TD*%
%TO.C,R15*%
G36*
G01*
X129510001Y177669999D02*
X129510001Y178219999D01*
G75*
G02*
X129710001Y178419999I200000J0D01*
G01*
X130110001Y178419999D01*
G75*
G02*
X130310001Y178219999I0J-200000D01*
G01*
X130310001Y177669999D01*
G75*
G02*
X130110001Y177469999I-200000J0D01*
G01*
X129710001Y177469999D01*
G75*
G02*
X129510001Y177669999I0J200000D01*
G01*
G37*
G36*
G01*
X131160001Y177669999D02*
X131160001Y178219999D01*
G75*
G02*
X131360001Y178419999I200000J0D01*
G01*
X131760001Y178419999D01*
G75*
G02*
X131960001Y178219999I0J-200000D01*
G01*
X131960001Y177669999D01*
G75*
G02*
X131760001Y177469999I-200000J0D01*
G01*
X131360001Y177469999D01*
G75*
G02*
X131160001Y177669999I0J200000D01*
G01*
G37*
%TD*%
%TO.C,R16*%
G36*
G01*
X58710001Y198929999D02*
X58710001Y199479999D01*
G75*
G02*
X58910001Y199679999I200000J0D01*
G01*
X59310001Y199679999D01*
G75*
G02*
X59510001Y199479999I0J-200000D01*
G01*
X59510001Y198929999D01*
G75*
G02*
X59310001Y198729999I-200000J0D01*
G01*
X58910001Y198729999D01*
G75*
G02*
X58710001Y198929999I0J200000D01*
G01*
G37*
G36*
G01*
X60360001Y198929999D02*
X60360001Y199479999D01*
G75*
G02*
X60560001Y199679999I200000J0D01*
G01*
X60960001Y199679999D01*
G75*
G02*
X61160001Y199479999I0J-200000D01*
G01*
X61160001Y198929999D01*
G75*
G02*
X60960001Y198729999I-200000J0D01*
G01*
X60560001Y198729999D01*
G75*
G02*
X60360001Y198929999I0J200000D01*
G01*
G37*
%TD*%
%TO.C,R17*%
G36*
G01*
X42240001Y196419999D02*
X42240001Y196969999D01*
G75*
G02*
X42440001Y197169999I200000J0D01*
G01*
X42840001Y197169999D01*
G75*
G02*
X43040001Y196969999I0J-200000D01*
G01*
X43040001Y196419999D01*
G75*
G02*
X42840001Y196219999I-200000J0D01*
G01*
X42440001Y196219999D01*
G75*
G02*
X42240001Y196419999I0J200000D01*
G01*
G37*
G36*
G01*
X43890001Y196419999D02*
X43890001Y196969999D01*
G75*
G02*
X44090001Y197169999I200000J0D01*
G01*
X44490001Y197169999D01*
G75*
G02*
X44690001Y196969999I0J-200000D01*
G01*
X44690001Y196419999D01*
G75*
G02*
X44490001Y196219999I-200000J0D01*
G01*
X44090001Y196219999D01*
G75*
G02*
X43890001Y196419999I0J200000D01*
G01*
G37*
%TD*%
%TO.C,R18*%
G36*
G01*
X47900001Y198759999D02*
X47900001Y199309999D01*
G75*
G02*
X48100001Y199509999I200000J0D01*
G01*
X48500001Y199509999D01*
G75*
G02*
X48700001Y199309999I0J-200000D01*
G01*
X48700001Y198759999D01*
G75*
G02*
X48500001Y198559999I-200000J0D01*
G01*
X48100001Y198559999D01*
G75*
G02*
X47900001Y198759999I0J200000D01*
G01*
G37*
G36*
G01*
X46250001Y198759999D02*
X46250001Y199309999D01*
G75*
G02*
X46450001Y199509999I200000J0D01*
G01*
X46850001Y199509999D01*
G75*
G02*
X47050001Y199309999I0J-200000D01*
G01*
X47050001Y198759999D01*
G75*
G02*
X46850001Y198559999I-200000J0D01*
G01*
X46450001Y198559999D01*
G75*
G02*
X46250001Y198759999I0J200000D01*
G01*
G37*
%TD*%
%TO.C,R19*%
G36*
G01*
X55920001Y196419999D02*
X55920001Y196969999D01*
G75*
G02*
X56120001Y197169999I200000J0D01*
G01*
X56520001Y197169999D01*
G75*
G02*
X56720001Y196969999I0J-200000D01*
G01*
X56720001Y196419999D01*
G75*
G02*
X56520001Y196219999I-200000J0D01*
G01*
X56120001Y196219999D01*
G75*
G02*
X55920001Y196419999I0J200000D01*
G01*
G37*
G36*
G01*
X54270001Y196419999D02*
X54270001Y196969999D01*
G75*
G02*
X54470001Y197169999I200000J0D01*
G01*
X54870001Y197169999D01*
G75*
G02*
X55070001Y196969999I0J-200000D01*
G01*
X55070001Y196419999D01*
G75*
G02*
X54870001Y196219999I-200000J0D01*
G01*
X54470001Y196219999D01*
G75*
G02*
X54270001Y196419999I0J200000D01*
G01*
G37*
%TD*%
%TO.C,R20*%
G36*
G01*
X61650001Y208969999D02*
X61650001Y209519999D01*
G75*
G02*
X61850001Y209719999I200000J0D01*
G01*
X62250001Y209719999D01*
G75*
G02*
X62450001Y209519999I0J-200000D01*
G01*
X62450001Y208969999D01*
G75*
G02*
X62250001Y208769999I-200000J0D01*
G01*
X61850001Y208769999D01*
G75*
G02*
X61650001Y208969999I0J200000D01*
G01*
G37*
G36*
G01*
X63300001Y208969999D02*
X63300001Y209519999D01*
G75*
G02*
X63500001Y209719999I200000J0D01*
G01*
X63900001Y209719999D01*
G75*
G02*
X64100001Y209519999I0J-200000D01*
G01*
X64100001Y208969999D01*
G75*
G02*
X63900001Y208769999I-200000J0D01*
G01*
X63500001Y208769999D01*
G75*
G02*
X63300001Y208969999I0J200000D01*
G01*
G37*
%TD*%
%TO.C,R21*%
G36*
G01*
X50260001Y196419999D02*
X50260001Y196969999D01*
G75*
G02*
X50460001Y197169999I200000J0D01*
G01*
X50860001Y197169999D01*
G75*
G02*
X51060001Y196969999I0J-200000D01*
G01*
X51060001Y196419999D01*
G75*
G02*
X50860001Y196219999I-200000J0D01*
G01*
X50460001Y196219999D01*
G75*
G02*
X50260001Y196419999I0J200000D01*
G01*
G37*
G36*
G01*
X51910001Y196419999D02*
X51910001Y196969999D01*
G75*
G02*
X52110001Y197169999I200000J0D01*
G01*
X52510001Y197169999D01*
G75*
G02*
X52710001Y196969999I0J-200000D01*
G01*
X52710001Y196419999D01*
G75*
G02*
X52510001Y196219999I-200000J0D01*
G01*
X52110001Y196219999D01*
G75*
G02*
X51910001Y196419999I0J200000D01*
G01*
G37*
%TD*%
%TO.C,R22*%
G36*
G01*
X47900001Y196249999D02*
X47900001Y196799999D01*
G75*
G02*
X48100001Y196999999I200000J0D01*
G01*
X48500001Y196999999D01*
G75*
G02*
X48700001Y196799999I0J-200000D01*
G01*
X48700001Y196249999D01*
G75*
G02*
X48500001Y196049999I-200000J0D01*
G01*
X48100001Y196049999D01*
G75*
G02*
X47900001Y196249999I0J200000D01*
G01*
G37*
G36*
G01*
X46250001Y196249999D02*
X46250001Y196799999D01*
G75*
G02*
X46450001Y196999999I200000J0D01*
G01*
X46850001Y196999999D01*
G75*
G02*
X47050001Y196799999I0J-200000D01*
G01*
X47050001Y196249999D01*
G75*
G02*
X46850001Y196049999I-200000J0D01*
G01*
X46450001Y196049999D01*
G75*
G02*
X46250001Y196249999I0J200000D01*
G01*
G37*
%TD*%
%TO.C,R23*%
G36*
G01*
X58280001Y196419999D02*
X58280001Y196969999D01*
G75*
G02*
X58480001Y197169999I200000J0D01*
G01*
X58880001Y197169999D01*
G75*
G02*
X59080001Y196969999I0J-200000D01*
G01*
X59080001Y196419999D01*
G75*
G02*
X58880001Y196219999I-200000J0D01*
G01*
X58480001Y196219999D01*
G75*
G02*
X58280001Y196419999I0J200000D01*
G01*
G37*
G36*
G01*
X59930001Y196419999D02*
X59930001Y196969999D01*
G75*
G02*
X60130001Y197169999I200000J0D01*
G01*
X60530001Y197169999D01*
G75*
G02*
X60730001Y196969999I0J-200000D01*
G01*
X60730001Y196419999D01*
G75*
G02*
X60530001Y196219999I-200000J0D01*
G01*
X60130001Y196219999D01*
G75*
G02*
X59930001Y196419999I0J200000D01*
G01*
G37*
%TD*%
%TO.C,R24*%
G36*
G01*
X59290001Y208969999D02*
X59290001Y209519999D01*
G75*
G02*
X59490001Y209719999I200000J0D01*
G01*
X59890001Y209719999D01*
G75*
G02*
X60090001Y209519999I0J-200000D01*
G01*
X60090001Y208969999D01*
G75*
G02*
X59890001Y208769999I-200000J0D01*
G01*
X59490001Y208769999D01*
G75*
G02*
X59290001Y208969999I0J200000D01*
G01*
G37*
G36*
G01*
X57640001Y208969999D02*
X57640001Y209519999D01*
G75*
G02*
X57840001Y209719999I200000J0D01*
G01*
X58240001Y209719999D01*
G75*
G02*
X58440001Y209519999I0J-200000D01*
G01*
X58440001Y208969999D01*
G75*
G02*
X58240001Y208769999I-200000J0D01*
G01*
X57840001Y208769999D01*
G75*
G02*
X57640001Y208969999I0J200000D01*
G01*
G37*
%TD*%
%TO.C,R25*%
G36*
G01*
X58710001Y201439999D02*
X58710001Y201989999D01*
G75*
G02*
X58910001Y202189999I200000J0D01*
G01*
X59310001Y202189999D01*
G75*
G02*
X59510001Y201989999I0J-200000D01*
G01*
X59510001Y201439999D01*
G75*
G02*
X59310001Y201239999I-200000J0D01*
G01*
X58910001Y201239999D01*
G75*
G02*
X58710001Y201439999I0J200000D01*
G01*
G37*
G36*
G01*
X60360001Y201439999D02*
X60360001Y201989999D01*
G75*
G02*
X60560001Y202189999I200000J0D01*
G01*
X60960001Y202189999D01*
G75*
G02*
X61160001Y201989999I0J-200000D01*
G01*
X61160001Y201439999D01*
G75*
G02*
X60960001Y201239999I-200000J0D01*
G01*
X60560001Y201239999D01*
G75*
G02*
X60360001Y201439999I0J200000D01*
G01*
G37*
%TD*%
%TO.C,R26*%
G36*
G01*
X67310001Y208969999D02*
X67310001Y209519999D01*
G75*
G02*
X67510001Y209719999I200000J0D01*
G01*
X67910001Y209719999D01*
G75*
G02*
X68110001Y209519999I0J-200000D01*
G01*
X68110001Y208969999D01*
G75*
G02*
X67910001Y208769999I-200000J0D01*
G01*
X67510001Y208769999D01*
G75*
G02*
X67310001Y208969999I0J200000D01*
G01*
G37*
G36*
G01*
X65660001Y208969999D02*
X65660001Y209519999D01*
G75*
G02*
X65860001Y209719999I200000J0D01*
G01*
X66260001Y209719999D01*
G75*
G02*
X66460001Y209519999I0J-200000D01*
G01*
X66460001Y208969999D01*
G75*
G02*
X66260001Y208769999I-200000J0D01*
G01*
X65860001Y208769999D01*
G75*
G02*
X65660001Y208969999I0J200000D01*
G01*
G37*
%TD*%
%TO.C,R27*%
G36*
G01*
X69670001Y208969999D02*
X69670001Y209519999D01*
G75*
G02*
X69870001Y209719999I200000J0D01*
G01*
X70270001Y209719999D01*
G75*
G02*
X70470001Y209519999I0J-200000D01*
G01*
X70470001Y208969999D01*
G75*
G02*
X70270001Y208769999I-200000J0D01*
G01*
X69870001Y208769999D01*
G75*
G02*
X69670001Y208969999I0J200000D01*
G01*
G37*
G36*
G01*
X71320001Y208969999D02*
X71320001Y209519999D01*
G75*
G02*
X71520001Y209719999I200000J0D01*
G01*
X71920001Y209719999D01*
G75*
G02*
X72120001Y209519999I0J-200000D01*
G01*
X72120001Y208969999D01*
G75*
G02*
X71920001Y208769999I-200000J0D01*
G01*
X71520001Y208769999D01*
G75*
G02*
X71320001Y208969999I0J200000D01*
G01*
G37*
%TD*%
%TO.C,R28*%
G36*
G01*
X59290001Y206459999D02*
X59290001Y207009999D01*
G75*
G02*
X59490001Y207209999I200000J0D01*
G01*
X59890001Y207209999D01*
G75*
G02*
X60090001Y207009999I0J-200000D01*
G01*
X60090001Y206459999D01*
G75*
G02*
X59890001Y206259999I-200000J0D01*
G01*
X59490001Y206259999D01*
G75*
G02*
X59290001Y206459999I0J200000D01*
G01*
G37*
G36*
G01*
X57640001Y206459999D02*
X57640001Y207009999D01*
G75*
G02*
X57840001Y207209999I200000J0D01*
G01*
X58240001Y207209999D01*
G75*
G02*
X58440001Y207009999I0J-200000D01*
G01*
X58440001Y206459999D01*
G75*
G02*
X58240001Y206259999I-200000J0D01*
G01*
X57840001Y206259999D01*
G75*
G02*
X57640001Y206459999I0J200000D01*
G01*
G37*
%TD*%
%TO.C,R29*%
G36*
G01*
X61650001Y206459999D02*
X61650001Y207009999D01*
G75*
G02*
X61850001Y207209999I200000J0D01*
G01*
X62250001Y207209999D01*
G75*
G02*
X62450001Y207009999I0J-200000D01*
G01*
X62450001Y206459999D01*
G75*
G02*
X62250001Y206259999I-200000J0D01*
G01*
X61850001Y206259999D01*
G75*
G02*
X61650001Y206459999I0J200000D01*
G01*
G37*
G36*
G01*
X63300001Y206459999D02*
X63300001Y207009999D01*
G75*
G02*
X63500001Y207209999I200000J0D01*
G01*
X63900001Y207209999D01*
G75*
G02*
X64100001Y207009999I0J-200000D01*
G01*
X64100001Y206459999D01*
G75*
G02*
X63900001Y206259999I-200000J0D01*
G01*
X63500001Y206259999D01*
G75*
G02*
X63300001Y206459999I0J200000D01*
G01*
G37*
%TD*%
%TO.C,R30*%
G36*
G01*
X67310001Y206459999D02*
X67310001Y207009999D01*
G75*
G02*
X67510001Y207209999I200000J0D01*
G01*
X67910001Y207209999D01*
G75*
G02*
X68110001Y207009999I0J-200000D01*
G01*
X68110001Y206459999D01*
G75*
G02*
X67910001Y206259999I-200000J0D01*
G01*
X67510001Y206259999D01*
G75*
G02*
X67310001Y206459999I0J200000D01*
G01*
G37*
G36*
G01*
X65660001Y206459999D02*
X65660001Y207009999D01*
G75*
G02*
X65860001Y207209999I200000J0D01*
G01*
X66260001Y207209999D01*
G75*
G02*
X66460001Y207009999I0J-200000D01*
G01*
X66460001Y206459999D01*
G75*
G02*
X66260001Y206259999I-200000J0D01*
G01*
X65860001Y206259999D01*
G75*
G02*
X65660001Y206459999I0J200000D01*
G01*
G37*
%TD*%
%TO.C,R31*%
G36*
G01*
X50690001Y203949999D02*
X50690001Y204499999D01*
G75*
G02*
X50890001Y204699999I200000J0D01*
G01*
X51290001Y204699999D01*
G75*
G02*
X51490001Y204499999I0J-200000D01*
G01*
X51490001Y203949999D01*
G75*
G02*
X51290001Y203749999I-200000J0D01*
G01*
X50890001Y203749999D01*
G75*
G02*
X50690001Y203949999I0J200000D01*
G01*
G37*
G36*
G01*
X52340001Y203949999D02*
X52340001Y204499999D01*
G75*
G02*
X52540001Y204699999I200000J0D01*
G01*
X52940001Y204699999D01*
G75*
G02*
X53140001Y204499999I0J-200000D01*
G01*
X53140001Y203949999D01*
G75*
G02*
X52940001Y203749999I-200000J0D01*
G01*
X52540001Y203749999D01*
G75*
G02*
X52340001Y203949999I0J200000D01*
G01*
G37*
%TD*%
%TO.C,R32*%
G36*
G01*
X54700001Y203949999D02*
X54700001Y204499999D01*
G75*
G02*
X54900001Y204699999I200000J0D01*
G01*
X55300001Y204699999D01*
G75*
G02*
X55500001Y204499999I0J-200000D01*
G01*
X55500001Y203949999D01*
G75*
G02*
X55300001Y203749999I-200000J0D01*
G01*
X54900001Y203749999D01*
G75*
G02*
X54700001Y203949999I0J200000D01*
G01*
G37*
G36*
G01*
X56350001Y203949999D02*
X56350001Y204499999D01*
G75*
G02*
X56550001Y204699999I200000J0D01*
G01*
X56950001Y204699999D01*
G75*
G02*
X57150001Y204499999I0J-200000D01*
G01*
X57150001Y203949999D01*
G75*
G02*
X56950001Y203749999I-200000J0D01*
G01*
X56550001Y203749999D01*
G75*
G02*
X56350001Y203949999I0J200000D01*
G01*
G37*
%TD*%
%TO.C,R33*%
G36*
G01*
X60360001Y203949999D02*
X60360001Y204499999D01*
G75*
G02*
X60560001Y204699999I200000J0D01*
G01*
X60960001Y204699999D01*
G75*
G02*
X61160001Y204499999I0J-200000D01*
G01*
X61160001Y203949999D01*
G75*
G02*
X60960001Y203749999I-200000J0D01*
G01*
X60560001Y203749999D01*
G75*
G02*
X60360001Y203949999I0J200000D01*
G01*
G37*
G36*
G01*
X58710001Y203949999D02*
X58710001Y204499999D01*
G75*
G02*
X58910001Y204699999I200000J0D01*
G01*
X59310001Y204699999D01*
G75*
G02*
X59510001Y204499999I0J-200000D01*
G01*
X59510001Y203949999D01*
G75*
G02*
X59310001Y203749999I-200000J0D01*
G01*
X58910001Y203749999D01*
G75*
G02*
X58710001Y203949999I0J200000D01*
G01*
G37*
%TD*%
%TO.C,R34*%
G36*
G01*
X64370001Y203949999D02*
X64370001Y204499999D01*
G75*
G02*
X64570001Y204699999I200000J0D01*
G01*
X64970001Y204699999D01*
G75*
G02*
X65170001Y204499999I0J-200000D01*
G01*
X65170001Y203949999D01*
G75*
G02*
X64970001Y203749999I-200000J0D01*
G01*
X64570001Y203749999D01*
G75*
G02*
X64370001Y203949999I0J200000D01*
G01*
G37*
G36*
G01*
X62720001Y203949999D02*
X62720001Y204499999D01*
G75*
G02*
X62920001Y204699999I200000J0D01*
G01*
X63320001Y204699999D01*
G75*
G02*
X63520001Y204499999I0J-200000D01*
G01*
X63520001Y203949999D01*
G75*
G02*
X63320001Y203749999I-200000J0D01*
G01*
X62920001Y203749999D01*
G75*
G02*
X62720001Y203949999I0J200000D01*
G01*
G37*
%TD*%
%TO.C,R35*%
G36*
G01*
X52340001Y201439999D02*
X52340001Y201989999D01*
G75*
G02*
X52540001Y202189999I200000J0D01*
G01*
X52940001Y202189999D01*
G75*
G02*
X53140001Y201989999I0J-200000D01*
G01*
X53140001Y201439999D01*
G75*
G02*
X52940001Y201239999I-200000J0D01*
G01*
X52540001Y201239999D01*
G75*
G02*
X52340001Y201439999I0J200000D01*
G01*
G37*
G36*
G01*
X50690001Y201439999D02*
X50690001Y201989999D01*
G75*
G02*
X50890001Y202189999I200000J0D01*
G01*
X51290001Y202189999D01*
G75*
G02*
X51490001Y201989999I0J-200000D01*
G01*
X51490001Y201439999D01*
G75*
G02*
X51290001Y201239999I-200000J0D01*
G01*
X50890001Y201239999D01*
G75*
G02*
X50690001Y201439999I0J200000D01*
G01*
G37*
%TD*%
%TO.C,R36*%
G36*
G01*
X54700001Y201439999D02*
X54700001Y201989999D01*
G75*
G02*
X54900001Y202189999I200000J0D01*
G01*
X55300001Y202189999D01*
G75*
G02*
X55500001Y201989999I0J-200000D01*
G01*
X55500001Y201439999D01*
G75*
G02*
X55300001Y201239999I-200000J0D01*
G01*
X54900001Y201239999D01*
G75*
G02*
X54700001Y201439999I0J200000D01*
G01*
G37*
G36*
G01*
X56350001Y201439999D02*
X56350001Y201989999D01*
G75*
G02*
X56550001Y202189999I200000J0D01*
G01*
X56950001Y202189999D01*
G75*
G02*
X57150001Y201989999I0J-200000D01*
G01*
X57150001Y201439999D01*
G75*
G02*
X56950001Y201239999I-200000J0D01*
G01*
X56550001Y201239999D01*
G75*
G02*
X56350001Y201439999I0J200000D01*
G01*
G37*
%TD*%
%TO.C,R37*%
G36*
G01*
X144020001Y196069999D02*
X144020001Y196619999D01*
G75*
G02*
X144220001Y196819999I200000J0D01*
G01*
X144620001Y196819999D01*
G75*
G02*
X144820001Y196619999I0J-200000D01*
G01*
X144820001Y196069999D01*
G75*
G02*
X144620001Y195869999I-200000J0D01*
G01*
X144220001Y195869999D01*
G75*
G02*
X144020001Y196069999I0J200000D01*
G01*
G37*
G36*
G01*
X145670001Y196069999D02*
X145670001Y196619999D01*
G75*
G02*
X145870001Y196819999I200000J0D01*
G01*
X146270001Y196819999D01*
G75*
G02*
X146470001Y196619999I0J-200000D01*
G01*
X146470001Y196069999D01*
G75*
G02*
X146270001Y195869999I-200000J0D01*
G01*
X145870001Y195869999D01*
G75*
G02*
X145670001Y196069999I0J200000D01*
G01*
G37*
%TD*%
%TO.C,R38*%
G36*
G01*
X141520001Y193559999D02*
X141520001Y194109999D01*
G75*
G02*
X141720001Y194309999I200000J0D01*
G01*
X142120001Y194309999D01*
G75*
G02*
X142320001Y194109999I0J-200000D01*
G01*
X142320001Y193559999D01*
G75*
G02*
X142120001Y193359999I-200000J0D01*
G01*
X141720001Y193359999D01*
G75*
G02*
X141520001Y193559999I0J200000D01*
G01*
G37*
G36*
G01*
X143170001Y193559999D02*
X143170001Y194109999D01*
G75*
G02*
X143370001Y194309999I200000J0D01*
G01*
X143770001Y194309999D01*
G75*
G02*
X143970001Y194109999I0J-200000D01*
G01*
X143970001Y193559999D01*
G75*
G02*
X143770001Y193359999I-200000J0D01*
G01*
X143370001Y193359999D01*
G75*
G02*
X143170001Y193559999I0J200000D01*
G01*
G37*
%TD*%
%TO.C,R39*%
G36*
G01*
X150110001Y201439999D02*
X150110001Y201989999D01*
G75*
G02*
X150310001Y202189999I200000J0D01*
G01*
X150710001Y202189999D01*
G75*
G02*
X150910001Y201989999I0J-200000D01*
G01*
X150910001Y201439999D01*
G75*
G02*
X150710001Y201239999I-200000J0D01*
G01*
X150310001Y201239999D01*
G75*
G02*
X150110001Y201439999I0J200000D01*
G01*
G37*
G36*
G01*
X148460001Y201439999D02*
X148460001Y201989999D01*
G75*
G02*
X148660001Y202189999I200000J0D01*
G01*
X149060001Y202189999D01*
G75*
G02*
X149260001Y201989999I0J-200000D01*
G01*
X149260001Y201439999D01*
G75*
G02*
X149060001Y201239999I-200000J0D01*
G01*
X148660001Y201239999D01*
G75*
G02*
X148460001Y201439999I0J200000D01*
G01*
G37*
%TD*%
%TO.C,R40*%
G36*
G01*
X139160001Y191049999D02*
X139160001Y191599999D01*
G75*
G02*
X139360001Y191799999I200000J0D01*
G01*
X139760001Y191799999D01*
G75*
G02*
X139960001Y191599999I0J-200000D01*
G01*
X139960001Y191049999D01*
G75*
G02*
X139760001Y190849999I-200000J0D01*
G01*
X139360001Y190849999D01*
G75*
G02*
X139160001Y191049999I0J200000D01*
G01*
G37*
G36*
G01*
X137510001Y191049999D02*
X137510001Y191599999D01*
G75*
G02*
X137710001Y191799999I200000J0D01*
G01*
X138110001Y191799999D01*
G75*
G02*
X138310001Y191599999I0J-200000D01*
G01*
X138310001Y191049999D01*
G75*
G02*
X138110001Y190849999I-200000J0D01*
G01*
X137710001Y190849999D01*
G75*
G02*
X137510001Y191049999I0J200000D01*
G01*
G37*
%TD*%
%TO.C,R41*%
G36*
G01*
X144450001Y198929999D02*
X144450001Y199479999D01*
G75*
G02*
X144650001Y199679999I200000J0D01*
G01*
X145050001Y199679999D01*
G75*
G02*
X145250001Y199479999I0J-200000D01*
G01*
X145250001Y198929999D01*
G75*
G02*
X145050001Y198729999I-200000J0D01*
G01*
X144650001Y198729999D01*
G75*
G02*
X144450001Y198929999I0J200000D01*
G01*
G37*
G36*
G01*
X146100001Y198929999D02*
X146100001Y199479999D01*
G75*
G02*
X146300001Y199679999I200000J0D01*
G01*
X146700001Y199679999D01*
G75*
G02*
X146900001Y199479999I0J-200000D01*
G01*
X146900001Y198929999D01*
G75*
G02*
X146700001Y198729999I-200000J0D01*
G01*
X146300001Y198729999D01*
G75*
G02*
X146100001Y198929999I0J200000D01*
G01*
G37*
%TD*%
%TO.C,R42*%
G36*
G01*
X152470001Y206459999D02*
X152470001Y207009999D01*
G75*
G02*
X152670001Y207209999I200000J0D01*
G01*
X153070001Y207209999D01*
G75*
G02*
X153270001Y207009999I0J-200000D01*
G01*
X153270001Y206459999D01*
G75*
G02*
X153070001Y206259999I-200000J0D01*
G01*
X152670001Y206259999D01*
G75*
G02*
X152470001Y206459999I0J200000D01*
G01*
G37*
G36*
G01*
X154120001Y206459999D02*
X154120001Y207009999D01*
G75*
G02*
X154320001Y207209999I200000J0D01*
G01*
X154720001Y207209999D01*
G75*
G02*
X154920001Y207009999I0J-200000D01*
G01*
X154920001Y206459999D01*
G75*
G02*
X154720001Y206259999I-200000J0D01*
G01*
X154320001Y206259999D01*
G75*
G02*
X154120001Y206459999I0J200000D01*
G01*
G37*
%TD*%
%TO.C,R43*%
G36*
G01*
X147180001Y193559999D02*
X147180001Y194109999D01*
G75*
G02*
X147380001Y194309999I200000J0D01*
G01*
X147780001Y194309999D01*
G75*
G02*
X147980001Y194109999I0J-200000D01*
G01*
X147980001Y193559999D01*
G75*
G02*
X147780001Y193359999I-200000J0D01*
G01*
X147380001Y193359999D01*
G75*
G02*
X147180001Y193559999I0J200000D01*
G01*
G37*
G36*
G01*
X145530001Y193559999D02*
X145530001Y194109999D01*
G75*
G02*
X145730001Y194309999I200000J0D01*
G01*
X146130001Y194309999D01*
G75*
G02*
X146330001Y194109999I0J-200000D01*
G01*
X146330001Y193559999D01*
G75*
G02*
X146130001Y193359999I-200000J0D01*
G01*
X145730001Y193359999D01*
G75*
G02*
X145530001Y193559999I0J200000D01*
G01*
G37*
%TD*%
%TO.C,R44*%
G36*
G01*
X135150001Y192149999D02*
X135150001Y192699999D01*
G75*
G02*
X135350001Y192899999I200000J0D01*
G01*
X135750001Y192899999D01*
G75*
G02*
X135950001Y192699999I0J-200000D01*
G01*
X135950001Y192149999D01*
G75*
G02*
X135750001Y191949999I-200000J0D01*
G01*
X135350001Y191949999D01*
G75*
G02*
X135150001Y192149999I0J200000D01*
G01*
G37*
G36*
G01*
X133500001Y192149999D02*
X133500001Y192699999D01*
G75*
G02*
X133700001Y192899999I200000J0D01*
G01*
X134100001Y192899999D01*
G75*
G02*
X134300001Y192699999I0J-200000D01*
G01*
X134300001Y192149999D01*
G75*
G02*
X134100001Y191949999I-200000J0D01*
G01*
X133700001Y191949999D01*
G75*
G02*
X133500001Y192149999I0J200000D01*
G01*
G37*
%TD*%
%TO.C,R45*%
G36*
G01*
X144450001Y203949999D02*
X144450001Y204499999D01*
G75*
G02*
X144650001Y204699999I200000J0D01*
G01*
X145050001Y204699999D01*
G75*
G02*
X145250001Y204499999I0J-200000D01*
G01*
X145250001Y203949999D01*
G75*
G02*
X145050001Y203749999I-200000J0D01*
G01*
X144650001Y203749999D01*
G75*
G02*
X144450001Y203949999I0J200000D01*
G01*
G37*
G36*
G01*
X146100001Y203949999D02*
X146100001Y204499999D01*
G75*
G02*
X146300001Y204699999I200000J0D01*
G01*
X146700001Y204699999D01*
G75*
G02*
X146900001Y204499999I0J-200000D01*
G01*
X146900001Y203949999D01*
G75*
G02*
X146700001Y203749999I-200000J0D01*
G01*
X146300001Y203749999D01*
G75*
G02*
X146100001Y203949999I0J200000D01*
G01*
G37*
%TD*%
%TO.C,R46*%
G36*
G01*
X150110001Y208969999D02*
X150110001Y209519999D01*
G75*
G02*
X150310001Y209719999I200000J0D01*
G01*
X150710001Y209719999D01*
G75*
G02*
X150910001Y209519999I0J-200000D01*
G01*
X150910001Y208969999D01*
G75*
G02*
X150710001Y208769999I-200000J0D01*
G01*
X150310001Y208769999D01*
G75*
G02*
X150110001Y208969999I0J200000D01*
G01*
G37*
G36*
G01*
X148460001Y208969999D02*
X148460001Y209519999D01*
G75*
G02*
X148660001Y209719999I200000J0D01*
G01*
X149060001Y209719999D01*
G75*
G02*
X149260001Y209519999I0J-200000D01*
G01*
X149260001Y208969999D01*
G75*
G02*
X149060001Y208769999I-200000J0D01*
G01*
X148660001Y208769999D01*
G75*
G02*
X148460001Y208969999I0J200000D01*
G01*
G37*
%TD*%
%TO.C,R47*%
G36*
G01*
X136000001Y196069999D02*
X136000001Y196619999D01*
G75*
G02*
X136200001Y196819999I200000J0D01*
G01*
X136600001Y196819999D01*
G75*
G02*
X136800001Y196619999I0J-200000D01*
G01*
X136800001Y196069999D01*
G75*
G02*
X136600001Y195869999I-200000J0D01*
G01*
X136200001Y195869999D01*
G75*
G02*
X136000001Y196069999I0J200000D01*
G01*
G37*
G36*
G01*
X137650001Y196069999D02*
X137650001Y196619999D01*
G75*
G02*
X137850001Y196819999I200000J0D01*
G01*
X138250001Y196819999D01*
G75*
G02*
X138450001Y196619999I0J-200000D01*
G01*
X138450001Y196069999D01*
G75*
G02*
X138250001Y195869999I-200000J0D01*
G01*
X137850001Y195869999D01*
G75*
G02*
X137650001Y196069999I0J200000D01*
G01*
G37*
%TD*%
%TO.C,R48*%
G36*
G01*
X150110001Y206459999D02*
X150110001Y207009999D01*
G75*
G02*
X150310001Y207209999I200000J0D01*
G01*
X150710001Y207209999D01*
G75*
G02*
X150910001Y207009999I0J-200000D01*
G01*
X150910001Y206459999D01*
G75*
G02*
X150710001Y206259999I-200000J0D01*
G01*
X150310001Y206259999D01*
G75*
G02*
X150110001Y206459999I0J200000D01*
G01*
G37*
G36*
G01*
X148460001Y206459999D02*
X148460001Y207009999D01*
G75*
G02*
X148660001Y207209999I200000J0D01*
G01*
X149060001Y207209999D01*
G75*
G02*
X149260001Y207009999I0J-200000D01*
G01*
X149260001Y206459999D01*
G75*
G02*
X149060001Y206259999I-200000J0D01*
G01*
X148660001Y206259999D01*
G75*
G02*
X148460001Y206459999I0J200000D01*
G01*
G37*
%TD*%
%TO.C,R49*%
G36*
G01*
X140010001Y196069999D02*
X140010001Y196619999D01*
G75*
G02*
X140210001Y196819999I200000J0D01*
G01*
X140610001Y196819999D01*
G75*
G02*
X140810001Y196619999I0J-200000D01*
G01*
X140810001Y196069999D01*
G75*
G02*
X140610001Y195869999I-200000J0D01*
G01*
X140210001Y195869999D01*
G75*
G02*
X140010001Y196069999I0J200000D01*
G01*
G37*
G36*
G01*
X141660001Y196069999D02*
X141660001Y196619999D01*
G75*
G02*
X141860001Y196819999I200000J0D01*
G01*
X142260001Y196819999D01*
G75*
G02*
X142460001Y196619999I0J-200000D01*
G01*
X142460001Y196069999D01*
G75*
G02*
X142260001Y195869999I-200000J0D01*
G01*
X141860001Y195869999D01*
G75*
G02*
X141660001Y196069999I0J200000D01*
G01*
G37*
%TD*%
%TO.C,R50*%
G36*
G01*
X152470001Y208969999D02*
X152470001Y209519999D01*
G75*
G02*
X152670001Y209719999I200000J0D01*
G01*
X153070001Y209719999D01*
G75*
G02*
X153270001Y209519999I0J-200000D01*
G01*
X153270001Y208969999D01*
G75*
G02*
X153070001Y208769999I-200000J0D01*
G01*
X152670001Y208769999D01*
G75*
G02*
X152470001Y208969999I0J200000D01*
G01*
G37*
G36*
G01*
X154120001Y208969999D02*
X154120001Y209519999D01*
G75*
G02*
X154320001Y209719999I200000J0D01*
G01*
X154720001Y209719999D01*
G75*
G02*
X154920001Y209519999I0J-200000D01*
G01*
X154920001Y208969999D01*
G75*
G02*
X154720001Y208769999I-200000J0D01*
G01*
X154320001Y208769999D01*
G75*
G02*
X154120001Y208969999I0J200000D01*
G01*
G37*
%TD*%
%TO.C,R51*%
G36*
G01*
X146100001Y201439999D02*
X146100001Y201989999D01*
G75*
G02*
X146300001Y202189999I200000J0D01*
G01*
X146700001Y202189999D01*
G75*
G02*
X146900001Y201989999I0J-200000D01*
G01*
X146900001Y201439999D01*
G75*
G02*
X146700001Y201239999I-200000J0D01*
G01*
X146300001Y201239999D01*
G75*
G02*
X146100001Y201439999I0J200000D01*
G01*
G37*
G36*
G01*
X144450001Y201439999D02*
X144450001Y201989999D01*
G75*
G02*
X144650001Y202189999I200000J0D01*
G01*
X145050001Y202189999D01*
G75*
G02*
X145250001Y201989999I0J-200000D01*
G01*
X145250001Y201439999D01*
G75*
G02*
X145050001Y201239999I-200000J0D01*
G01*
X144650001Y201239999D01*
G75*
G02*
X144450001Y201439999I0J200000D01*
G01*
G37*
%TD*%
%TO.C,R52*%
G36*
G01*
X139160001Y193559999D02*
X139160001Y194109999D01*
G75*
G02*
X139360001Y194309999I200000J0D01*
G01*
X139760001Y194309999D01*
G75*
G02*
X139960001Y194109999I0J-200000D01*
G01*
X139960001Y193559999D01*
G75*
G02*
X139760001Y193359999I-200000J0D01*
G01*
X139360001Y193359999D01*
G75*
G02*
X139160001Y193559999I0J200000D01*
G01*
G37*
G36*
G01*
X137510001Y193559999D02*
X137510001Y194109999D01*
G75*
G02*
X137710001Y194309999I200000J0D01*
G01*
X138110001Y194309999D01*
G75*
G02*
X138310001Y194109999I0J-200000D01*
G01*
X138310001Y193559999D01*
G75*
G02*
X138110001Y193359999I-200000J0D01*
G01*
X137710001Y193359999D01*
G75*
G02*
X137510001Y193559999I0J200000D01*
G01*
G37*
%TD*%
%TO.C,R53*%
G36*
G01*
X148460001Y203949999D02*
X148460001Y204499999D01*
G75*
G02*
X148660001Y204699999I200000J0D01*
G01*
X149060001Y204699999D01*
G75*
G02*
X149260001Y204499999I0J-200000D01*
G01*
X149260001Y203949999D01*
G75*
G02*
X149060001Y203749999I-200000J0D01*
G01*
X148660001Y203749999D01*
G75*
G02*
X148460001Y203949999I0J200000D01*
G01*
G37*
G36*
G01*
X150110001Y203949999D02*
X150110001Y204499999D01*
G75*
G02*
X150310001Y204699999I200000J0D01*
G01*
X150710001Y204699999D01*
G75*
G02*
X150910001Y204499999I0J-200000D01*
G01*
X150910001Y203949999D01*
G75*
G02*
X150710001Y203749999I-200000J0D01*
G01*
X150310001Y203749999D01*
G75*
G02*
X150110001Y203949999I0J200000D01*
G01*
G37*
%TD*%
%TO.C,R54*%
G36*
G01*
X146100001Y206459999D02*
X146100001Y207009999D01*
G75*
G02*
X146300001Y207209999I200000J0D01*
G01*
X146700001Y207209999D01*
G75*
G02*
X146900001Y207009999I0J-200000D01*
G01*
X146900001Y206459999D01*
G75*
G02*
X146700001Y206259999I-200000J0D01*
G01*
X146300001Y206259999D01*
G75*
G02*
X146100001Y206459999I0J200000D01*
G01*
G37*
G36*
G01*
X144450001Y206459999D02*
X144450001Y207009999D01*
G75*
G02*
X144650001Y207209999I200000J0D01*
G01*
X145050001Y207209999D01*
G75*
G02*
X145250001Y207009999I0J-200000D01*
G01*
X145250001Y206459999D01*
G75*
G02*
X145050001Y206259999I-200000J0D01*
G01*
X144650001Y206259999D01*
G75*
G02*
X144450001Y206459999I0J200000D01*
G01*
G37*
%TD*%
%TO.C,R55*%
G36*
G01*
X144450001Y208969999D02*
X144450001Y209519999D01*
G75*
G02*
X144650001Y209719999I200000J0D01*
G01*
X145050001Y209719999D01*
G75*
G02*
X145250001Y209519999I0J-200000D01*
G01*
X145250001Y208969999D01*
G75*
G02*
X145050001Y208769999I-200000J0D01*
G01*
X144650001Y208769999D01*
G75*
G02*
X144450001Y208969999I0J200000D01*
G01*
G37*
G36*
G01*
X146100001Y208969999D02*
X146100001Y209519999D01*
G75*
G02*
X146300001Y209719999I200000J0D01*
G01*
X146700001Y209719999D01*
G75*
G02*
X146900001Y209519999I0J-200000D01*
G01*
X146900001Y208969999D01*
G75*
G02*
X146700001Y208769999I-200000J0D01*
G01*
X146300001Y208769999D01*
G75*
G02*
X146100001Y208969999I0J200000D01*
G01*
G37*
%TD*%
%TO.C,R56*%
G36*
G01*
X177900001Y206459999D02*
X177900001Y207009999D01*
G75*
G02*
X178100001Y207209999I200000J0D01*
G01*
X178500001Y207209999D01*
G75*
G02*
X178700001Y207009999I0J-200000D01*
G01*
X178700001Y206459999D01*
G75*
G02*
X178500001Y206259999I-200000J0D01*
G01*
X178100001Y206259999D01*
G75*
G02*
X177900001Y206459999I0J200000D01*
G01*
G37*
G36*
G01*
X179550001Y206459999D02*
X179550001Y207009999D01*
G75*
G02*
X179750001Y207209999I200000J0D01*
G01*
X180150001Y207209999D01*
G75*
G02*
X180350001Y207009999I0J-200000D01*
G01*
X180350001Y206459999D01*
G75*
G02*
X180150001Y206259999I-200000J0D01*
G01*
X179750001Y206259999D01*
G75*
G02*
X179550001Y206459999I0J200000D01*
G01*
G37*
%TD*%
%TO.C,R57*%
G36*
G01*
X173890001Y206459999D02*
X173890001Y207009999D01*
G75*
G02*
X174090001Y207209999I200000J0D01*
G01*
X174490001Y207209999D01*
G75*
G02*
X174690001Y207009999I0J-200000D01*
G01*
X174690001Y206459999D01*
G75*
G02*
X174490001Y206259999I-200000J0D01*
G01*
X174090001Y206259999D01*
G75*
G02*
X173890001Y206459999I0J200000D01*
G01*
G37*
G36*
G01*
X175540001Y206459999D02*
X175540001Y207009999D01*
G75*
G02*
X175740001Y207209999I200000J0D01*
G01*
X176140001Y207209999D01*
G75*
G02*
X176340001Y207009999I0J-200000D01*
G01*
X176340001Y206459999D01*
G75*
G02*
X176140001Y206259999I-200000J0D01*
G01*
X175740001Y206259999D01*
G75*
G02*
X175540001Y206459999I0J200000D01*
G01*
G37*
%TD*%
%TO.C,R58*%
G36*
G01*
X179550001Y208969999D02*
X179550001Y209519999D01*
G75*
G02*
X179750001Y209719999I200000J0D01*
G01*
X180150001Y209719999D01*
G75*
G02*
X180350001Y209519999I0J-200000D01*
G01*
X180350001Y208969999D01*
G75*
G02*
X180150001Y208769999I-200000J0D01*
G01*
X179750001Y208769999D01*
G75*
G02*
X179550001Y208969999I0J200000D01*
G01*
G37*
G36*
G01*
X177900001Y208969999D02*
X177900001Y209519999D01*
G75*
G02*
X178100001Y209719999I200000J0D01*
G01*
X178500001Y209719999D01*
G75*
G02*
X178700001Y209519999I0J-200000D01*
G01*
X178700001Y208969999D01*
G75*
G02*
X178500001Y208769999I-200000J0D01*
G01*
X178100001Y208769999D01*
G75*
G02*
X177900001Y208969999I0J200000D01*
G01*
G37*
%TD*%
%TO.C,R59*%
G36*
G01*
X175540001Y208969999D02*
X175540001Y209519999D01*
G75*
G02*
X175740001Y209719999I200000J0D01*
G01*
X176140001Y209719999D01*
G75*
G02*
X176340001Y209519999I0J-200000D01*
G01*
X176340001Y208969999D01*
G75*
G02*
X176140001Y208769999I-200000J0D01*
G01*
X175740001Y208769999D01*
G75*
G02*
X175540001Y208969999I0J200000D01*
G01*
G37*
G36*
G01*
X173890001Y208969999D02*
X173890001Y209519999D01*
G75*
G02*
X174090001Y209719999I200000J0D01*
G01*
X174490001Y209719999D01*
G75*
G02*
X174690001Y209519999I0J-200000D01*
G01*
X174690001Y208969999D01*
G75*
G02*
X174490001Y208769999I-200000J0D01*
G01*
X174090001Y208769999D01*
G75*
G02*
X173890001Y208969999I0J200000D01*
G01*
G37*
%TD*%
%TO.C,R60*%
G36*
G01*
X93600001Y110449999D02*
X93600001Y110999999D01*
G75*
G02*
X93800001Y111199999I200000J0D01*
G01*
X94200001Y111199999D01*
G75*
G02*
X94400001Y110999999I0J-200000D01*
G01*
X94400001Y110449999D01*
G75*
G02*
X94200001Y110249999I-200000J0D01*
G01*
X93800001Y110249999D01*
G75*
G02*
X93600001Y110449999I0J200000D01*
G01*
G37*
G36*
G01*
X91950001Y110449999D02*
X91950001Y110999999D01*
G75*
G02*
X92150001Y111199999I200000J0D01*
G01*
X92550001Y111199999D01*
G75*
G02*
X92750001Y110999999I0J-200000D01*
G01*
X92750001Y110449999D01*
G75*
G02*
X92550001Y110249999I-200000J0D01*
G01*
X92150001Y110249999D01*
G75*
G02*
X91950001Y110449999I0J200000D01*
G01*
G37*
%TD*%
%TO.C,R61*%
G36*
G01*
X99290001Y118249999D02*
X99290001Y118799999D01*
G75*
G02*
X99490001Y118999999I200000J0D01*
G01*
X99890001Y118999999D01*
G75*
G02*
X100090001Y118799999I0J-200000D01*
G01*
X100090001Y118249999D01*
G75*
G02*
X99890001Y118049999I-200000J0D01*
G01*
X99490001Y118049999D01*
G75*
G02*
X99290001Y118249999I0J200000D01*
G01*
G37*
G36*
G01*
X100940001Y118249999D02*
X100940001Y118799999D01*
G75*
G02*
X101140001Y118999999I200000J0D01*
G01*
X101540001Y118999999D01*
G75*
G02*
X101740001Y118799999I0J-200000D01*
G01*
X101740001Y118249999D01*
G75*
G02*
X101540001Y118049999I-200000J0D01*
G01*
X101140001Y118049999D01*
G75*
G02*
X100940001Y118249999I0J200000D01*
G01*
G37*
%TD*%
%TO.C,R62*%
G36*
G01*
X120670001Y137529999D02*
X120670001Y138079999D01*
G75*
G02*
X120870001Y138279999I200000J0D01*
G01*
X121270001Y138279999D01*
G75*
G02*
X121470001Y138079999I0J-200000D01*
G01*
X121470001Y137529999D01*
G75*
G02*
X121270001Y137329999I-200000J0D01*
G01*
X120870001Y137329999D01*
G75*
G02*
X120670001Y137529999I0J200000D01*
G01*
G37*
G36*
G01*
X119020001Y137529999D02*
X119020001Y138079999D01*
G75*
G02*
X119220001Y138279999I200000J0D01*
G01*
X119620001Y138279999D01*
G75*
G02*
X119820001Y138079999I0J-200000D01*
G01*
X119820001Y137529999D01*
G75*
G02*
X119620001Y137329999I-200000J0D01*
G01*
X119220001Y137329999D01*
G75*
G02*
X119020001Y137529999I0J200000D01*
G01*
G37*
%TD*%
%TO.C,R63*%
G36*
G01*
X130270001Y143229999D02*
X130270001Y143779999D01*
G75*
G02*
X130470001Y143979999I200000J0D01*
G01*
X130870001Y143979999D01*
G75*
G02*
X131070001Y143779999I0J-200000D01*
G01*
X131070001Y143229999D01*
G75*
G02*
X130870001Y143029999I-200000J0D01*
G01*
X130470001Y143029999D01*
G75*
G02*
X130270001Y143229999I0J200000D01*
G01*
G37*
G36*
G01*
X131920001Y143229999D02*
X131920001Y143779999D01*
G75*
G02*
X132120001Y143979999I200000J0D01*
G01*
X132520001Y143979999D01*
G75*
G02*
X132720001Y143779999I0J-200000D01*
G01*
X132720001Y143229999D01*
G75*
G02*
X132520001Y143029999I-200000J0D01*
G01*
X132120001Y143029999D01*
G75*
G02*
X131920001Y143229999I0J200000D01*
G01*
G37*
%TD*%
%TO.C,R64*%
G36*
G01*
X136730001Y147229999D02*
X136730001Y147779999D01*
G75*
G02*
X136930001Y147979999I200000J0D01*
G01*
X137330001Y147979999D01*
G75*
G02*
X137530001Y147779999I0J-200000D01*
G01*
X137530001Y147229999D01*
G75*
G02*
X137330001Y147029999I-200000J0D01*
G01*
X136930001Y147029999D01*
G75*
G02*
X136730001Y147229999I0J200000D01*
G01*
G37*
G36*
G01*
X135080001Y147229999D02*
X135080001Y147779999D01*
G75*
G02*
X135280001Y147979999I200000J0D01*
G01*
X135680001Y147979999D01*
G75*
G02*
X135880001Y147779999I0J-200000D01*
G01*
X135880001Y147229999D01*
G75*
G02*
X135680001Y147029999I-200000J0D01*
G01*
X135280001Y147029999D01*
G75*
G02*
X135080001Y147229999I0J200000D01*
G01*
G37*
%TD*%
%TO.C,R65*%
G36*
G01*
X130190001Y140639999D02*
X130190001Y141189999D01*
G75*
G02*
X130390001Y141389999I200000J0D01*
G01*
X130790001Y141389999D01*
G75*
G02*
X130990001Y141189999I0J-200000D01*
G01*
X130990001Y140639999D01*
G75*
G02*
X130790001Y140439999I-200000J0D01*
G01*
X130390001Y140439999D01*
G75*
G02*
X130190001Y140639999I0J200000D01*
G01*
G37*
G36*
G01*
X131840001Y140639999D02*
X131840001Y141189999D01*
G75*
G02*
X132040001Y141389999I200000J0D01*
G01*
X132440001Y141389999D01*
G75*
G02*
X132640001Y141189999I0J-200000D01*
G01*
X132640001Y140639999D01*
G75*
G02*
X132440001Y140439999I-200000J0D01*
G01*
X132040001Y140439999D01*
G75*
G02*
X131840001Y140639999I0J200000D01*
G01*
G37*
%TD*%
%TO.C,R66*%
G36*
G01*
X140740001Y149819999D02*
X140740001Y150369999D01*
G75*
G02*
X140940001Y150569999I200000J0D01*
G01*
X141340001Y150569999D01*
G75*
G02*
X141540001Y150369999I0J-200000D01*
G01*
X141540001Y149819999D01*
G75*
G02*
X141340001Y149619999I-200000J0D01*
G01*
X140940001Y149619999D01*
G75*
G02*
X140740001Y149819999I0J200000D01*
G01*
G37*
G36*
G01*
X139090001Y149819999D02*
X139090001Y150369999D01*
G75*
G02*
X139290001Y150569999I200000J0D01*
G01*
X139690001Y150569999D01*
G75*
G02*
X139890001Y150369999I0J-200000D01*
G01*
X139890001Y149819999D01*
G75*
G02*
X139690001Y149619999I-200000J0D01*
G01*
X139290001Y149619999D01*
G75*
G02*
X139090001Y149819999I0J200000D01*
G01*
G37*
%TD*%
%TO.C,R67*%
G36*
G01*
X128690001Y138129999D02*
X128690001Y138679999D01*
G75*
G02*
X128890001Y138879999I200000J0D01*
G01*
X129290001Y138879999D01*
G75*
G02*
X129490001Y138679999I0J-200000D01*
G01*
X129490001Y138129999D01*
G75*
G02*
X129290001Y137929999I-200000J0D01*
G01*
X128890001Y137929999D01*
G75*
G02*
X128690001Y138129999I0J200000D01*
G01*
G37*
G36*
G01*
X127040001Y138129999D02*
X127040001Y138679999D01*
G75*
G02*
X127240001Y138879999I200000J0D01*
G01*
X127640001Y138879999D01*
G75*
G02*
X127840001Y138679999I0J-200000D01*
G01*
X127840001Y138129999D01*
G75*
G02*
X127640001Y137929999I-200000J0D01*
G01*
X127240001Y137929999D01*
G75*
G02*
X127040001Y138129999I0J200000D01*
G01*
G37*
%TD*%
%TO.C,R68*%
G36*
G01*
X140740001Y147309999D02*
X140740001Y147859999D01*
G75*
G02*
X140940001Y148059999I200000J0D01*
G01*
X141340001Y148059999D01*
G75*
G02*
X141540001Y147859999I0J-200000D01*
G01*
X141540001Y147309999D01*
G75*
G02*
X141340001Y147109999I-200000J0D01*
G01*
X140940001Y147109999D01*
G75*
G02*
X140740001Y147309999I0J200000D01*
G01*
G37*
G36*
G01*
X139090001Y147309999D02*
X139090001Y147859999D01*
G75*
G02*
X139290001Y148059999I200000J0D01*
G01*
X139690001Y148059999D01*
G75*
G02*
X139890001Y147859999I0J-200000D01*
G01*
X139890001Y147309999D01*
G75*
G02*
X139690001Y147109999I-200000J0D01*
G01*
X139290001Y147109999D01*
G75*
G02*
X139090001Y147309999I0J200000D01*
G01*
G37*
%TD*%
%TO.C,R69*%
G36*
G01*
X135850001Y140719999D02*
X135850001Y141269999D01*
G75*
G02*
X136050001Y141469999I200000J0D01*
G01*
X136450001Y141469999D01*
G75*
G02*
X136650001Y141269999I0J-200000D01*
G01*
X136650001Y140719999D01*
G75*
G02*
X136450001Y140519999I-200000J0D01*
G01*
X136050001Y140519999D01*
G75*
G02*
X135850001Y140719999I0J200000D01*
G01*
G37*
G36*
G01*
X134200001Y140719999D02*
X134200001Y141269999D01*
G75*
G02*
X134400001Y141469999I200000J0D01*
G01*
X134800001Y141469999D01*
G75*
G02*
X135000001Y141269999I0J-200000D01*
G01*
X135000001Y140719999D01*
G75*
G02*
X134800001Y140519999I-200000J0D01*
G01*
X134400001Y140519999D01*
G75*
G02*
X134200001Y140719999I0J200000D01*
G01*
G37*
%TD*%
%TO.C,R70*%
G36*
G01*
X138290001Y144719999D02*
X138290001Y145269999D01*
G75*
G02*
X138490001Y145469999I200000J0D01*
G01*
X138890001Y145469999D01*
G75*
G02*
X139090001Y145269999I0J-200000D01*
G01*
X139090001Y144719999D01*
G75*
G02*
X138890001Y144519999I-200000J0D01*
G01*
X138490001Y144519999D01*
G75*
G02*
X138290001Y144719999I0J200000D01*
G01*
G37*
G36*
G01*
X139940001Y144719999D02*
X139940001Y145269999D01*
G75*
G02*
X140140001Y145469999I200000J0D01*
G01*
X140540001Y145469999D01*
G75*
G02*
X140740001Y145269999I0J-200000D01*
G01*
X140740001Y144719999D01*
G75*
G02*
X140540001Y144519999I-200000J0D01*
G01*
X140140001Y144519999D01*
G75*
G02*
X139940001Y144719999I0J200000D01*
G01*
G37*
%TD*%
%TO.C,R71*%
G36*
G01*
X138210001Y142209999D02*
X138210001Y142759999D01*
G75*
G02*
X138410001Y142959999I200000J0D01*
G01*
X138810001Y142959999D01*
G75*
G02*
X139010001Y142759999I0J-200000D01*
G01*
X139010001Y142209999D01*
G75*
G02*
X138810001Y142009999I-200000J0D01*
G01*
X138410001Y142009999D01*
G75*
G02*
X138210001Y142209999I0J200000D01*
G01*
G37*
G36*
G01*
X139860001Y142209999D02*
X139860001Y142759999D01*
G75*
G02*
X140060001Y142959999I200000J0D01*
G01*
X140460001Y142959999D01*
G75*
G02*
X140660001Y142759999I0J-200000D01*
G01*
X140660001Y142209999D01*
G75*
G02*
X140460001Y142009999I-200000J0D01*
G01*
X140060001Y142009999D01*
G75*
G02*
X139860001Y142209999I0J200000D01*
G01*
G37*
%TD*%
%TO.C,R72*%
G36*
G01*
X139130001Y152329999D02*
X139130001Y152879999D01*
G75*
G02*
X139330001Y153079999I200000J0D01*
G01*
X139730001Y153079999D01*
G75*
G02*
X139930001Y152879999I0J-200000D01*
G01*
X139930001Y152329999D01*
G75*
G02*
X139730001Y152129999I-200000J0D01*
G01*
X139330001Y152129999D01*
G75*
G02*
X139130001Y152329999I0J200000D01*
G01*
G37*
G36*
G01*
X140780001Y152329999D02*
X140780001Y152879999D01*
G75*
G02*
X140980001Y153079999I200000J0D01*
G01*
X141380001Y153079999D01*
G75*
G02*
X141580001Y152879999I0J-200000D01*
G01*
X141580001Y152329999D01*
G75*
G02*
X141380001Y152129999I-200000J0D01*
G01*
X140980001Y152129999D01*
G75*
G02*
X140780001Y152329999I0J200000D01*
G01*
G37*
%TD*%
%TO.C,R73*%
G36*
G01*
X134280001Y144719999D02*
X134280001Y145269999D01*
G75*
G02*
X134480001Y145469999I200000J0D01*
G01*
X134880001Y145469999D01*
G75*
G02*
X135080001Y145269999I0J-200000D01*
G01*
X135080001Y144719999D01*
G75*
G02*
X134880001Y144519999I-200000J0D01*
G01*
X134480001Y144519999D01*
G75*
G02*
X134280001Y144719999I0J200000D01*
G01*
G37*
G36*
G01*
X135930001Y144719999D02*
X135930001Y145269999D01*
G75*
G02*
X136130001Y145469999I200000J0D01*
G01*
X136530001Y145469999D01*
G75*
G02*
X136730001Y145269999I0J-200000D01*
G01*
X136730001Y144719999D01*
G75*
G02*
X136530001Y144519999I-200000J0D01*
G01*
X136130001Y144519999D01*
G75*
G02*
X135930001Y144719999I0J200000D01*
G01*
G37*
%TD*%
%TO.C,R74*%
G36*
G01*
X64810001Y149819999D02*
X64810001Y150369999D01*
G75*
G02*
X65010001Y150569999I200000J0D01*
G01*
X65410001Y150569999D01*
G75*
G02*
X65610001Y150369999I0J-200000D01*
G01*
X65610001Y149819999D01*
G75*
G02*
X65410001Y149619999I-200000J0D01*
G01*
X65010001Y149619999D01*
G75*
G02*
X64810001Y149819999I0J200000D01*
G01*
G37*
G36*
G01*
X66460001Y149819999D02*
X66460001Y150369999D01*
G75*
G02*
X66660001Y150569999I200000J0D01*
G01*
X67060001Y150569999D01*
G75*
G02*
X67260001Y150369999I0J-200000D01*
G01*
X67260001Y149819999D01*
G75*
G02*
X67060001Y149619999I-200000J0D01*
G01*
X66660001Y149619999D01*
G75*
G02*
X66460001Y149819999I0J200000D01*
G01*
G37*
%TD*%
%TO.C,R75*%
G36*
G01*
X64810001Y147309999D02*
X64810001Y147859999D01*
G75*
G02*
X65010001Y148059999I200000J0D01*
G01*
X65410001Y148059999D01*
G75*
G02*
X65610001Y147859999I0J-200000D01*
G01*
X65610001Y147309999D01*
G75*
G02*
X65410001Y147109999I-200000J0D01*
G01*
X65010001Y147109999D01*
G75*
G02*
X64810001Y147309999I0J200000D01*
G01*
G37*
G36*
G01*
X66460001Y147309999D02*
X66460001Y147859999D01*
G75*
G02*
X66660001Y148059999I200000J0D01*
G01*
X67060001Y148059999D01*
G75*
G02*
X67260001Y147859999I0J-200000D01*
G01*
X67260001Y147309999D01*
G75*
G02*
X67060001Y147109999I-200000J0D01*
G01*
X66660001Y147109999D01*
G75*
G02*
X66460001Y147309999I0J200000D01*
G01*
G37*
%TD*%
%TO.C,R76*%
G36*
G01*
X66460001Y144799999D02*
X66460001Y145349999D01*
G75*
G02*
X66660001Y145549999I200000J0D01*
G01*
X67060001Y145549999D01*
G75*
G02*
X67260001Y145349999I0J-200000D01*
G01*
X67260001Y144799999D01*
G75*
G02*
X67060001Y144599999I-200000J0D01*
G01*
X66660001Y144599999D01*
G75*
G02*
X66460001Y144799999I0J200000D01*
G01*
G37*
G36*
G01*
X64810001Y144799999D02*
X64810001Y145349999D01*
G75*
G02*
X65010001Y145549999I200000J0D01*
G01*
X65410001Y145549999D01*
G75*
G02*
X65610001Y145349999I0J-200000D01*
G01*
X65610001Y144799999D01*
G75*
G02*
X65410001Y144599999I-200000J0D01*
G01*
X65010001Y144599999D01*
G75*
G02*
X64810001Y144799999I0J200000D01*
G01*
G37*
%TD*%
%TO.C,R77*%
G36*
G01*
X23980001Y126899999D02*
X23980001Y127449999D01*
G75*
G02*
X24180001Y127649999I200000J0D01*
G01*
X24580001Y127649999D01*
G75*
G02*
X24780001Y127449999I0J-200000D01*
G01*
X24780001Y126899999D01*
G75*
G02*
X24580001Y126699999I-200000J0D01*
G01*
X24180001Y126699999D01*
G75*
G02*
X23980001Y126899999I0J200000D01*
G01*
G37*
G36*
G01*
X22330001Y126899999D02*
X22330001Y127449999D01*
G75*
G02*
X22530001Y127649999I200000J0D01*
G01*
X22930001Y127649999D01*
G75*
G02*
X23130001Y127449999I0J-200000D01*
G01*
X23130001Y126899999D01*
G75*
G02*
X22930001Y126699999I-200000J0D01*
G01*
X22530001Y126699999D01*
G75*
G02*
X22330001Y126899999I0J200000D01*
G01*
G37*
%TD*%
%TO.C,R78*%
G36*
G01*
X66460001Y142289999D02*
X66460001Y142839999D01*
G75*
G02*
X66660001Y143039999I200000J0D01*
G01*
X67060001Y143039999D01*
G75*
G02*
X67260001Y142839999I0J-200000D01*
G01*
X67260001Y142289999D01*
G75*
G02*
X67060001Y142089999I-200000J0D01*
G01*
X66660001Y142089999D01*
G75*
G02*
X66460001Y142289999I0J200000D01*
G01*
G37*
G36*
G01*
X64810001Y142289999D02*
X64810001Y142839999D01*
G75*
G02*
X65010001Y143039999I200000J0D01*
G01*
X65410001Y143039999D01*
G75*
G02*
X65610001Y142839999I0J-200000D01*
G01*
X65610001Y142289999D01*
G75*
G02*
X65410001Y142089999I-200000J0D01*
G01*
X65010001Y142089999D01*
G75*
G02*
X64810001Y142289999I0J200000D01*
G01*
G37*
%TD*%
%TO.C,R79*%
G36*
G01*
X64810001Y152329999D02*
X64810001Y152879999D01*
G75*
G02*
X65010001Y153079999I200000J0D01*
G01*
X65410001Y153079999D01*
G75*
G02*
X65610001Y152879999I0J-200000D01*
G01*
X65610001Y152329999D01*
G75*
G02*
X65410001Y152129999I-200000J0D01*
G01*
X65010001Y152129999D01*
G75*
G02*
X64810001Y152329999I0J200000D01*
G01*
G37*
G36*
G01*
X66460001Y152329999D02*
X66460001Y152879999D01*
G75*
G02*
X66660001Y153079999I200000J0D01*
G01*
X67060001Y153079999D01*
G75*
G02*
X67260001Y152879999I0J-200000D01*
G01*
X67260001Y152329999D01*
G75*
G02*
X67060001Y152129999I-200000J0D01*
G01*
X66660001Y152129999D01*
G75*
G02*
X66460001Y152329999I0J200000D01*
G01*
G37*
%TD*%
D25*
%TO.C,U1*%
X74405001Y149934999D03*
D26*
X76945001Y149934999D03*
X79485001Y149934999D03*
%TD*%
D27*
%TO.C,U2*%
X100345001Y149734999D03*
D28*
X94045001Y149734999D03*
X94045001Y147434999D03*
X94045001Y152034999D03*
%TD*%
D29*
%TO.C,U3*%
X82575001Y136784999D03*
X82575001Y135834999D03*
X82575001Y134884999D03*
X85275001Y134884999D03*
X85275001Y136784999D03*
%TD*%
%TO.C,U4*%
G36*
G01*
X116600001Y182599999D02*
X116600001Y182899999D01*
G75*
G02*
X116750001Y183049999I150000J0D01*
G01*
X118500001Y183049999D01*
G75*
G02*
X118650001Y182899999I0J-150000D01*
G01*
X118650001Y182599999D01*
G75*
G02*
X118500001Y182449999I-150000J0D01*
G01*
X116750001Y182449999D01*
G75*
G02*
X116600001Y182599999I0J150000D01*
G01*
G37*
G36*
G01*
X116600001Y181329999D02*
X116600001Y181629999D01*
G75*
G02*
X116750001Y181779999I150000J0D01*
G01*
X118500001Y181779999D01*
G75*
G02*
X118650001Y181629999I0J-150000D01*
G01*
X118650001Y181329999D01*
G75*
G02*
X118500001Y181179999I-150000J0D01*
G01*
X116750001Y181179999D01*
G75*
G02*
X116600001Y181329999I0J150000D01*
G01*
G37*
G36*
G01*
X116600001Y180059999D02*
X116600001Y180359999D01*
G75*
G02*
X116750001Y180509999I150000J0D01*
G01*
X118500001Y180509999D01*
G75*
G02*
X118650001Y180359999I0J-150000D01*
G01*
X118650001Y180059999D01*
G75*
G02*
X118500001Y179909999I-150000J0D01*
G01*
X116750001Y179909999D01*
G75*
G02*
X116600001Y180059999I0J150000D01*
G01*
G37*
G36*
G01*
X116600001Y178789999D02*
X116600001Y179089999D01*
G75*
G02*
X116750001Y179239999I150000J0D01*
G01*
X118500001Y179239999D01*
G75*
G02*
X118650001Y179089999I0J-150000D01*
G01*
X118650001Y178789999D01*
G75*
G02*
X118500001Y178639999I-150000J0D01*
G01*
X116750001Y178639999D01*
G75*
G02*
X116600001Y178789999I0J150000D01*
G01*
G37*
G36*
G01*
X116600001Y177519999D02*
X116600001Y177819999D01*
G75*
G02*
X116750001Y177969999I150000J0D01*
G01*
X118500001Y177969999D01*
G75*
G02*
X118650001Y177819999I0J-150000D01*
G01*
X118650001Y177519999D01*
G75*
G02*
X118500001Y177369999I-150000J0D01*
G01*
X116750001Y177369999D01*
G75*
G02*
X116600001Y177519999I0J150000D01*
G01*
G37*
G36*
G01*
X116600001Y176249999D02*
X116600001Y176549999D01*
G75*
G02*
X116750001Y176699999I150000J0D01*
G01*
X118500001Y176699999D01*
G75*
G02*
X118650001Y176549999I0J-150000D01*
G01*
X118650001Y176249999D01*
G75*
G02*
X118500001Y176099999I-150000J0D01*
G01*
X116750001Y176099999D01*
G75*
G02*
X116600001Y176249999I0J150000D01*
G01*
G37*
G36*
G01*
X116600001Y174979999D02*
X116600001Y175279999D01*
G75*
G02*
X116750001Y175429999I150000J0D01*
G01*
X118500001Y175429999D01*
G75*
G02*
X118650001Y175279999I0J-150000D01*
G01*
X118650001Y174979999D01*
G75*
G02*
X118500001Y174829999I-150000J0D01*
G01*
X116750001Y174829999D01*
G75*
G02*
X116600001Y174979999I0J150000D01*
G01*
G37*
G36*
G01*
X116600001Y173709999D02*
X116600001Y174009999D01*
G75*
G02*
X116750001Y174159999I150000J0D01*
G01*
X118500001Y174159999D01*
G75*
G02*
X118650001Y174009999I0J-150000D01*
G01*
X118650001Y173709999D01*
G75*
G02*
X118500001Y173559999I-150000J0D01*
G01*
X116750001Y173559999D01*
G75*
G02*
X116600001Y173709999I0J150000D01*
G01*
G37*
G36*
G01*
X116600001Y172439999D02*
X116600001Y172739999D01*
G75*
G02*
X116750001Y172889999I150000J0D01*
G01*
X118500001Y172889999D01*
G75*
G02*
X118650001Y172739999I0J-150000D01*
G01*
X118650001Y172439999D01*
G75*
G02*
X118500001Y172289999I-150000J0D01*
G01*
X116750001Y172289999D01*
G75*
G02*
X116600001Y172439999I0J150000D01*
G01*
G37*
G36*
G01*
X116600001Y171169999D02*
X116600001Y171469999D01*
G75*
G02*
X116750001Y171619999I150000J0D01*
G01*
X118500001Y171619999D01*
G75*
G02*
X118650001Y171469999I0J-150000D01*
G01*
X118650001Y171169999D01*
G75*
G02*
X118500001Y171019999I-150000J0D01*
G01*
X116750001Y171019999D01*
G75*
G02*
X116600001Y171169999I0J150000D01*
G01*
G37*
G36*
G01*
X116600001Y169899999D02*
X116600001Y170199999D01*
G75*
G02*
X116750001Y170349999I150000J0D01*
G01*
X118500001Y170349999D01*
G75*
G02*
X118650001Y170199999I0J-150000D01*
G01*
X118650001Y169899999D01*
G75*
G02*
X118500001Y169749999I-150000J0D01*
G01*
X116750001Y169749999D01*
G75*
G02*
X116600001Y169899999I0J150000D01*
G01*
G37*
G36*
G01*
X116600001Y168629999D02*
X116600001Y168929999D01*
G75*
G02*
X116750001Y169079999I150000J0D01*
G01*
X118500001Y169079999D01*
G75*
G02*
X118650001Y168929999I0J-150000D01*
G01*
X118650001Y168629999D01*
G75*
G02*
X118500001Y168479999I-150000J0D01*
G01*
X116750001Y168479999D01*
G75*
G02*
X116600001Y168629999I0J150000D01*
G01*
G37*
G36*
G01*
X116600001Y167359999D02*
X116600001Y167659999D01*
G75*
G02*
X116750001Y167809999I150000J0D01*
G01*
X118500001Y167809999D01*
G75*
G02*
X118650001Y167659999I0J-150000D01*
G01*
X118650001Y167359999D01*
G75*
G02*
X118500001Y167209999I-150000J0D01*
G01*
X116750001Y167209999D01*
G75*
G02*
X116600001Y167359999I0J150000D01*
G01*
G37*
G36*
G01*
X116600001Y166089999D02*
X116600001Y166389999D01*
G75*
G02*
X116750001Y166539999I150000J0D01*
G01*
X118500001Y166539999D01*
G75*
G02*
X118650001Y166389999I0J-150000D01*
G01*
X118650001Y166089999D01*
G75*
G02*
X118500001Y165939999I-150000J0D01*
G01*
X116750001Y165939999D01*
G75*
G02*
X116600001Y166089999I0J150000D01*
G01*
G37*
G36*
G01*
X125900001Y166089999D02*
X125900001Y166389999D01*
G75*
G02*
X126050001Y166539999I150000J0D01*
G01*
X127800001Y166539999D01*
G75*
G02*
X127950001Y166389999I0J-150000D01*
G01*
X127950001Y166089999D01*
G75*
G02*
X127800001Y165939999I-150000J0D01*
G01*
X126050001Y165939999D01*
G75*
G02*
X125900001Y166089999I0J150000D01*
G01*
G37*
G36*
G01*
X125900001Y167359999D02*
X125900001Y167659999D01*
G75*
G02*
X126050001Y167809999I150000J0D01*
G01*
X127800001Y167809999D01*
G75*
G02*
X127950001Y167659999I0J-150000D01*
G01*
X127950001Y167359999D01*
G75*
G02*
X127800001Y167209999I-150000J0D01*
G01*
X126050001Y167209999D01*
G75*
G02*
X125900001Y167359999I0J150000D01*
G01*
G37*
G36*
G01*
X125900001Y168629999D02*
X125900001Y168929999D01*
G75*
G02*
X126050001Y169079999I150000J0D01*
G01*
X127800001Y169079999D01*
G75*
G02*
X127950001Y168929999I0J-150000D01*
G01*
X127950001Y168629999D01*
G75*
G02*
X127800001Y168479999I-150000J0D01*
G01*
X126050001Y168479999D01*
G75*
G02*
X125900001Y168629999I0J150000D01*
G01*
G37*
G36*
G01*
X125900001Y169899999D02*
X125900001Y170199999D01*
G75*
G02*
X126050001Y170349999I150000J0D01*
G01*
X127800001Y170349999D01*
G75*
G02*
X127950001Y170199999I0J-150000D01*
G01*
X127950001Y169899999D01*
G75*
G02*
X127800001Y169749999I-150000J0D01*
G01*
X126050001Y169749999D01*
G75*
G02*
X125900001Y169899999I0J150000D01*
G01*
G37*
G36*
G01*
X125900001Y171169999D02*
X125900001Y171469999D01*
G75*
G02*
X126050001Y171619999I150000J0D01*
G01*
X127800001Y171619999D01*
G75*
G02*
X127950001Y171469999I0J-150000D01*
G01*
X127950001Y171169999D01*
G75*
G02*
X127800001Y171019999I-150000J0D01*
G01*
X126050001Y171019999D01*
G75*
G02*
X125900001Y171169999I0J150000D01*
G01*
G37*
G36*
G01*
X125900001Y172439999D02*
X125900001Y172739999D01*
G75*
G02*
X126050001Y172889999I150000J0D01*
G01*
X127800001Y172889999D01*
G75*
G02*
X127950001Y172739999I0J-150000D01*
G01*
X127950001Y172439999D01*
G75*
G02*
X127800001Y172289999I-150000J0D01*
G01*
X126050001Y172289999D01*
G75*
G02*
X125900001Y172439999I0J150000D01*
G01*
G37*
G36*
G01*
X125900001Y173709999D02*
X125900001Y174009999D01*
G75*
G02*
X126050001Y174159999I150000J0D01*
G01*
X127800001Y174159999D01*
G75*
G02*
X127950001Y174009999I0J-150000D01*
G01*
X127950001Y173709999D01*
G75*
G02*
X127800001Y173559999I-150000J0D01*
G01*
X126050001Y173559999D01*
G75*
G02*
X125900001Y173709999I0J150000D01*
G01*
G37*
G36*
G01*
X125900001Y174979999D02*
X125900001Y175279999D01*
G75*
G02*
X126050001Y175429999I150000J0D01*
G01*
X127800001Y175429999D01*
G75*
G02*
X127950001Y175279999I0J-150000D01*
G01*
X127950001Y174979999D01*
G75*
G02*
X127800001Y174829999I-150000J0D01*
G01*
X126050001Y174829999D01*
G75*
G02*
X125900001Y174979999I0J150000D01*
G01*
G37*
G36*
G01*
X125900001Y176249999D02*
X125900001Y176549999D01*
G75*
G02*
X126050001Y176699999I150000J0D01*
G01*
X127800001Y176699999D01*
G75*
G02*
X127950001Y176549999I0J-150000D01*
G01*
X127950001Y176249999D01*
G75*
G02*
X127800001Y176099999I-150000J0D01*
G01*
X126050001Y176099999D01*
G75*
G02*
X125900001Y176249999I0J150000D01*
G01*
G37*
G36*
G01*
X125900001Y177519999D02*
X125900001Y177819999D01*
G75*
G02*
X126050001Y177969999I150000J0D01*
G01*
X127800001Y177969999D01*
G75*
G02*
X127950001Y177819999I0J-150000D01*
G01*
X127950001Y177519999D01*
G75*
G02*
X127800001Y177369999I-150000J0D01*
G01*
X126050001Y177369999D01*
G75*
G02*
X125900001Y177519999I0J150000D01*
G01*
G37*
G36*
G01*
X125900001Y178789999D02*
X125900001Y179089999D01*
G75*
G02*
X126050001Y179239999I150000J0D01*
G01*
X127800001Y179239999D01*
G75*
G02*
X127950001Y179089999I0J-150000D01*
G01*
X127950001Y178789999D01*
G75*
G02*
X127800001Y178639999I-150000J0D01*
G01*
X126050001Y178639999D01*
G75*
G02*
X125900001Y178789999I0J150000D01*
G01*
G37*
G36*
G01*
X125900001Y180059999D02*
X125900001Y180359999D01*
G75*
G02*
X126050001Y180509999I150000J0D01*
G01*
X127800001Y180509999D01*
G75*
G02*
X127950001Y180359999I0J-150000D01*
G01*
X127950001Y180059999D01*
G75*
G02*
X127800001Y179909999I-150000J0D01*
G01*
X126050001Y179909999D01*
G75*
G02*
X125900001Y180059999I0J150000D01*
G01*
G37*
G36*
G01*
X125900001Y181329999D02*
X125900001Y181629999D01*
G75*
G02*
X126050001Y181779999I150000J0D01*
G01*
X127800001Y181779999D01*
G75*
G02*
X127950001Y181629999I0J-150000D01*
G01*
X127950001Y181329999D01*
G75*
G02*
X127800001Y181179999I-150000J0D01*
G01*
X126050001Y181179999D01*
G75*
G02*
X125900001Y181329999I0J150000D01*
G01*
G37*
G36*
G01*
X125900001Y182599999D02*
X125900001Y182899999D01*
G75*
G02*
X126050001Y183049999I150000J0D01*
G01*
X127800001Y183049999D01*
G75*
G02*
X127950001Y182899999I0J-150000D01*
G01*
X127950001Y182599999D01*
G75*
G02*
X127800001Y182449999I-150000J0D01*
G01*
X126050001Y182449999D01*
G75*
G02*
X125900001Y182599999I0J150000D01*
G01*
G37*
%TD*%
D30*
%TO.C,U5*%
X51235001Y209149999D03*
X51235001Y208499999D03*
X51235001Y207849999D03*
X51235001Y207199999D03*
X55535001Y207199999D03*
X55535001Y207849999D03*
X55535001Y208499999D03*
X55535001Y209149999D03*
%TD*%
%TO.C,U6*%
G36*
G01*
X42235001Y209054999D02*
X42235001Y209354999D01*
G75*
G02*
X42385001Y209504999I150000J0D01*
G01*
X44035001Y209504999D01*
G75*
G02*
X44185001Y209354999I0J-150000D01*
G01*
X44185001Y209054999D01*
G75*
G02*
X44035001Y208904999I-150000J0D01*
G01*
X42385001Y208904999D01*
G75*
G02*
X42235001Y209054999I0J150000D01*
G01*
G37*
G36*
G01*
X42235001Y207784999D02*
X42235001Y208084999D01*
G75*
G02*
X42385001Y208234999I150000J0D01*
G01*
X44035001Y208234999D01*
G75*
G02*
X44185001Y208084999I0J-150000D01*
G01*
X44185001Y207784999D01*
G75*
G02*
X44035001Y207634999I-150000J0D01*
G01*
X42385001Y207634999D01*
G75*
G02*
X42235001Y207784999I0J150000D01*
G01*
G37*
G36*
G01*
X42235001Y206514999D02*
X42235001Y206814999D01*
G75*
G02*
X42385001Y206964999I150000J0D01*
G01*
X44035001Y206964999D01*
G75*
G02*
X44185001Y206814999I0J-150000D01*
G01*
X44185001Y206514999D01*
G75*
G02*
X44035001Y206364999I-150000J0D01*
G01*
X42385001Y206364999D01*
G75*
G02*
X42235001Y206514999I0J150000D01*
G01*
G37*
G36*
G01*
X42235001Y205244999D02*
X42235001Y205544999D01*
G75*
G02*
X42385001Y205694999I150000J0D01*
G01*
X44035001Y205694999D01*
G75*
G02*
X44185001Y205544999I0J-150000D01*
G01*
X44185001Y205244999D01*
G75*
G02*
X44035001Y205094999I-150000J0D01*
G01*
X42385001Y205094999D01*
G75*
G02*
X42235001Y205244999I0J150000D01*
G01*
G37*
G36*
G01*
X42235001Y203974999D02*
X42235001Y204274999D01*
G75*
G02*
X42385001Y204424999I150000J0D01*
G01*
X44035001Y204424999D01*
G75*
G02*
X44185001Y204274999I0J-150000D01*
G01*
X44185001Y203974999D01*
G75*
G02*
X44035001Y203824999I-150000J0D01*
G01*
X42385001Y203824999D01*
G75*
G02*
X42235001Y203974999I0J150000D01*
G01*
G37*
G36*
G01*
X42235001Y202704999D02*
X42235001Y203004999D01*
G75*
G02*
X42385001Y203154999I150000J0D01*
G01*
X44035001Y203154999D01*
G75*
G02*
X44185001Y203004999I0J-150000D01*
G01*
X44185001Y202704999D01*
G75*
G02*
X44035001Y202554999I-150000J0D01*
G01*
X42385001Y202554999D01*
G75*
G02*
X42235001Y202704999I0J150000D01*
G01*
G37*
G36*
G01*
X42235001Y201434999D02*
X42235001Y201734999D01*
G75*
G02*
X42385001Y201884999I150000J0D01*
G01*
X44035001Y201884999D01*
G75*
G02*
X44185001Y201734999I0J-150000D01*
G01*
X44185001Y201434999D01*
G75*
G02*
X44035001Y201284999I-150000J0D01*
G01*
X42385001Y201284999D01*
G75*
G02*
X42235001Y201434999I0J150000D01*
G01*
G37*
G36*
G01*
X47185001Y201434999D02*
X47185001Y201734999D01*
G75*
G02*
X47335001Y201884999I150000J0D01*
G01*
X48985001Y201884999D01*
G75*
G02*
X49135001Y201734999I0J-150000D01*
G01*
X49135001Y201434999D01*
G75*
G02*
X48985001Y201284999I-150000J0D01*
G01*
X47335001Y201284999D01*
G75*
G02*
X47185001Y201434999I0J150000D01*
G01*
G37*
G36*
G01*
X47185001Y202704999D02*
X47185001Y203004999D01*
G75*
G02*
X47335001Y203154999I150000J0D01*
G01*
X48985001Y203154999D01*
G75*
G02*
X49135001Y203004999I0J-150000D01*
G01*
X49135001Y202704999D01*
G75*
G02*
X48985001Y202554999I-150000J0D01*
G01*
X47335001Y202554999D01*
G75*
G02*
X47185001Y202704999I0J150000D01*
G01*
G37*
G36*
G01*
X47185001Y203974999D02*
X47185001Y204274999D01*
G75*
G02*
X47335001Y204424999I150000J0D01*
G01*
X48985001Y204424999D01*
G75*
G02*
X49135001Y204274999I0J-150000D01*
G01*
X49135001Y203974999D01*
G75*
G02*
X48985001Y203824999I-150000J0D01*
G01*
X47335001Y203824999D01*
G75*
G02*
X47185001Y203974999I0J150000D01*
G01*
G37*
G36*
G01*
X47185001Y205244999D02*
X47185001Y205544999D01*
G75*
G02*
X47335001Y205694999I150000J0D01*
G01*
X48985001Y205694999D01*
G75*
G02*
X49135001Y205544999I0J-150000D01*
G01*
X49135001Y205244999D01*
G75*
G02*
X48985001Y205094999I-150000J0D01*
G01*
X47335001Y205094999D01*
G75*
G02*
X47185001Y205244999I0J150000D01*
G01*
G37*
G36*
G01*
X47185001Y206514999D02*
X47185001Y206814999D01*
G75*
G02*
X47335001Y206964999I150000J0D01*
G01*
X48985001Y206964999D01*
G75*
G02*
X49135001Y206814999I0J-150000D01*
G01*
X49135001Y206514999D01*
G75*
G02*
X48985001Y206364999I-150000J0D01*
G01*
X47335001Y206364999D01*
G75*
G02*
X47185001Y206514999I0J150000D01*
G01*
G37*
G36*
G01*
X47185001Y207784999D02*
X47185001Y208084999D01*
G75*
G02*
X47335001Y208234999I150000J0D01*
G01*
X48985001Y208234999D01*
G75*
G02*
X49135001Y208084999I0J-150000D01*
G01*
X49135001Y207784999D01*
G75*
G02*
X48985001Y207634999I-150000J0D01*
G01*
X47335001Y207634999D01*
G75*
G02*
X47185001Y207784999I0J150000D01*
G01*
G37*
G36*
G01*
X47185001Y209054999D02*
X47185001Y209354999D01*
G75*
G02*
X47335001Y209504999I150000J0D01*
G01*
X48985001Y209504999D01*
G75*
G02*
X49135001Y209354999I0J-150000D01*
G01*
X49135001Y209054999D01*
G75*
G02*
X48985001Y208904999I-150000J0D01*
G01*
X47335001Y208904999D01*
G75*
G02*
X47185001Y209054999I0J150000D01*
G01*
G37*
%TD*%
%TO.C,U7*%
G36*
G01*
X121545001Y192209999D02*
X121545001Y192509999D01*
G75*
G02*
X121695001Y192659999I150000J0D01*
G01*
X123345001Y192659999D01*
G75*
G02*
X123495001Y192509999I0J-150000D01*
G01*
X123495001Y192209999D01*
G75*
G02*
X123345001Y192059999I-150000J0D01*
G01*
X121695001Y192059999D01*
G75*
G02*
X121545001Y192209999I0J150000D01*
G01*
G37*
G36*
G01*
X121545001Y190939999D02*
X121545001Y191239999D01*
G75*
G02*
X121695001Y191389999I150000J0D01*
G01*
X123345001Y191389999D01*
G75*
G02*
X123495001Y191239999I0J-150000D01*
G01*
X123495001Y190939999D01*
G75*
G02*
X123345001Y190789999I-150000J0D01*
G01*
X121695001Y190789999D01*
G75*
G02*
X121545001Y190939999I0J150000D01*
G01*
G37*
G36*
G01*
X121545001Y189669999D02*
X121545001Y189969999D01*
G75*
G02*
X121695001Y190119999I150000J0D01*
G01*
X123345001Y190119999D01*
G75*
G02*
X123495001Y189969999I0J-150000D01*
G01*
X123495001Y189669999D01*
G75*
G02*
X123345001Y189519999I-150000J0D01*
G01*
X121695001Y189519999D01*
G75*
G02*
X121545001Y189669999I0J150000D01*
G01*
G37*
G36*
G01*
X121545001Y188399999D02*
X121545001Y188699999D01*
G75*
G02*
X121695001Y188849999I150000J0D01*
G01*
X123345001Y188849999D01*
G75*
G02*
X123495001Y188699999I0J-150000D01*
G01*
X123495001Y188399999D01*
G75*
G02*
X123345001Y188249999I-150000J0D01*
G01*
X121695001Y188249999D01*
G75*
G02*
X121545001Y188399999I0J150000D01*
G01*
G37*
G36*
G01*
X116595001Y188399999D02*
X116595001Y188699999D01*
G75*
G02*
X116745001Y188849999I150000J0D01*
G01*
X118395001Y188849999D01*
G75*
G02*
X118545001Y188699999I0J-150000D01*
G01*
X118545001Y188399999D01*
G75*
G02*
X118395001Y188249999I-150000J0D01*
G01*
X116745001Y188249999D01*
G75*
G02*
X116595001Y188399999I0J150000D01*
G01*
G37*
G36*
G01*
X116595001Y189669999D02*
X116595001Y189969999D01*
G75*
G02*
X116745001Y190119999I150000J0D01*
G01*
X118395001Y190119999D01*
G75*
G02*
X118545001Y189969999I0J-150000D01*
G01*
X118545001Y189669999D01*
G75*
G02*
X118395001Y189519999I-150000J0D01*
G01*
X116745001Y189519999D01*
G75*
G02*
X116595001Y189669999I0J150000D01*
G01*
G37*
G36*
G01*
X116595001Y190939999D02*
X116595001Y191239999D01*
G75*
G02*
X116745001Y191389999I150000J0D01*
G01*
X118395001Y191389999D01*
G75*
G02*
X118545001Y191239999I0J-150000D01*
G01*
X118545001Y190939999D01*
G75*
G02*
X118395001Y190789999I-150000J0D01*
G01*
X116745001Y190789999D01*
G75*
G02*
X116595001Y190939999I0J150000D01*
G01*
G37*
G36*
G01*
X116595001Y192209999D02*
X116595001Y192509999D01*
G75*
G02*
X116745001Y192659999I150000J0D01*
G01*
X118395001Y192659999D01*
G75*
G02*
X118545001Y192509999I0J-150000D01*
G01*
X118545001Y192209999D01*
G75*
G02*
X118395001Y192059999I-150000J0D01*
G01*
X116745001Y192059999D01*
G75*
G02*
X116595001Y192209999I0J150000D01*
G01*
G37*
%TD*%
%TO.C,U8*%
G36*
G01*
X135995001Y209029999D02*
X135995001Y209329999D01*
G75*
G02*
X136145001Y209479999I150000J0D01*
G01*
X137795001Y209479999D01*
G75*
G02*
X137945001Y209329999I0J-150000D01*
G01*
X137945001Y209029999D01*
G75*
G02*
X137795001Y208879999I-150000J0D01*
G01*
X136145001Y208879999D01*
G75*
G02*
X135995001Y209029999I0J150000D01*
G01*
G37*
G36*
G01*
X135995001Y207759999D02*
X135995001Y208059999D01*
G75*
G02*
X136145001Y208209999I150000J0D01*
G01*
X137795001Y208209999D01*
G75*
G02*
X137945001Y208059999I0J-150000D01*
G01*
X137945001Y207759999D01*
G75*
G02*
X137795001Y207609999I-150000J0D01*
G01*
X136145001Y207609999D01*
G75*
G02*
X135995001Y207759999I0J150000D01*
G01*
G37*
G36*
G01*
X135995001Y206489999D02*
X135995001Y206789999D01*
G75*
G02*
X136145001Y206939999I150000J0D01*
G01*
X137795001Y206939999D01*
G75*
G02*
X137945001Y206789999I0J-150000D01*
G01*
X137945001Y206489999D01*
G75*
G02*
X137795001Y206339999I-150000J0D01*
G01*
X136145001Y206339999D01*
G75*
G02*
X135995001Y206489999I0J150000D01*
G01*
G37*
G36*
G01*
X135995001Y205219999D02*
X135995001Y205519999D01*
G75*
G02*
X136145001Y205669999I150000J0D01*
G01*
X137795001Y205669999D01*
G75*
G02*
X137945001Y205519999I0J-150000D01*
G01*
X137945001Y205219999D01*
G75*
G02*
X137795001Y205069999I-150000J0D01*
G01*
X136145001Y205069999D01*
G75*
G02*
X135995001Y205219999I0J150000D01*
G01*
G37*
G36*
G01*
X140945001Y205219999D02*
X140945001Y205519999D01*
G75*
G02*
X141095001Y205669999I150000J0D01*
G01*
X142745001Y205669999D01*
G75*
G02*
X142895001Y205519999I0J-150000D01*
G01*
X142895001Y205219999D01*
G75*
G02*
X142745001Y205069999I-150000J0D01*
G01*
X141095001Y205069999D01*
G75*
G02*
X140945001Y205219999I0J150000D01*
G01*
G37*
G36*
G01*
X140945001Y206489999D02*
X140945001Y206789999D01*
G75*
G02*
X141095001Y206939999I150000J0D01*
G01*
X142745001Y206939999D01*
G75*
G02*
X142895001Y206789999I0J-150000D01*
G01*
X142895001Y206489999D01*
G75*
G02*
X142745001Y206339999I-150000J0D01*
G01*
X141095001Y206339999D01*
G75*
G02*
X140945001Y206489999I0J150000D01*
G01*
G37*
G36*
G01*
X140945001Y207759999D02*
X140945001Y208059999D01*
G75*
G02*
X141095001Y208209999I150000J0D01*
G01*
X142745001Y208209999D01*
G75*
G02*
X142895001Y208059999I0J-150000D01*
G01*
X142895001Y207759999D01*
G75*
G02*
X142745001Y207609999I-150000J0D01*
G01*
X141095001Y207609999D01*
G75*
G02*
X140945001Y207759999I0J150000D01*
G01*
G37*
G36*
G01*
X140945001Y209029999D02*
X140945001Y209329999D01*
G75*
G02*
X141095001Y209479999I150000J0D01*
G01*
X142745001Y209479999D01*
G75*
G02*
X142895001Y209329999I0J-150000D01*
G01*
X142895001Y209029999D01*
G75*
G02*
X142745001Y208879999I-150000J0D01*
G01*
X141095001Y208879999D01*
G75*
G02*
X140945001Y209029999I0J150000D01*
G01*
G37*
%TD*%
%TO.C,U9*%
G36*
G01*
X129995001Y192209999D02*
X129995001Y192509999D01*
G75*
G02*
X130145001Y192659999I150000J0D01*
G01*
X131795001Y192659999D01*
G75*
G02*
X131945001Y192509999I0J-150000D01*
G01*
X131945001Y192209999D01*
G75*
G02*
X131795001Y192059999I-150000J0D01*
G01*
X130145001Y192059999D01*
G75*
G02*
X129995001Y192209999I0J150000D01*
G01*
G37*
G36*
G01*
X129995001Y190939999D02*
X129995001Y191239999D01*
G75*
G02*
X130145001Y191389999I150000J0D01*
G01*
X131795001Y191389999D01*
G75*
G02*
X131945001Y191239999I0J-150000D01*
G01*
X131945001Y190939999D01*
G75*
G02*
X131795001Y190789999I-150000J0D01*
G01*
X130145001Y190789999D01*
G75*
G02*
X129995001Y190939999I0J150000D01*
G01*
G37*
G36*
G01*
X129995001Y189669999D02*
X129995001Y189969999D01*
G75*
G02*
X130145001Y190119999I150000J0D01*
G01*
X131795001Y190119999D01*
G75*
G02*
X131945001Y189969999I0J-150000D01*
G01*
X131945001Y189669999D01*
G75*
G02*
X131795001Y189519999I-150000J0D01*
G01*
X130145001Y189519999D01*
G75*
G02*
X129995001Y189669999I0J150000D01*
G01*
G37*
G36*
G01*
X129995001Y188399999D02*
X129995001Y188699999D01*
G75*
G02*
X130145001Y188849999I150000J0D01*
G01*
X131795001Y188849999D01*
G75*
G02*
X131945001Y188699999I0J-150000D01*
G01*
X131945001Y188399999D01*
G75*
G02*
X131795001Y188249999I-150000J0D01*
G01*
X130145001Y188249999D01*
G75*
G02*
X129995001Y188399999I0J150000D01*
G01*
G37*
G36*
G01*
X125045001Y188399999D02*
X125045001Y188699999D01*
G75*
G02*
X125195001Y188849999I150000J0D01*
G01*
X126845001Y188849999D01*
G75*
G02*
X126995001Y188699999I0J-150000D01*
G01*
X126995001Y188399999D01*
G75*
G02*
X126845001Y188249999I-150000J0D01*
G01*
X125195001Y188249999D01*
G75*
G02*
X125045001Y188399999I0J150000D01*
G01*
G37*
G36*
G01*
X125045001Y189669999D02*
X125045001Y189969999D01*
G75*
G02*
X125195001Y190119999I150000J0D01*
G01*
X126845001Y190119999D01*
G75*
G02*
X126995001Y189969999I0J-150000D01*
G01*
X126995001Y189669999D01*
G75*
G02*
X126845001Y189519999I-150000J0D01*
G01*
X125195001Y189519999D01*
G75*
G02*
X125045001Y189669999I0J150000D01*
G01*
G37*
G36*
G01*
X125045001Y190939999D02*
X125045001Y191239999D01*
G75*
G02*
X125195001Y191389999I150000J0D01*
G01*
X126845001Y191389999D01*
G75*
G02*
X126995001Y191239999I0J-150000D01*
G01*
X126995001Y190939999D01*
G75*
G02*
X126845001Y190789999I-150000J0D01*
G01*
X125195001Y190789999D01*
G75*
G02*
X125045001Y190939999I0J150000D01*
G01*
G37*
G36*
G01*
X125045001Y192209999D02*
X125045001Y192509999D01*
G75*
G02*
X125195001Y192659999I150000J0D01*
G01*
X126845001Y192659999D01*
G75*
G02*
X126995001Y192509999I0J-150000D01*
G01*
X126995001Y192209999D01*
G75*
G02*
X126845001Y192059999I-150000J0D01*
G01*
X125195001Y192059999D01*
G75*
G02*
X125045001Y192209999I0J150000D01*
G01*
G37*
%TD*%
%TO.C,U10*%
G36*
G01*
X135995001Y202579999D02*
X135995001Y202879999D01*
G75*
G02*
X136145001Y203029999I150000J0D01*
G01*
X137795001Y203029999D01*
G75*
G02*
X137945001Y202879999I0J-150000D01*
G01*
X137945001Y202579999D01*
G75*
G02*
X137795001Y202429999I-150000J0D01*
G01*
X136145001Y202429999D01*
G75*
G02*
X135995001Y202579999I0J150000D01*
G01*
G37*
G36*
G01*
X135995001Y201309999D02*
X135995001Y201609999D01*
G75*
G02*
X136145001Y201759999I150000J0D01*
G01*
X137795001Y201759999D01*
G75*
G02*
X137945001Y201609999I0J-150000D01*
G01*
X137945001Y201309999D01*
G75*
G02*
X137795001Y201159999I-150000J0D01*
G01*
X136145001Y201159999D01*
G75*
G02*
X135995001Y201309999I0J150000D01*
G01*
G37*
G36*
G01*
X135995001Y200039999D02*
X135995001Y200339999D01*
G75*
G02*
X136145001Y200489999I150000J0D01*
G01*
X137795001Y200489999D01*
G75*
G02*
X137945001Y200339999I0J-150000D01*
G01*
X137945001Y200039999D01*
G75*
G02*
X137795001Y199889999I-150000J0D01*
G01*
X136145001Y199889999D01*
G75*
G02*
X135995001Y200039999I0J150000D01*
G01*
G37*
G36*
G01*
X135995001Y198769999D02*
X135995001Y199069999D01*
G75*
G02*
X136145001Y199219999I150000J0D01*
G01*
X137795001Y199219999D01*
G75*
G02*
X137945001Y199069999I0J-150000D01*
G01*
X137945001Y198769999D01*
G75*
G02*
X137795001Y198619999I-150000J0D01*
G01*
X136145001Y198619999D01*
G75*
G02*
X135995001Y198769999I0J150000D01*
G01*
G37*
G36*
G01*
X140945001Y198769999D02*
X140945001Y199069999D01*
G75*
G02*
X141095001Y199219999I150000J0D01*
G01*
X142745001Y199219999D01*
G75*
G02*
X142895001Y199069999I0J-150000D01*
G01*
X142895001Y198769999D01*
G75*
G02*
X142745001Y198619999I-150000J0D01*
G01*
X141095001Y198619999D01*
G75*
G02*
X140945001Y198769999I0J150000D01*
G01*
G37*
G36*
G01*
X140945001Y200039999D02*
X140945001Y200339999D01*
G75*
G02*
X141095001Y200489999I150000J0D01*
G01*
X142745001Y200489999D01*
G75*
G02*
X142895001Y200339999I0J-150000D01*
G01*
X142895001Y200039999D01*
G75*
G02*
X142745001Y199889999I-150000J0D01*
G01*
X141095001Y199889999D01*
G75*
G02*
X140945001Y200039999I0J150000D01*
G01*
G37*
G36*
G01*
X140945001Y201309999D02*
X140945001Y201609999D01*
G75*
G02*
X141095001Y201759999I150000J0D01*
G01*
X142745001Y201759999D01*
G75*
G02*
X142895001Y201609999I0J-150000D01*
G01*
X142895001Y201309999D01*
G75*
G02*
X142745001Y201159999I-150000J0D01*
G01*
X141095001Y201159999D01*
G75*
G02*
X140945001Y201309999I0J150000D01*
G01*
G37*
G36*
G01*
X140945001Y202579999D02*
X140945001Y202879999D01*
G75*
G02*
X141095001Y203029999I150000J0D01*
G01*
X142745001Y203029999D01*
G75*
G02*
X142895001Y202879999I0J-150000D01*
G01*
X142895001Y202579999D01*
G75*
G02*
X142745001Y202429999I-150000J0D01*
G01*
X141095001Y202429999D01*
G75*
G02*
X140945001Y202579999I0J150000D01*
G01*
G37*
%TD*%
%TO.C,U11*%
G36*
G01*
X170280001Y208879999D02*
X170280001Y209179999D01*
G75*
G02*
X170430001Y209329999I150000J0D01*
G01*
X172180001Y209329999D01*
G75*
G02*
X172330001Y209179999I0J-150000D01*
G01*
X172330001Y208879999D01*
G75*
G02*
X172180001Y208729999I-150000J0D01*
G01*
X170430001Y208729999D01*
G75*
G02*
X170280001Y208879999I0J150000D01*
G01*
G37*
G36*
G01*
X170280001Y207609999D02*
X170280001Y207909999D01*
G75*
G02*
X170430001Y208059999I150000J0D01*
G01*
X172180001Y208059999D01*
G75*
G02*
X172330001Y207909999I0J-150000D01*
G01*
X172330001Y207609999D01*
G75*
G02*
X172180001Y207459999I-150000J0D01*
G01*
X170430001Y207459999D01*
G75*
G02*
X170280001Y207609999I0J150000D01*
G01*
G37*
G36*
G01*
X170280001Y206339999D02*
X170280001Y206639999D01*
G75*
G02*
X170430001Y206789999I150000J0D01*
G01*
X172180001Y206789999D01*
G75*
G02*
X172330001Y206639999I0J-150000D01*
G01*
X172330001Y206339999D01*
G75*
G02*
X172180001Y206189999I-150000J0D01*
G01*
X170430001Y206189999D01*
G75*
G02*
X170280001Y206339999I0J150000D01*
G01*
G37*
G36*
G01*
X170280001Y205069999D02*
X170280001Y205369999D01*
G75*
G02*
X170430001Y205519999I150000J0D01*
G01*
X172180001Y205519999D01*
G75*
G02*
X172330001Y205369999I0J-150000D01*
G01*
X172330001Y205069999D01*
G75*
G02*
X172180001Y204919999I-150000J0D01*
G01*
X170430001Y204919999D01*
G75*
G02*
X170280001Y205069999I0J150000D01*
G01*
G37*
G36*
G01*
X170280001Y203799999D02*
X170280001Y204099999D01*
G75*
G02*
X170430001Y204249999I150000J0D01*
G01*
X172180001Y204249999D01*
G75*
G02*
X172330001Y204099999I0J-150000D01*
G01*
X172330001Y203799999D01*
G75*
G02*
X172180001Y203649999I-150000J0D01*
G01*
X170430001Y203649999D01*
G75*
G02*
X170280001Y203799999I0J150000D01*
G01*
G37*
G36*
G01*
X170280001Y202529999D02*
X170280001Y202829999D01*
G75*
G02*
X170430001Y202979999I150000J0D01*
G01*
X172180001Y202979999D01*
G75*
G02*
X172330001Y202829999I0J-150000D01*
G01*
X172330001Y202529999D01*
G75*
G02*
X172180001Y202379999I-150000J0D01*
G01*
X170430001Y202379999D01*
G75*
G02*
X170280001Y202529999I0J150000D01*
G01*
G37*
G36*
G01*
X170280001Y201259999D02*
X170280001Y201559999D01*
G75*
G02*
X170430001Y201709999I150000J0D01*
G01*
X172180001Y201709999D01*
G75*
G02*
X172330001Y201559999I0J-150000D01*
G01*
X172330001Y201259999D01*
G75*
G02*
X172180001Y201109999I-150000J0D01*
G01*
X170430001Y201109999D01*
G75*
G02*
X170280001Y201259999I0J150000D01*
G01*
G37*
G36*
G01*
X170280001Y199989999D02*
X170280001Y200289999D01*
G75*
G02*
X170430001Y200439999I150000J0D01*
G01*
X172180001Y200439999D01*
G75*
G02*
X172330001Y200289999I0J-150000D01*
G01*
X172330001Y199989999D01*
G75*
G02*
X172180001Y199839999I-150000J0D01*
G01*
X170430001Y199839999D01*
G75*
G02*
X170280001Y199989999I0J150000D01*
G01*
G37*
G36*
G01*
X170280001Y198719999D02*
X170280001Y199019999D01*
G75*
G02*
X170430001Y199169999I150000J0D01*
G01*
X172180001Y199169999D01*
G75*
G02*
X172330001Y199019999I0J-150000D01*
G01*
X172330001Y198719999D01*
G75*
G02*
X172180001Y198569999I-150000J0D01*
G01*
X170430001Y198569999D01*
G75*
G02*
X170280001Y198719999I0J150000D01*
G01*
G37*
G36*
G01*
X170280001Y197449999D02*
X170280001Y197749999D01*
G75*
G02*
X170430001Y197899999I150000J0D01*
G01*
X172180001Y197899999D01*
G75*
G02*
X172330001Y197749999I0J-150000D01*
G01*
X172330001Y197449999D01*
G75*
G02*
X172180001Y197299999I-150000J0D01*
G01*
X170430001Y197299999D01*
G75*
G02*
X170280001Y197449999I0J150000D01*
G01*
G37*
G36*
G01*
X170280001Y196179999D02*
X170280001Y196479999D01*
G75*
G02*
X170430001Y196629999I150000J0D01*
G01*
X172180001Y196629999D01*
G75*
G02*
X172330001Y196479999I0J-150000D01*
G01*
X172330001Y196179999D01*
G75*
G02*
X172180001Y196029999I-150000J0D01*
G01*
X170430001Y196029999D01*
G75*
G02*
X170280001Y196179999I0J150000D01*
G01*
G37*
G36*
G01*
X170280001Y194909999D02*
X170280001Y195209999D01*
G75*
G02*
X170430001Y195359999I150000J0D01*
G01*
X172180001Y195359999D01*
G75*
G02*
X172330001Y195209999I0J-150000D01*
G01*
X172330001Y194909999D01*
G75*
G02*
X172180001Y194759999I-150000J0D01*
G01*
X170430001Y194759999D01*
G75*
G02*
X170280001Y194909999I0J150000D01*
G01*
G37*
G36*
G01*
X170280001Y193639999D02*
X170280001Y193939999D01*
G75*
G02*
X170430001Y194089999I150000J0D01*
G01*
X172180001Y194089999D01*
G75*
G02*
X172330001Y193939999I0J-150000D01*
G01*
X172330001Y193639999D01*
G75*
G02*
X172180001Y193489999I-150000J0D01*
G01*
X170430001Y193489999D01*
G75*
G02*
X170280001Y193639999I0J150000D01*
G01*
G37*
G36*
G01*
X170280001Y192369999D02*
X170280001Y192669999D01*
G75*
G02*
X170430001Y192819999I150000J0D01*
G01*
X172180001Y192819999D01*
G75*
G02*
X172330001Y192669999I0J-150000D01*
G01*
X172330001Y192369999D01*
G75*
G02*
X172180001Y192219999I-150000J0D01*
G01*
X170430001Y192219999D01*
G75*
G02*
X170280001Y192369999I0J150000D01*
G01*
G37*
G36*
G01*
X160980001Y192369999D02*
X160980001Y192669999D01*
G75*
G02*
X161130001Y192819999I150000J0D01*
G01*
X162880001Y192819999D01*
G75*
G02*
X163030001Y192669999I0J-150000D01*
G01*
X163030001Y192369999D01*
G75*
G02*
X162880001Y192219999I-150000J0D01*
G01*
X161130001Y192219999D01*
G75*
G02*
X160980001Y192369999I0J150000D01*
G01*
G37*
G36*
G01*
X160980001Y193639999D02*
X160980001Y193939999D01*
G75*
G02*
X161130001Y194089999I150000J0D01*
G01*
X162880001Y194089999D01*
G75*
G02*
X163030001Y193939999I0J-150000D01*
G01*
X163030001Y193639999D01*
G75*
G02*
X162880001Y193489999I-150000J0D01*
G01*
X161130001Y193489999D01*
G75*
G02*
X160980001Y193639999I0J150000D01*
G01*
G37*
G36*
G01*
X160980001Y194909999D02*
X160980001Y195209999D01*
G75*
G02*
X161130001Y195359999I150000J0D01*
G01*
X162880001Y195359999D01*
G75*
G02*
X163030001Y195209999I0J-150000D01*
G01*
X163030001Y194909999D01*
G75*
G02*
X162880001Y194759999I-150000J0D01*
G01*
X161130001Y194759999D01*
G75*
G02*
X160980001Y194909999I0J150000D01*
G01*
G37*
G36*
G01*
X160980001Y196179999D02*
X160980001Y196479999D01*
G75*
G02*
X161130001Y196629999I150000J0D01*
G01*
X162880001Y196629999D01*
G75*
G02*
X163030001Y196479999I0J-150000D01*
G01*
X163030001Y196179999D01*
G75*
G02*
X162880001Y196029999I-150000J0D01*
G01*
X161130001Y196029999D01*
G75*
G02*
X160980001Y196179999I0J150000D01*
G01*
G37*
G36*
G01*
X160980001Y197449999D02*
X160980001Y197749999D01*
G75*
G02*
X161130001Y197899999I150000J0D01*
G01*
X162880001Y197899999D01*
G75*
G02*
X163030001Y197749999I0J-150000D01*
G01*
X163030001Y197449999D01*
G75*
G02*
X162880001Y197299999I-150000J0D01*
G01*
X161130001Y197299999D01*
G75*
G02*
X160980001Y197449999I0J150000D01*
G01*
G37*
G36*
G01*
X160980001Y198719999D02*
X160980001Y199019999D01*
G75*
G02*
X161130001Y199169999I150000J0D01*
G01*
X162880001Y199169999D01*
G75*
G02*
X163030001Y199019999I0J-150000D01*
G01*
X163030001Y198719999D01*
G75*
G02*
X162880001Y198569999I-150000J0D01*
G01*
X161130001Y198569999D01*
G75*
G02*
X160980001Y198719999I0J150000D01*
G01*
G37*
G36*
G01*
X160980001Y199989999D02*
X160980001Y200289999D01*
G75*
G02*
X161130001Y200439999I150000J0D01*
G01*
X162880001Y200439999D01*
G75*
G02*
X163030001Y200289999I0J-150000D01*
G01*
X163030001Y199989999D01*
G75*
G02*
X162880001Y199839999I-150000J0D01*
G01*
X161130001Y199839999D01*
G75*
G02*
X160980001Y199989999I0J150000D01*
G01*
G37*
G36*
G01*
X160980001Y201259999D02*
X160980001Y201559999D01*
G75*
G02*
X161130001Y201709999I150000J0D01*
G01*
X162880001Y201709999D01*
G75*
G02*
X163030001Y201559999I0J-150000D01*
G01*
X163030001Y201259999D01*
G75*
G02*
X162880001Y201109999I-150000J0D01*
G01*
X161130001Y201109999D01*
G75*
G02*
X160980001Y201259999I0J150000D01*
G01*
G37*
G36*
G01*
X160980001Y202529999D02*
X160980001Y202829999D01*
G75*
G02*
X161130001Y202979999I150000J0D01*
G01*
X162880001Y202979999D01*
G75*
G02*
X163030001Y202829999I0J-150000D01*
G01*
X163030001Y202529999D01*
G75*
G02*
X162880001Y202379999I-150000J0D01*
G01*
X161130001Y202379999D01*
G75*
G02*
X160980001Y202529999I0J150000D01*
G01*
G37*
G36*
G01*
X160980001Y203799999D02*
X160980001Y204099999D01*
G75*
G02*
X161130001Y204249999I150000J0D01*
G01*
X162880001Y204249999D01*
G75*
G02*
X163030001Y204099999I0J-150000D01*
G01*
X163030001Y203799999D01*
G75*
G02*
X162880001Y203649999I-150000J0D01*
G01*
X161130001Y203649999D01*
G75*
G02*
X160980001Y203799999I0J150000D01*
G01*
G37*
G36*
G01*
X160980001Y205069999D02*
X160980001Y205369999D01*
G75*
G02*
X161130001Y205519999I150000J0D01*
G01*
X162880001Y205519999D01*
G75*
G02*
X163030001Y205369999I0J-150000D01*
G01*
X163030001Y205069999D01*
G75*
G02*
X162880001Y204919999I-150000J0D01*
G01*
X161130001Y204919999D01*
G75*
G02*
X160980001Y205069999I0J150000D01*
G01*
G37*
G36*
G01*
X160980001Y206339999D02*
X160980001Y206639999D01*
G75*
G02*
X161130001Y206789999I150000J0D01*
G01*
X162880001Y206789999D01*
G75*
G02*
X163030001Y206639999I0J-150000D01*
G01*
X163030001Y206339999D01*
G75*
G02*
X162880001Y206189999I-150000J0D01*
G01*
X161130001Y206189999D01*
G75*
G02*
X160980001Y206339999I0J150000D01*
G01*
G37*
G36*
G01*
X160980001Y207609999D02*
X160980001Y207909999D01*
G75*
G02*
X161130001Y208059999I150000J0D01*
G01*
X162880001Y208059999D01*
G75*
G02*
X163030001Y207909999I0J-150000D01*
G01*
X163030001Y207609999D01*
G75*
G02*
X162880001Y207459999I-150000J0D01*
G01*
X161130001Y207459999D01*
G75*
G02*
X160980001Y207609999I0J150000D01*
G01*
G37*
G36*
G01*
X160980001Y208879999D02*
X160980001Y209179999D01*
G75*
G02*
X161130001Y209329999I150000J0D01*
G01*
X162880001Y209329999D01*
G75*
G02*
X163030001Y209179999I0J-150000D01*
G01*
X163030001Y208879999D01*
G75*
G02*
X162880001Y208729999I-150000J0D01*
G01*
X161130001Y208729999D01*
G75*
G02*
X160980001Y208879999I0J150000D01*
G01*
G37*
%TD*%
%TO.C,U12*%
G36*
G01*
X83925001Y125349999D02*
X83925001Y125499999D01*
G75*
G02*
X84000001Y125574999I75000J0D01*
G01*
X85325001Y125574999D01*
G75*
G02*
X85400001Y125499999I0J-75000D01*
G01*
X85400001Y125349999D01*
G75*
G02*
X85325001Y125274999I-75000J0D01*
G01*
X84000001Y125274999D01*
G75*
G02*
X83925001Y125349999I0J75000D01*
G01*
G37*
G36*
G01*
X83925001Y124849999D02*
X83925001Y124999999D01*
G75*
G02*
X84000001Y125074999I75000J0D01*
G01*
X85325001Y125074999D01*
G75*
G02*
X85400001Y124999999I0J-75000D01*
G01*
X85400001Y124849999D01*
G75*
G02*
X85325001Y124774999I-75000J0D01*
G01*
X84000001Y124774999D01*
G75*
G02*
X83925001Y124849999I0J75000D01*
G01*
G37*
G36*
G01*
X83925001Y124349999D02*
X83925001Y124499999D01*
G75*
G02*
X84000001Y124574999I75000J0D01*
G01*
X85325001Y124574999D01*
G75*
G02*
X85400001Y124499999I0J-75000D01*
G01*
X85400001Y124349999D01*
G75*
G02*
X85325001Y124274999I-75000J0D01*
G01*
X84000001Y124274999D01*
G75*
G02*
X83925001Y124349999I0J75000D01*
G01*
G37*
G36*
G01*
X83925001Y123849999D02*
X83925001Y123999999D01*
G75*
G02*
X84000001Y124074999I75000J0D01*
G01*
X85325001Y124074999D01*
G75*
G02*
X85400001Y123999999I0J-75000D01*
G01*
X85400001Y123849999D01*
G75*
G02*
X85325001Y123774999I-75000J0D01*
G01*
X84000001Y123774999D01*
G75*
G02*
X83925001Y123849999I0J75000D01*
G01*
G37*
G36*
G01*
X83925001Y123349999D02*
X83925001Y123499999D01*
G75*
G02*
X84000001Y123574999I75000J0D01*
G01*
X85325001Y123574999D01*
G75*
G02*
X85400001Y123499999I0J-75000D01*
G01*
X85400001Y123349999D01*
G75*
G02*
X85325001Y123274999I-75000J0D01*
G01*
X84000001Y123274999D01*
G75*
G02*
X83925001Y123349999I0J75000D01*
G01*
G37*
G36*
G01*
X83925001Y122849999D02*
X83925001Y122999999D01*
G75*
G02*
X84000001Y123074999I75000J0D01*
G01*
X85325001Y123074999D01*
G75*
G02*
X85400001Y122999999I0J-75000D01*
G01*
X85400001Y122849999D01*
G75*
G02*
X85325001Y122774999I-75000J0D01*
G01*
X84000001Y122774999D01*
G75*
G02*
X83925001Y122849999I0J75000D01*
G01*
G37*
G36*
G01*
X83925001Y122349999D02*
X83925001Y122499999D01*
G75*
G02*
X84000001Y122574999I75000J0D01*
G01*
X85325001Y122574999D01*
G75*
G02*
X85400001Y122499999I0J-75000D01*
G01*
X85400001Y122349999D01*
G75*
G02*
X85325001Y122274999I-75000J0D01*
G01*
X84000001Y122274999D01*
G75*
G02*
X83925001Y122349999I0J75000D01*
G01*
G37*
G36*
G01*
X83925001Y121849999D02*
X83925001Y121999999D01*
G75*
G02*
X84000001Y122074999I75000J0D01*
G01*
X85325001Y122074999D01*
G75*
G02*
X85400001Y121999999I0J-75000D01*
G01*
X85400001Y121849999D01*
G75*
G02*
X85325001Y121774999I-75000J0D01*
G01*
X84000001Y121774999D01*
G75*
G02*
X83925001Y121849999I0J75000D01*
G01*
G37*
G36*
G01*
X83925001Y121349999D02*
X83925001Y121499999D01*
G75*
G02*
X84000001Y121574999I75000J0D01*
G01*
X85325001Y121574999D01*
G75*
G02*
X85400001Y121499999I0J-75000D01*
G01*
X85400001Y121349999D01*
G75*
G02*
X85325001Y121274999I-75000J0D01*
G01*
X84000001Y121274999D01*
G75*
G02*
X83925001Y121349999I0J75000D01*
G01*
G37*
G36*
G01*
X83925001Y120849999D02*
X83925001Y120999999D01*
G75*
G02*
X84000001Y121074999I75000J0D01*
G01*
X85325001Y121074999D01*
G75*
G02*
X85400001Y120999999I0J-75000D01*
G01*
X85400001Y120849999D01*
G75*
G02*
X85325001Y120774999I-75000J0D01*
G01*
X84000001Y120774999D01*
G75*
G02*
X83925001Y120849999I0J75000D01*
G01*
G37*
G36*
G01*
X83925001Y120349999D02*
X83925001Y120499999D01*
G75*
G02*
X84000001Y120574999I75000J0D01*
G01*
X85325001Y120574999D01*
G75*
G02*
X85400001Y120499999I0J-75000D01*
G01*
X85400001Y120349999D01*
G75*
G02*
X85325001Y120274999I-75000J0D01*
G01*
X84000001Y120274999D01*
G75*
G02*
X83925001Y120349999I0J75000D01*
G01*
G37*
G36*
G01*
X83925001Y119849999D02*
X83925001Y119999999D01*
G75*
G02*
X84000001Y120074999I75000J0D01*
G01*
X85325001Y120074999D01*
G75*
G02*
X85400001Y119999999I0J-75000D01*
G01*
X85400001Y119849999D01*
G75*
G02*
X85325001Y119774999I-75000J0D01*
G01*
X84000001Y119774999D01*
G75*
G02*
X83925001Y119849999I0J75000D01*
G01*
G37*
G36*
G01*
X85925001Y117849999D02*
X85925001Y119174999D01*
G75*
G02*
X86000001Y119249999I75000J0D01*
G01*
X86150001Y119249999D01*
G75*
G02*
X86225001Y119174999I0J-75000D01*
G01*
X86225001Y117849999D01*
G75*
G02*
X86150001Y117774999I-75000J0D01*
G01*
X86000001Y117774999D01*
G75*
G02*
X85925001Y117849999I0J75000D01*
G01*
G37*
G36*
G01*
X86425001Y117849999D02*
X86425001Y119174999D01*
G75*
G02*
X86500001Y119249999I75000J0D01*
G01*
X86650001Y119249999D01*
G75*
G02*
X86725001Y119174999I0J-75000D01*
G01*
X86725001Y117849999D01*
G75*
G02*
X86650001Y117774999I-75000J0D01*
G01*
X86500001Y117774999D01*
G75*
G02*
X86425001Y117849999I0J75000D01*
G01*
G37*
G36*
G01*
X86925001Y117849999D02*
X86925001Y119174999D01*
G75*
G02*
X87000001Y119249999I75000J0D01*
G01*
X87150001Y119249999D01*
G75*
G02*
X87225001Y119174999I0J-75000D01*
G01*
X87225001Y117849999D01*
G75*
G02*
X87150001Y117774999I-75000J0D01*
G01*
X87000001Y117774999D01*
G75*
G02*
X86925001Y117849999I0J75000D01*
G01*
G37*
G36*
G01*
X87425001Y117849999D02*
X87425001Y119174999D01*
G75*
G02*
X87500001Y119249999I75000J0D01*
G01*
X87650001Y119249999D01*
G75*
G02*
X87725001Y119174999I0J-75000D01*
G01*
X87725001Y117849999D01*
G75*
G02*
X87650001Y117774999I-75000J0D01*
G01*
X87500001Y117774999D01*
G75*
G02*
X87425001Y117849999I0J75000D01*
G01*
G37*
G36*
G01*
X87925001Y117849999D02*
X87925001Y119174999D01*
G75*
G02*
X88000001Y119249999I75000J0D01*
G01*
X88150001Y119249999D01*
G75*
G02*
X88225001Y119174999I0J-75000D01*
G01*
X88225001Y117849999D01*
G75*
G02*
X88150001Y117774999I-75000J0D01*
G01*
X88000001Y117774999D01*
G75*
G02*
X87925001Y117849999I0J75000D01*
G01*
G37*
G36*
G01*
X88425001Y117849999D02*
X88425001Y119174999D01*
G75*
G02*
X88500001Y119249999I75000J0D01*
G01*
X88650001Y119249999D01*
G75*
G02*
X88725001Y119174999I0J-75000D01*
G01*
X88725001Y117849999D01*
G75*
G02*
X88650001Y117774999I-75000J0D01*
G01*
X88500001Y117774999D01*
G75*
G02*
X88425001Y117849999I0J75000D01*
G01*
G37*
G36*
G01*
X88925001Y117849999D02*
X88925001Y119174999D01*
G75*
G02*
X89000001Y119249999I75000J0D01*
G01*
X89150001Y119249999D01*
G75*
G02*
X89225001Y119174999I0J-75000D01*
G01*
X89225001Y117849999D01*
G75*
G02*
X89150001Y117774999I-75000J0D01*
G01*
X89000001Y117774999D01*
G75*
G02*
X88925001Y117849999I0J75000D01*
G01*
G37*
G36*
G01*
X89425001Y117849999D02*
X89425001Y119174999D01*
G75*
G02*
X89500001Y119249999I75000J0D01*
G01*
X89650001Y119249999D01*
G75*
G02*
X89725001Y119174999I0J-75000D01*
G01*
X89725001Y117849999D01*
G75*
G02*
X89650001Y117774999I-75000J0D01*
G01*
X89500001Y117774999D01*
G75*
G02*
X89425001Y117849999I0J75000D01*
G01*
G37*
G36*
G01*
X89925001Y117849999D02*
X89925001Y119174999D01*
G75*
G02*
X90000001Y119249999I75000J0D01*
G01*
X90150001Y119249999D01*
G75*
G02*
X90225001Y119174999I0J-75000D01*
G01*
X90225001Y117849999D01*
G75*
G02*
X90150001Y117774999I-75000J0D01*
G01*
X90000001Y117774999D01*
G75*
G02*
X89925001Y117849999I0J75000D01*
G01*
G37*
G36*
G01*
X90425001Y117849999D02*
X90425001Y119174999D01*
G75*
G02*
X90500001Y119249999I75000J0D01*
G01*
X90650001Y119249999D01*
G75*
G02*
X90725001Y119174999I0J-75000D01*
G01*
X90725001Y117849999D01*
G75*
G02*
X90650001Y117774999I-75000J0D01*
G01*
X90500001Y117774999D01*
G75*
G02*
X90425001Y117849999I0J75000D01*
G01*
G37*
G36*
G01*
X90925001Y117849999D02*
X90925001Y119174999D01*
G75*
G02*
X91000001Y119249999I75000J0D01*
G01*
X91150001Y119249999D01*
G75*
G02*
X91225001Y119174999I0J-75000D01*
G01*
X91225001Y117849999D01*
G75*
G02*
X91150001Y117774999I-75000J0D01*
G01*
X91000001Y117774999D01*
G75*
G02*
X90925001Y117849999I0J75000D01*
G01*
G37*
G36*
G01*
X91425001Y117849999D02*
X91425001Y119174999D01*
G75*
G02*
X91500001Y119249999I75000J0D01*
G01*
X91650001Y119249999D01*
G75*
G02*
X91725001Y119174999I0J-75000D01*
G01*
X91725001Y117849999D01*
G75*
G02*
X91650001Y117774999I-75000J0D01*
G01*
X91500001Y117774999D01*
G75*
G02*
X91425001Y117849999I0J75000D01*
G01*
G37*
G36*
G01*
X92250001Y119849999D02*
X92250001Y119999999D01*
G75*
G02*
X92325001Y120074999I75000J0D01*
G01*
X93650001Y120074999D01*
G75*
G02*
X93725001Y119999999I0J-75000D01*
G01*
X93725001Y119849999D01*
G75*
G02*
X93650001Y119774999I-75000J0D01*
G01*
X92325001Y119774999D01*
G75*
G02*
X92250001Y119849999I0J75000D01*
G01*
G37*
G36*
G01*
X92250001Y120349999D02*
X92250001Y120499999D01*
G75*
G02*
X92325001Y120574999I75000J0D01*
G01*
X93650001Y120574999D01*
G75*
G02*
X93725001Y120499999I0J-75000D01*
G01*
X93725001Y120349999D01*
G75*
G02*
X93650001Y120274999I-75000J0D01*
G01*
X92325001Y120274999D01*
G75*
G02*
X92250001Y120349999I0J75000D01*
G01*
G37*
G36*
G01*
X92250001Y120849999D02*
X92250001Y120999999D01*
G75*
G02*
X92325001Y121074999I75000J0D01*
G01*
X93650001Y121074999D01*
G75*
G02*
X93725001Y120999999I0J-75000D01*
G01*
X93725001Y120849999D01*
G75*
G02*
X93650001Y120774999I-75000J0D01*
G01*
X92325001Y120774999D01*
G75*
G02*
X92250001Y120849999I0J75000D01*
G01*
G37*
G36*
G01*
X92250001Y121349999D02*
X92250001Y121499999D01*
G75*
G02*
X92325001Y121574999I75000J0D01*
G01*
X93650001Y121574999D01*
G75*
G02*
X93725001Y121499999I0J-75000D01*
G01*
X93725001Y121349999D01*
G75*
G02*
X93650001Y121274999I-75000J0D01*
G01*
X92325001Y121274999D01*
G75*
G02*
X92250001Y121349999I0J75000D01*
G01*
G37*
G36*
G01*
X92250001Y121849999D02*
X92250001Y121999999D01*
G75*
G02*
X92325001Y122074999I75000J0D01*
G01*
X93650001Y122074999D01*
G75*
G02*
X93725001Y121999999I0J-75000D01*
G01*
X93725001Y121849999D01*
G75*
G02*
X93650001Y121774999I-75000J0D01*
G01*
X92325001Y121774999D01*
G75*
G02*
X92250001Y121849999I0J75000D01*
G01*
G37*
G36*
G01*
X92250001Y122349999D02*
X92250001Y122499999D01*
G75*
G02*
X92325001Y122574999I75000J0D01*
G01*
X93650001Y122574999D01*
G75*
G02*
X93725001Y122499999I0J-75000D01*
G01*
X93725001Y122349999D01*
G75*
G02*
X93650001Y122274999I-75000J0D01*
G01*
X92325001Y122274999D01*
G75*
G02*
X92250001Y122349999I0J75000D01*
G01*
G37*
G36*
G01*
X92250001Y122849999D02*
X92250001Y122999999D01*
G75*
G02*
X92325001Y123074999I75000J0D01*
G01*
X93650001Y123074999D01*
G75*
G02*
X93725001Y122999999I0J-75000D01*
G01*
X93725001Y122849999D01*
G75*
G02*
X93650001Y122774999I-75000J0D01*
G01*
X92325001Y122774999D01*
G75*
G02*
X92250001Y122849999I0J75000D01*
G01*
G37*
G36*
G01*
X92250001Y123349999D02*
X92250001Y123499999D01*
G75*
G02*
X92325001Y123574999I75000J0D01*
G01*
X93650001Y123574999D01*
G75*
G02*
X93725001Y123499999I0J-75000D01*
G01*
X93725001Y123349999D01*
G75*
G02*
X93650001Y123274999I-75000J0D01*
G01*
X92325001Y123274999D01*
G75*
G02*
X92250001Y123349999I0J75000D01*
G01*
G37*
G36*
G01*
X92250001Y123849999D02*
X92250001Y123999999D01*
G75*
G02*
X92325001Y124074999I75000J0D01*
G01*
X93650001Y124074999D01*
G75*
G02*
X93725001Y123999999I0J-75000D01*
G01*
X93725001Y123849999D01*
G75*
G02*
X93650001Y123774999I-75000J0D01*
G01*
X92325001Y123774999D01*
G75*
G02*
X92250001Y123849999I0J75000D01*
G01*
G37*
G36*
G01*
X92250001Y124349999D02*
X92250001Y124499999D01*
G75*
G02*
X92325001Y124574999I75000J0D01*
G01*
X93650001Y124574999D01*
G75*
G02*
X93725001Y124499999I0J-75000D01*
G01*
X93725001Y124349999D01*
G75*
G02*
X93650001Y124274999I-75000J0D01*
G01*
X92325001Y124274999D01*
G75*
G02*
X92250001Y124349999I0J75000D01*
G01*
G37*
G36*
G01*
X92250001Y124849999D02*
X92250001Y124999999D01*
G75*
G02*
X92325001Y125074999I75000J0D01*
G01*
X93650001Y125074999D01*
G75*
G02*
X93725001Y124999999I0J-75000D01*
G01*
X93725001Y124849999D01*
G75*
G02*
X93650001Y124774999I-75000J0D01*
G01*
X92325001Y124774999D01*
G75*
G02*
X92250001Y124849999I0J75000D01*
G01*
G37*
G36*
G01*
X92250001Y125349999D02*
X92250001Y125499999D01*
G75*
G02*
X92325001Y125574999I75000J0D01*
G01*
X93650001Y125574999D01*
G75*
G02*
X93725001Y125499999I0J-75000D01*
G01*
X93725001Y125349999D01*
G75*
G02*
X93650001Y125274999I-75000J0D01*
G01*
X92325001Y125274999D01*
G75*
G02*
X92250001Y125349999I0J75000D01*
G01*
G37*
G36*
G01*
X91425001Y126174999D02*
X91425001Y127499999D01*
G75*
G02*
X91500001Y127574999I75000J0D01*
G01*
X91650001Y127574999D01*
G75*
G02*
X91725001Y127499999I0J-75000D01*
G01*
X91725001Y126174999D01*
G75*
G02*
X91650001Y126099999I-75000J0D01*
G01*
X91500001Y126099999D01*
G75*
G02*
X91425001Y126174999I0J75000D01*
G01*
G37*
G36*
G01*
X90925001Y126174999D02*
X90925001Y127499999D01*
G75*
G02*
X91000001Y127574999I75000J0D01*
G01*
X91150001Y127574999D01*
G75*
G02*
X91225001Y127499999I0J-75000D01*
G01*
X91225001Y126174999D01*
G75*
G02*
X91150001Y126099999I-75000J0D01*
G01*
X91000001Y126099999D01*
G75*
G02*
X90925001Y126174999I0J75000D01*
G01*
G37*
G36*
G01*
X90425001Y126174999D02*
X90425001Y127499999D01*
G75*
G02*
X90500001Y127574999I75000J0D01*
G01*
X90650001Y127574999D01*
G75*
G02*
X90725001Y127499999I0J-75000D01*
G01*
X90725001Y126174999D01*
G75*
G02*
X90650001Y126099999I-75000J0D01*
G01*
X90500001Y126099999D01*
G75*
G02*
X90425001Y126174999I0J75000D01*
G01*
G37*
G36*
G01*
X89925001Y126174999D02*
X89925001Y127499999D01*
G75*
G02*
X90000001Y127574999I75000J0D01*
G01*
X90150001Y127574999D01*
G75*
G02*
X90225001Y127499999I0J-75000D01*
G01*
X90225001Y126174999D01*
G75*
G02*
X90150001Y126099999I-75000J0D01*
G01*
X90000001Y126099999D01*
G75*
G02*
X89925001Y126174999I0J75000D01*
G01*
G37*
G36*
G01*
X89425001Y126174999D02*
X89425001Y127499999D01*
G75*
G02*
X89500001Y127574999I75000J0D01*
G01*
X89650001Y127574999D01*
G75*
G02*
X89725001Y127499999I0J-75000D01*
G01*
X89725001Y126174999D01*
G75*
G02*
X89650001Y126099999I-75000J0D01*
G01*
X89500001Y126099999D01*
G75*
G02*
X89425001Y126174999I0J75000D01*
G01*
G37*
G36*
G01*
X88925001Y126174999D02*
X88925001Y127499999D01*
G75*
G02*
X89000001Y127574999I75000J0D01*
G01*
X89150001Y127574999D01*
G75*
G02*
X89225001Y127499999I0J-75000D01*
G01*
X89225001Y126174999D01*
G75*
G02*
X89150001Y126099999I-75000J0D01*
G01*
X89000001Y126099999D01*
G75*
G02*
X88925001Y126174999I0J75000D01*
G01*
G37*
G36*
G01*
X88425001Y126174999D02*
X88425001Y127499999D01*
G75*
G02*
X88500001Y127574999I75000J0D01*
G01*
X88650001Y127574999D01*
G75*
G02*
X88725001Y127499999I0J-75000D01*
G01*
X88725001Y126174999D01*
G75*
G02*
X88650001Y126099999I-75000J0D01*
G01*
X88500001Y126099999D01*
G75*
G02*
X88425001Y126174999I0J75000D01*
G01*
G37*
G36*
G01*
X87925001Y126174999D02*
X87925001Y127499999D01*
G75*
G02*
X88000001Y127574999I75000J0D01*
G01*
X88150001Y127574999D01*
G75*
G02*
X88225001Y127499999I0J-75000D01*
G01*
X88225001Y126174999D01*
G75*
G02*
X88150001Y126099999I-75000J0D01*
G01*
X88000001Y126099999D01*
G75*
G02*
X87925001Y126174999I0J75000D01*
G01*
G37*
G36*
G01*
X87425001Y126174999D02*
X87425001Y127499999D01*
G75*
G02*
X87500001Y127574999I75000J0D01*
G01*
X87650001Y127574999D01*
G75*
G02*
X87725001Y127499999I0J-75000D01*
G01*
X87725001Y126174999D01*
G75*
G02*
X87650001Y126099999I-75000J0D01*
G01*
X87500001Y126099999D01*
G75*
G02*
X87425001Y126174999I0J75000D01*
G01*
G37*
G36*
G01*
X86925001Y126174999D02*
X86925001Y127499999D01*
G75*
G02*
X87000001Y127574999I75000J0D01*
G01*
X87150001Y127574999D01*
G75*
G02*
X87225001Y127499999I0J-75000D01*
G01*
X87225001Y126174999D01*
G75*
G02*
X87150001Y126099999I-75000J0D01*
G01*
X87000001Y126099999D01*
G75*
G02*
X86925001Y126174999I0J75000D01*
G01*
G37*
G36*
G01*
X86425001Y126174999D02*
X86425001Y127499999D01*
G75*
G02*
X86500001Y127574999I75000J0D01*
G01*
X86650001Y127574999D01*
G75*
G02*
X86725001Y127499999I0J-75000D01*
G01*
X86725001Y126174999D01*
G75*
G02*
X86650001Y126099999I-75000J0D01*
G01*
X86500001Y126099999D01*
G75*
G02*
X86425001Y126174999I0J75000D01*
G01*
G37*
G36*
G01*
X85925001Y126174999D02*
X85925001Y127499999D01*
G75*
G02*
X86000001Y127574999I75000J0D01*
G01*
X86150001Y127574999D01*
G75*
G02*
X86225001Y127499999I0J-75000D01*
G01*
X86225001Y126174999D01*
G75*
G02*
X86150001Y126099999I-75000J0D01*
G01*
X86000001Y126099999D01*
G75*
G02*
X85925001Y126174999I0J75000D01*
G01*
G37*
%TD*%
D31*
%TO.C,U13*%
X135855001Y78494999D03*
%TD*%
%TO.C,U14*%
X135855001Y85644999D03*
%TD*%
%TO.C,U15*%
X128705001Y78494999D03*
%TD*%
%TO.C,Ue*%
X51000000Y28000000D03*
%TD*%
D32*
%TO.C,Y1*%
X85675001Y114574999D03*
X90875001Y114574999D03*
%TD*%
M02*
