%TF.GenerationSoftware,KiCad,Pcbnew,(5.1.9)-1*%
%TF.CreationDate,2021-04-04T23:22:27+02:00*%
%TF.ProjectId,AR2ISS_AntCTL_HW,41523249-5353-45f4-916e-7443544c5f48,rev?*%
%TF.SameCoordinates,PX2625a00PY8f0d180*%
%TF.FileFunction,Copper,L2,Bot*%
%TF.FilePolarity,Positive*%
%FSLAX46Y46*%
G04 Gerber Fmt 4.6, Leading zero omitted, Abs format (unit mm)*
G04 Created by KiCad (PCBNEW (5.1.9)-1) date 2021-04-04 23:22:27*
%MOMM*%
%LPD*%
G01*
G04 APERTURE LIST*
%TA.AperFunction,ComponentPad*%
%ADD10R,1.600000X1.600000*%
%TD*%
%TA.AperFunction,ComponentPad*%
%ADD11O,1.600000X1.600000*%
%TD*%
%TA.AperFunction,ComponentPad*%
%ADD12C,1.270000*%
%TD*%
%TA.AperFunction,ComponentPad*%
%ADD13C,1.500000*%
%TD*%
%TA.AperFunction,ComponentPad*%
%ADD14C,1.700000*%
%TD*%
%TA.AperFunction,ComponentPad*%
%ADD15C,1.300000*%
%TD*%
%TA.AperFunction,ComponentPad*%
%ADD16C,1.900000*%
%TD*%
%TA.AperFunction,ComponentPad*%
%ADD17R,1.700000X1.700000*%
%TD*%
%TA.AperFunction,ComponentPad*%
%ADD18O,1.700000X1.700000*%
%TD*%
%TA.AperFunction,ComponentPad*%
%ADD19C,1.600000*%
%TD*%
%TA.AperFunction,ComponentPad*%
%ADD20C,2.000000*%
%TD*%
%TA.AperFunction,ComponentPad*%
%ADD21R,2.000000X2.000000*%
%TD*%
%TA.AperFunction,ComponentPad*%
%ADD22R,1.905000X2.000000*%
%TD*%
%TA.AperFunction,ComponentPad*%
%ADD23O,1.905000X2.000000*%
%TD*%
G04 APERTURE END LIST*
D10*
%TO.P,D8,1*%
%TO.N,+24V*%
X19075001Y130204999D03*
D11*
%TO.P,D8,2*%
%TO.N,Net-(D7-Pad2)*%
X26695001Y130204999D03*
%TD*%
D12*
%TO.P,F1,2*%
%TO.N,+12V*%
X78645001Y136674999D03*
%TO.P,F1,1*%
%TO.N,Net-(C1-Pad1)*%
X73545001Y138274999D03*
%TD*%
%TO.P,F2,1*%
%TO.N,Net-(C12-Pad1)*%
X83995001Y141634999D03*
%TO.P,F2,2*%
%TO.N,+12V*%
X89095001Y140034999D03*
%TD*%
%TO.P,F3,2*%
%TO.N,+24V*%
X35745001Y128504999D03*
%TO.P,F3,1*%
%TO.N,Net-(F3-Pad1)*%
X30645001Y130104999D03*
%TD*%
%TO.P,J1,2*%
%TO.N,GND*%
%TA.AperFunction,SMDPad,CuDef*%
G36*
G01*
X87995001Y151459999D02*
X87995001Y152709999D01*
G75*
G02*
X88620001Y153334999I625000J0D01*
G01*
X89870001Y153334999D01*
G75*
G02*
X90495001Y152709999I0J-625000D01*
G01*
X90495001Y151459999D01*
G75*
G02*
X89870001Y150834999I-625000J0D01*
G01*
X88620001Y150834999D01*
G75*
G02*
X87995001Y151459999I0J625000D01*
G01*
G37*
%TD.AperFunction*%
%TO.P,J1,1*%
%TO.N,Net-(J1-Pad1)*%
%TA.AperFunction,SMDPad,CuDef*%
G36*
G01*
X84495001Y151459999D02*
X84495001Y152709999D01*
G75*
G02*
X85120001Y153334999I625000J0D01*
G01*
X86370001Y153334999D01*
G75*
G02*
X86995001Y152709999I0J-625000D01*
G01*
X86995001Y151459999D01*
G75*
G02*
X86370001Y150834999I-625000J0D01*
G01*
X85120001Y150834999D01*
G75*
G02*
X84495001Y151459999I0J625000D01*
G01*
G37*
%TD.AperFunction*%
D13*
X85745001Y152084999D03*
%TO.P,J1,2*%
%TO.N,GND*%
X89245001Y152084999D03*
%TD*%
D14*
%TO.P,J2,34*%
%TO.N,/LCD/LED1*%
X25280001Y163734999D03*
%TO.P,J2,32*%
%TO.N,Net-(J2-Pad32)*%
X25280001Y166274999D03*
%TO.P,J2,30*%
%TO.N,/LCD/IO11*%
X25280001Y168814999D03*
%TO.P,J2,28*%
%TO.N,/LCD/IO9*%
X25280001Y171354999D03*
%TO.P,J2,26*%
%TO.N,Net-(J2-Pad26)*%
X25280001Y173894999D03*
%TO.P,J2,24*%
%TO.N,/LCD/IO3*%
X25280001Y176434999D03*
%TO.P,J2,22*%
%TO.N,/LCD/IO1*%
X25280001Y178974999D03*
%TO.P,J2,20*%
%TO.N,Net-(J2-Pad20)*%
X25280001Y181514999D03*
%TO.P,J2,18*%
%TO.N,GND*%
X25280001Y184054999D03*
%TO.P,J2,16*%
X25280001Y186594999D03*
%TO.P,J2,14*%
%TO.N,Net-(J2-Pad14)*%
X25280001Y189134999D03*
%TO.P,J2,12*%
%TO.N,GND*%
X25280001Y191674999D03*
%TO.P,J2,10*%
X25280001Y194214999D03*
%TO.P,J2,8*%
%TO.N,+5V*%
X25280001Y196754999D03*
%TO.P,J2,6*%
%TO.N,GND*%
X25280001Y199294999D03*
%TO.P,J2,4*%
X25280001Y201834999D03*
%TO.P,J2,2*%
%TO.N,Net-(J2-Pad2)*%
X25280001Y204374999D03*
%TO.P,J2,33*%
%TO.N,/LCD/Backlight*%
X22740001Y163734999D03*
%TO.P,J2,31*%
%TO.N,/LCD/IO12*%
X22740001Y166274999D03*
%TO.P,J2,29*%
%TO.N,/LCD/IO10*%
X22740001Y168814999D03*
%TO.P,J2,27*%
%TO.N,/LCD/IO8*%
X22740001Y171354999D03*
%TO.P,J2,25*%
%TO.N,/LCD/IO4*%
X22740001Y173894999D03*
%TO.P,J2,23*%
%TO.N,/LCD/IO2*%
X22740001Y176434999D03*
%TO.P,J2,21*%
%TO.N,/LCD/IO0*%
X22740001Y178974999D03*
%TO.P,J2,19*%
%TO.N,GND*%
X22740001Y181514999D03*
%TO.P,J2,17*%
X22740001Y184054999D03*
%TO.P,J2,15*%
%TO.N,/LCD/ENC_A*%
X22740001Y186594999D03*
%TO.P,J2,13*%
%TO.N,GND*%
X22740001Y189134999D03*
%TO.P,J2,11*%
X22740001Y191674999D03*
%TO.P,J2,9*%
%TO.N,/LCD/ENC_B*%
X22740001Y194214999D03*
%TO.P,J2,7*%
%TO.N,+5V*%
X22740001Y196754999D03*
%TO.P,J2,5*%
%TO.N,GND*%
X22740001Y199294999D03*
%TO.P,J2,3*%
X22740001Y201834999D03*
%TO.P,J2,1*%
%TO.N,Net-(J2-Pad1)*%
%TA.AperFunction,ComponentPad*%
G36*
G01*
X21890001Y203774999D02*
X21890001Y204974999D01*
G75*
G02*
X22140001Y205224999I250000J0D01*
G01*
X23340001Y205224999D01*
G75*
G02*
X23590001Y204974999I0J-250000D01*
G01*
X23590001Y203774999D01*
G75*
G02*
X23340001Y203524999I-250000J0D01*
G01*
X22140001Y203524999D01*
G75*
G02*
X21890001Y203774999I0J250000D01*
G01*
G37*
%TD.AperFunction*%
%TD*%
%TO.P,J3,1*%
%TO.N,/LCD/LED2*%
%TA.AperFunction,ComponentPad*%
G36*
G01*
X33870001Y203774999D02*
X33870001Y204974999D01*
G75*
G02*
X34120001Y205224999I250000J0D01*
G01*
X35320001Y205224999D01*
G75*
G02*
X35570001Y204974999I0J-250000D01*
G01*
X35570001Y203774999D01*
G75*
G02*
X35320001Y203524999I-250000J0D01*
G01*
X34120001Y203524999D01*
G75*
G02*
X33870001Y203774999I0J250000D01*
G01*
G37*
%TD.AperFunction*%
%TO.P,J3,3*%
%TO.N,/LCD/LED4*%
X34720001Y201834999D03*
%TO.P,J3,5*%
%TO.N,/LCD/LED6*%
X34720001Y199294999D03*
%TO.P,J3,7*%
%TO.N,/LCD/LED7*%
X34720001Y196754999D03*
%TO.P,J3,9*%
%TO.N,/LCD/LED11*%
X34720001Y194214999D03*
%TO.P,J3,11*%
%TO.N,/LCD/LED13*%
X34720001Y191674999D03*
%TO.P,J3,13*%
%TO.N,/LCD/LED15*%
X34720001Y189134999D03*
%TO.P,J3,15*%
%TO.N,/LCD/LED17*%
X34720001Y186594999D03*
%TO.P,J3,17*%
%TO.N,/LCD/LED19*%
X34720001Y184054999D03*
%TO.P,J3,19*%
%TO.N,/LCD/LED9*%
X34720001Y181514999D03*
%TO.P,J3,21*%
%TO.N,Net-(J3-Pad21)*%
X34720001Y178974999D03*
%TO.P,J3,23*%
%TO.N,Net-(J3-Pad23)*%
X34720001Y176434999D03*
%TO.P,J3,25*%
%TO.N,/LCD/CE*%
X34720001Y173894999D03*
%TO.P,J3,27*%
%TO.N,/LCD/D7*%
X34720001Y171354999D03*
%TO.P,J3,29*%
%TO.N,/LCD/D5*%
X34720001Y168814999D03*
%TO.P,J3,31*%
%TO.N,/LCD/D3*%
X34720001Y166274999D03*
%TO.P,J3,33*%
%TO.N,/LCD/D1*%
X34720001Y163734999D03*
%TO.P,J3,2*%
%TO.N,/LCD/LED3*%
X37260001Y204374999D03*
%TO.P,J3,4*%
%TO.N,/LCD/LED5*%
X37260001Y201834999D03*
%TO.P,J3,6*%
%TO.N,/LCD/LED8*%
X37260001Y199294999D03*
%TO.P,J3,8*%
%TO.N,/LCD/LED10*%
X37260001Y196754999D03*
%TO.P,J3,10*%
%TO.N,/LCD/LED12*%
X37260001Y194214999D03*
%TO.P,J3,12*%
%TO.N,/LCD/LED14*%
X37260001Y191674999D03*
%TO.P,J3,14*%
%TO.N,/LCD/LED16*%
X37260001Y189134999D03*
%TO.P,J3,16*%
%TO.N,/LCD/LED18*%
X37260001Y186594999D03*
%TO.P,J3,18*%
%TO.N,/LCD/LED20*%
X37260001Y184054999D03*
%TO.P,J3,20*%
%TO.N,/LCD/LED21*%
X37260001Y181514999D03*
%TO.P,J3,22*%
%TO.N,/LCD/LED22*%
X37260001Y178974999D03*
%TO.P,J3,24*%
%TO.N,/LCD/WR*%
X37260001Y176434999D03*
%TO.P,J3,26*%
%TO.N,/LCD/CD*%
X37260001Y173894999D03*
%TO.P,J3,28*%
%TO.N,/LCD/D6*%
X37260001Y171354999D03*
%TO.P,J3,30*%
%TO.N,/LCD/D4*%
X37260001Y168814999D03*
%TO.P,J3,32*%
%TO.N,/LCD/D2*%
X37260001Y166274999D03*
%TO.P,J3,34*%
%TO.N,/LCD/D0*%
X37260001Y163734999D03*
%TD*%
D15*
%TO.P,J4,11*%
%TO.N,Net-(J4-Pad11)*%
X118660000Y195170000D03*
%TO.P,J4,12*%
%TO.N,/Input/LD1*%
X120950000Y195170000D03*
%TO.P,J4,9*%
%TO.N,Net-(J4-Pad9)*%
X130090000Y195170000D03*
%TO.P,J4,10*%
%TO.N,/Input/LD2*%
X132380000Y195170000D03*
%TO.P,J4,8*%
%TO.N,Net-(J4-Pad8)*%
X129090000Y200030000D03*
%TO.P,J4,7*%
%TO.N,Net-(J4-Pad7)*%
X128070000Y201810000D03*
%TO.P,J4,6*%
%TO.N,Net-(J4-Pad6)*%
X127050000Y200030000D03*
%TO.P,J4,5*%
%TO.N,Net-(J4-Pad5)*%
X126030000Y201810000D03*
%TO.P,J4,4*%
%TO.N,Net-(J4-Pad4)*%
X125010000Y200030000D03*
%TO.P,J4,3*%
%TO.N,Net-(J4-Pad3)*%
X123990000Y201810000D03*
%TO.P,J4,2*%
%TO.N,Net-(J4-Pad2)*%
X122970000Y200030000D03*
%TO.P,J4,1*%
%TO.N,Net-(J4-Pad1)*%
X121950000Y201810000D03*
D16*
%TO.P,J4,13*%
%TO.N,N/C*%
X117270000Y200920000D03*
X133770000Y200920000D03*
%TD*%
%TO.P,J5,1*%
%TO.N,VDDA*%
%TA.AperFunction,ComponentPad*%
G36*
G01*
X75560001Y121624999D02*
X75560001Y122824999D01*
G75*
G02*
X75810001Y123074999I250000J0D01*
G01*
X77010001Y123074999D01*
G75*
G02*
X77260001Y122824999I0J-250000D01*
G01*
X77260001Y121624999D01*
G75*
G02*
X77010001Y121374999I-250000J0D01*
G01*
X75810001Y121374999D01*
G75*
G02*
X75560001Y121624999I0J250000D01*
G01*
G37*
%TD.AperFunction*%
D14*
%TO.P,J5,3*%
%TO.N,/Microcontroller/NRST*%
X76410001Y119684999D03*
%TO.P,J5,5*%
%TO.N,GND*%
X76410001Y117144999D03*
%TO.P,J5,2*%
%TO.N,/Microcontroller/SWDIO*%
X78950001Y122224999D03*
%TO.P,J5,4*%
%TO.N,/Microcontroller/SWCLK*%
X78950001Y119684999D03*
%TO.P,J5,6*%
%TO.N,/Microcontroller/SWO*%
X78950001Y117144999D03*
%TD*%
D17*
%TO.P,J6,1*%
%TO.N,/Rotor/Elevation*%
X116515001Y151534999D03*
D18*
%TO.P,J6,2*%
%TO.N,/Rotor/RIGHT*%
X119055001Y151534999D03*
%TO.P,J6,3*%
%TO.N,/Rotor/UP*%
X116515001Y148994999D03*
%TO.P,J6,4*%
%TO.N,/Rotor/LEFT*%
X119055001Y148994999D03*
%TO.P,J6,5*%
%TO.N,/Rotor/DOWN*%
X116515001Y146454999D03*
%TO.P,J6,6*%
%TO.N,/Rotor/Azimut*%
X119055001Y146454999D03*
%TO.P,J6,7*%
%TO.N,/Rotor/DCout*%
X116515001Y143914999D03*
%TO.P,J6,8*%
%TO.N,GND*%
X119055001Y143914999D03*
%TO.P,J6,9*%
%TO.N,Net-(J6-Pad9)*%
X116515001Y141374999D03*
%TO.P,J6,10*%
%TO.N,Net-(J6-Pad10)*%
X119055001Y141374999D03*
%TD*%
D10*
%TO.P,J7,1*%
%TO.N,/Microcontroller/C_NC*%
X39525001Y151545661D03*
D19*
%TO.P,J7,2*%
%TO.N,/Microcontroller/C_NO*%
X36755001Y151545661D03*
%TO.P,J7,3*%
%TO.N,+5V*%
X33985001Y151545661D03*
%TO.P,J7,4*%
%TO.N,Net-(J7-Pad4)*%
X31215001Y151545661D03*
%TO.P,J7,5*%
%TO.N,Net-(J7-Pad5)*%
X28445001Y151545661D03*
%TO.P,J7,6*%
%TO.N,Net-(J7-Pad6)*%
X38140001Y149005661D03*
%TO.P,J7,7*%
%TO.N,Net-(J7-Pad7)*%
X35370001Y149005661D03*
%TO.P,J7,8*%
%TO.N,Net-(J7-Pad8)*%
X32600001Y149005661D03*
%TO.P,J7,9*%
%TO.N,Net-(F3-Pad1)*%
X29830001Y149005661D03*
%TD*%
D13*
%TO.P,J8,2*%
%TO.N,Net-(J8-Pad2)*%
X56975001Y135554999D03*
%TO.P,J8,1*%
%TO.N,Net-(J8-Pad1)*%
X53475001Y135554999D03*
%TA.AperFunction,SMDPad,CuDef*%
G36*
G01*
X52225001Y134929999D02*
X52225001Y136179999D01*
G75*
G02*
X52850001Y136804999I625000J0D01*
G01*
X54100001Y136804999D01*
G75*
G02*
X54725001Y136179999I0J-625000D01*
G01*
X54725001Y134929999D01*
G75*
G02*
X54100001Y134304999I-625000J0D01*
G01*
X52850001Y134304999D01*
G75*
G02*
X52225001Y134929999I0J625000D01*
G01*
G37*
%TD.AperFunction*%
%TO.P,J8,2*%
%TO.N,Net-(J8-Pad2)*%
%TA.AperFunction,SMDPad,CuDef*%
G36*
G01*
X55725001Y134929999D02*
X55725001Y136179999D01*
G75*
G02*
X56350001Y136804999I625000J0D01*
G01*
X57600001Y136804999D01*
G75*
G02*
X58225001Y136179999I0J-625000D01*
G01*
X58225001Y134929999D01*
G75*
G02*
X57600001Y134304999I-625000J0D01*
G01*
X56350001Y134304999D01*
G75*
G02*
X55725001Y134929999I0J625000D01*
G01*
G37*
%TD.AperFunction*%
%TD*%
D20*
%TO.P,K1,9*%
%TO.N,Net-(J8-Pad2)*%
X57690001Y144179999D03*
%TO.P,K1,4*%
%TO.N,Net-(K1-Pad4)*%
X52610001Y144179999D03*
%TO.P,K1,12*%
%TO.N,Net-(D7-Pad2)*%
X57690001Y151799999D03*
%TO.P,K1,10*%
%TO.N,Net-(K1-Pad10)*%
X57690001Y146719999D03*
D21*
%TO.P,K1,1*%
%TO.N,+24V*%
X52610001Y151799999D03*
D20*
%TO.P,K1,3*%
%TO.N,Net-(K1-Pad3)*%
X52610001Y146719999D03*
%TO.P,K1,8*%
%TO.N,Net-(J8-Pad1)*%
X57690001Y141639999D03*
%TO.P,K1,5*%
%TO.N,Net-(K1-Pad5)*%
X52610001Y141639999D03*
%TD*%
D22*
%TO.P,U1,1*%
%TO.N,Net-(C1-Pad1)*%
X74405001Y149934999D03*
D23*
%TO.P,U1,2*%
%TO.N,GND*%
X76945001Y149934999D03*
%TO.P,U1,3*%
%TO.N,Net-(C10-Pad1)*%
X79485001Y149934999D03*
%TD*%
M02*
